<svg xmlns="http://www.w3.org/2000/svg" xmlns:xlink="http://www.w3.org/1999/xlink" contentStyleType="text/css" data-diagram-type="DESCRIPTION" height="797px" preserveAspectRatio="none" style="width:1430px;height:797px;background:#FFFFFF;" version="1.1" viewBox="0 0 1430 797" width="1430px" zoomAndPan="magnify"><defs/><g><!--cluster Local Ethernet Network--><g class="cluster" data-entity="Local Ethernet Network" data-source-line="10" data-uid="ent0003" id="cluster_Local Ethernet Network"><rect fill="#F9F9F9" height="784" rx="2.5" ry="2.5" style="stroke:#181818;stroke-width:1;" width="1278" x="146.5" y="7"/><path d="M342.7793,7 L342.7793,16.2969 L332.7793,26.2969 L146.5,26.2969" fill="none" style="stroke:#181818;stroke-width:1;"/><text fill="#000000" font-family="sans-serif" font-size="14" font-weight="bold" lengthAdjust="spacing" textLength="186.2793" x="149.5" y="20.9951">Local Ethernet Network</text></g><!--cluster High Availability Cluster--><g class="cluster" data-entity="High Availability Cluster" data-source-line="13" data-uid="ent0006" id="cluster_High Availability Cluster"><rect fill="#F9F9F9" height="616" rx="2.5" ry="2.5" style="stroke:#181818;stroke-width:1;" width="1038" x="362.5" y="50"/><path d="M563.9063,50 L563.9063,59.2969 L553.9063,69.2969 L362.5,69.2969" fill="none" style="stroke:#181818;stroke-width:1;"/><text fill="#000000" font-family="sans-serif" font-size="14" font-weight="bold" lengthAdjust="spacing" textLength="191.4063" x="365.5" y="63.9951">High Availability Cluster</text></g><!--cluster Application Server (Local)--><g class="cluster" data-entity="Application Server .Local." data-source-line="14" data-uid="ent0007" id="cluster_Application Server .Local."><rect fill="#E5E5E5" height="549" rx="2.5" ry="2.5" style="stroke:#181818;stroke-width:1;" width="990" x="386.5" y="93"/><path d="M601.4346,93 L601.4346,102.2969 L591.4346,112.2969 L386.5,112.2969" fill="none" style="stroke:#181818;stroke-width:1;"/><text fill="#000000" font-family="sans-serif" font-size="14" font-weight="bold" lengthAdjust="spacing" textLength="204.9346" x="389.5" y="106.9951">Application Server (Local)</text></g><!--cluster L3C (Normal Mode)--><g class="cluster" data-entity="L3C .Normal Mode." data-source-line="15" data-uid="ent0008" id="cluster_L3C .Normal Mode."><rect fill="#D2D2D2" height="362" rx="2.5" ry="2.5" style="stroke:#181818;stroke-width:1;" width="688" x="410.5" y="256"/><path d="M572.1211,256 L572.1211,265.2969 L562.1211,275.2969 L410.5,275.2969" fill="none" style="stroke:#181818;stroke-width:1;"/><text fill="#000000" font-family="sans-serif" font-size="14" font-weight="bold" lengthAdjust="spacing" textLength="151.6211" x="413.5" y="269.9951">L3C (Normal Mode)</text></g><!--entity **Trigger Module**--><g class="entity" data-entity="..Trigger Module.." data-source-line="11" data-uid="ent0004" id="entity_..Trigger Module.."><rect fill="#FFFFFF" height="46.2969" rx="2.5" ry="2.5" style="stroke:#000000;stroke-width:0.5;" width="160.4014" x="643.5" y="729"/><rect fill="#FFFFFF" height="10" style="stroke:#000000;stroke-width:0.5;" width="15" x="783.9014" y="734"/><rect fill="#FFFFFF" height="2" style="stroke:#000000;stroke-width:0.5;" width="4" x="781.9014" y="736"/><rect fill="#FFFFFF" height="2" style="stroke:#000000;stroke-width:0.5;" width="4" x="781.9014" y="740"/><text fill="#000000" font-family="sans-serif" font-size="14" font-weight="bold" lengthAdjust="spacing" textLength="120.4014" x="658.5" y="761.9951">Trigger Module</text></g><!--entity **Trichromy System**--><g class="entity" data-entity="..Trichromy System.." data-source-line="12" data-uid="ent0005" id="entity_..Trichromy System.."><rect fill="#FFFFFF" height="46.2969" rx="2.5" ry="2.5" style="stroke:#000000;stroke-width:0.5;" width="182.9463" x="163" y="310"/><rect fill="#FFFFFF" height="10" style="stroke:#000000;stroke-width:0.5;" width="15" x="325.9463" y="315"/><rect fill="#FFFFFF" height="2" style="stroke:#000000;stroke-width:0.5;" width="4" x="323.9463" y="317"/><rect fill="#FFFFFF" height="2" style="stroke:#000000;stroke-width:0.5;" width="4" x="323.9463" y="321"/><text fill="#000000" font-family="sans-serif" font-size="14" font-weight="bold" lengthAdjust="spacing" textLength="142.9463" x="178" y="342.9951">Trichromy System</text></g><!--entity **Web Server**--><g class="entity" data-entity="..Web Server.." data-source-line="23" data-uid="ent0015" id="entity_..Web Server.."><rect fill="#FFFFFF" height="46.2969" rx="2.5" ry="2.5" style="stroke:#000000;stroke-width:0.5;" width="131.8408" x="496.5" y="147"/><rect fill="#FFFFFF" height="10" style="stroke:#000000;stroke-width:0.5;" width="15" x="608.3408" y="152"/><rect fill="#FFFFFF" height="2" style="stroke:#000000;stroke-width:0.5;" width="4" x="606.3408" y="154"/><rect fill="#FFFFFF" height="2" style="stroke:#000000;stroke-width:0.5;" width="4" x="606.3408" y="158"/><text fill="#000000" font-family="sans-serif" font-size="14" font-weight="bold" lengthAdjust="spacing" textLength="91.8408" x="511.5" y="179.9951">Web Server</text></g><!--entity **Database**--><g class="entity" data-entity="..Database.." data-source-line="24" data-uid="ent0016" id="entity_..Database.."><rect fill="#FFFFFF" height="46.2969" rx="2.5" ry="2.5" style="stroke:#000000;stroke-width:0.5;" width="114.5049" x="1159" y="556"/><rect fill="#FFFFFF" height="10" style="stroke:#000000;stroke-width:0.5;" width="15" x="1253.5049" y="561"/><rect fill="#FFFFFF" height="2" style="stroke:#000000;stroke-width:0.5;" width="4" x="1251.5049" y="563"/><rect fill="#FFFFFF" height="2" style="stroke:#000000;stroke-width:0.5;" width="4" x="1251.5049" y="567"/><text fill="#000000" font-family="sans-serif" font-size="14" font-weight="bold" lengthAdjust="spacing" textLength="74.5049" x="1174" y="588.9951">Database</text></g><!--entity **EME**--><g class="entity" data-entity="..EME.." data-source-line="16" data-uid="ent0009" id="entity_..EME.."><rect fill="#A7FF89" height="46.2969" rx="2.5" ry="2.5" style="stroke:#000000;stroke-width:0.5;" width="73.0586" x="554" y="556"/><rect fill="#A7FF89" height="10" style="stroke:#000000;stroke-width:0.5;" width="15" x="607.0586" y="561"/><rect fill="#A7FF89" height="2" style="stroke:#000000;stroke-width:0.5;" width="4" x="605.0586" y="563"/><rect fill="#A7FF89" height="2" style="stroke:#000000;stroke-width:0.5;" width="4" x="605.0586" y="567"/><text fill="#000000" font-family="sans-serif" font-size="14" font-weight="bold" lengthAdjust="spacing" textLength="33.0586" x="569" y="588.9951">EME</text></g><!--entity **SYN**--><g class="entity" data-entity="..SYN.." data-source-line="17" data-uid="ent0010" id="entity_..SYN.."><rect fill="#A7FF89" height="46.2969" rx="2.5" ry="2.5" style="stroke:#000000;stroke-width:0.5;" width="71.9375" x="426.5" y="433"/><rect fill="#A7FF89" height="10" style="stroke:#000000;stroke-width:0.5;" width="15" x="478.4375" y="438"/><rect fill="#A7FF89" height="2" style="stroke:#000000;stroke-width:0.5;" width="4" x="476.4375" y="440"/><rect fill="#A7FF89" height="2" style="stroke:#000000;stroke-width:0.5;" width="4" x="476.4375" y="444"/><text fill="#000000" font-family="sans-serif" font-size="14" font-weight="bold" lengthAdjust="spacing" textLength="31.9375" x="441.5" y="465.9951">SYN</text></g><!--entity **REC**--><g class="entity" data-entity="..REC.." data-source-line="18" data-uid="ent0011" id="entity_..REC.."><rect fill="#ADD8E6" height="46.2969" rx="2.5" ry="2.5" style="stroke:#000000;stroke-width:0.5;" width="70.6182" x="859" y="556"/><rect fill="#ADD8E6" height="10" style="stroke:#000000;stroke-width:0.5;" width="15" x="909.6182" y="561"/><rect fill="#ADD8E6" height="2" style="stroke:#000000;stroke-width:0.5;" width="4" x="907.6182" y="563"/><rect fill="#ADD8E6" height="2" style="stroke:#000000;stroke-width:0.5;" width="4" x="907.6182" y="567"/><text fill="#000000" font-family="sans-serif" font-size="14" font-weight="bold" lengthAdjust="spacing" textLength="30.6182" x="874" y="588.9951">REC</text></g><!--entity **RVJ**--><g class="entity" data-entity="..RVJ.." data-source-line="19" data-uid="ent0012" id="entity_..RVJ.."><rect fill="#ADD8E6" height="46.2969" rx="2.5" ry="2.5" style="stroke:#000000;stroke-width:0.5;" width="66.8242" x="633" y="310"/><rect fill="#ADD8E6" height="10" style="stroke:#000000;stroke-width:0.5;" width="15" x="679.8242" y="315"/><rect fill="#ADD8E6" height="2" style="stroke:#000000;stroke-width:0.5;" width="4" x="677.8242" y="317"/><rect fill="#ADD8E6" height="2" style="stroke:#000000;stroke-width:0.5;" width="4" x="677.8242" y="321"/><text fill="#000000" font-family="sans-serif" font-size="14" font-weight="bold" lengthAdjust="spacing" textLength="26.8242" x="648" y="342.9951">RVJ</text></g><!--entity **HMI**--><g class="entity" data-entity="..HMI.." data-source-line="20" data-uid="ent0013" id="entity_..HMI.."><rect fill="#ADD8E6" height="46.2969" rx="2.5" ry="2.5" style="stroke:#000000;stroke-width:0.5;" width="70.8574" x="527" y="310"/><rect fill="#ADD8E6" height="10" style="stroke:#000000;stroke-width:0.5;" width="15" x="577.8574" y="315"/><rect fill="#ADD8E6" height="2" style="stroke:#000000;stroke-width:0.5;" width="4" x="575.8574" y="317"/><rect fill="#ADD8E6" height="2" style="stroke:#000000;stroke-width:0.5;" width="4" x="575.8574" y="321"/><text fill="#000000" font-family="sans-serif" font-size="14" font-weight="bold" lengthAdjust="spacing" textLength="30.8574" x="542" y="342.9951">HMI</text></g><!--entity **MGR**--><g class="entity" data-entity="..MGR.." data-source-line="21" data-uid="ent0014" id="entity_..MGR.."><rect fill="#ADD8E6" height="46.2969" rx="2.5" ry="2.5" style="stroke:#000000;stroke-width:0.5;" width="76.2031" x="753.5" y="433"/><rect fill="#ADD8E6" height="10" style="stroke:#000000;stroke-width:0.5;" width="15" x="809.7031" y="438"/><rect fill="#ADD8E6" height="2" style="stroke:#000000;stroke-width:0.5;" width="4" x="807.7031" y="440"/><rect fill="#ADD8E6" height="2" style="stroke:#000000;stroke-width:0.5;" width="4" x="807.7031" y="444"/><text fill="#000000" font-family="sans-serif" font-size="14" font-weight="bold" lengthAdjust="spacing" textLength="36.2031" x="768.5" y="465.9951">MGR</text></g><!--entity **DGA Clock**--><g class="entity" data-entity="..DGA Clock.." data-source-line="8" data-uid="ent0002" id="entity_..DGA Clock.."><rect fill="#FFFFFF" height="46.2969" rx="2.5" ry="2.5" style="stroke:#000000;stroke-width:0.5;" width="121.1221" x="7" y="310"/><rect fill="#FFFFFF" height="10" style="stroke:#000000;stroke-width:0.5;" width="15" x="108.1221" y="315"/><rect fill="#FFFFFF" height="2" style="stroke:#000000;stroke-width:0.5;" width="4" x="106.1221" y="317"/><rect fill="#FFFFFF" height="2" style="stroke:#000000;stroke-width:0.5;" width="4" x="106.1221" y="321"/><text fill="#000000" font-family="sans-serif" font-size="14" font-weight="bold" lengthAdjust="spacing" textLength="81.1221" x="22" y="342.9951">DGA Clock</text></g><!--link **Trigger Module** to **REC**--><g class="link" data-entity-1="..Trigger Module.." data-entity-2="..REC.." data-source-line="29" data-uid="lnk17" id="link_..Trigger Module.._..REC.."><path d="M744.79,728.8 C757.89,715.21 775.07,697.51 790.5,682 C818.15,654.21 846.1338,626.8581 867.3138,606.3081" fill="none" id="**Trigger Module**-to-**REC**" style="stroke:#000000;stroke-width:1;"/><polygon fill="#000000" points="871.62,602.13,862.3753,605.5264,868.0315,605.6118,867.9461,611.268,871.62,602.13" style="stroke:#000000;stroke-width:1;"/><text fill="#000000" font-family="sans-serif" font-size="13" lengthAdjust="spacing" textLength="96.4844" x="791.5" y="695.0669">FDE_MOD_REC</text></g><!--link **REC** to **Trigger Module**--><g class="link" data-entity-1="..REC.." data-entity-2="..Trigger Module.." data-source-line="39" data-uid="lnk25" id="link_..REC.._..Trigger Module.."><path d="M901.23,602.22 C907.63,628.17 913.48,671.09 892.5,699 C871.75,726.61 842.4919,738.8561 809.6019,745.1861" fill="none" id="**REC**-to-**Trigger Module**" style="stroke:#000000;stroke-width:1;"/><polygon fill="#000000" points="803.71,746.32,813.3038,748.547,808.6199,745.375,811.7918,740.6912,803.71,746.32" style="stroke:#000000;stroke-width:1;"/><text fill="#000000" font-family="sans-serif" font-size="13" lengthAdjust="spacing" textLength="96.4844" x="901.5" y="695.0669">FDE_REC_MOD</text></g><!--link **Trigger Module** to **EME**--><g class="link" data-entity-1="..Trigger Module.." data-entity-2="..EME.." data-source-line="30" data-uid="lnk18" id="link_..Trigger Module.._..EME.."><path d="M685.95,728.87 C673.94,720.56 661.24,710.35 651.5,699 C626.09,669.41 609.8827,633.022 600.2827,607.642" fill="none" id="**Trigger Module**-to-**EME**" style="stroke:#000000;stroke-width:1;"/><polygon fill="#000000" points="598.16,602.03,597.6028,611.8631,599.9289,606.7066,605.0854,609.0328,598.16,602.03" style="stroke:#000000;stroke-width:1;"/><text fill="#000000" font-family="sans-serif" font-size="13" lengthAdjust="spacing" textLength="97.8047" x="652.5" y="695.0669">FDE_MOD_EME</text></g><!--link **EME** to **Trigger Module**--><g class="link" data-entity-1="..EME.." data-entity-2="..Trigger Module.." data-source-line="37" data-uid="lnk23" id="link_..EME.._..Trigger Module.."><path d="M565.89,602.09 C540.98,627.15 509.2,668.5 532.5,699 C546.4,717.19 591.6829,729.4333 637.5629,738.0433" fill="none" id="**EME**-to-**Trigger Module**" style="stroke:#000000;stroke-width:1;"/><polygon fill="#000000" points="643.46,739.15,635.3522,733.5586,638.5458,738.2278,633.8766,741.4214,643.46,739.15" style="stroke:#000000;stroke-width:1;"/><text fill="#000000" font-family="sans-serif" font-size="13" lengthAdjust="spacing" textLength="97.8047" x="533.5" y="695.0669">FDE_EME_MOD</text></g><!--link **DGA Clock** to **SYN**--><g class="link" data-entity-1="..DGA Clock.." data-entity-2="..SYN.." data-source-line="31" data-uid="lnk19" id="link_..DGA Clock.._..SYN.."><path d="M128.35,352.64 C211.67,378.16 352.8831,421.4229 420.6631,442.1829" fill="none" id="**DGA Clock**-to-**SYN**" style="stroke:#000000;stroke-width:1;"/><polygon fill="#000000" points="426.4,443.94,418.966,437.4797,421.6192,442.4757,416.6232,445.1289,426.4,443.94" style="stroke:#000000;stroke-width:1;"/><text fill="#000000" font-family="sans-serif" font-size="13" lengthAdjust="spacing" textLength="91.7109" x="289.5" y="399.0669">FDE_HLG_SYN</text></g><!--link **Trichromy System** to **RVJ**--><g class="link" data-entity-1="..Trichromy System.." data-entity-2="..RVJ.." data-source-line="32" data-uid="lnk20" id="link_..Trichromy System.._..RVJ.."><path d="M286.64,309.81 C316.91,289.51 364.36,261.51 410.5,250 C498.9,227.95 535.98,205.53 615.5,250 C638.08,262.63 649.7798,284.1933 657.2298,304.0233" fill="none" id="**Trichromy System**-to-**RVJ**" style="stroke:#000000;stroke-width:1;"/><polygon fill="#000000" points="659.34,309.64,659.9192,299.8082,657.5815,304.9594,652.4303,302.6217,659.34,309.64" style="stroke:#000000;stroke-width:1;"/><text fill="#000000" font-family="sans-serif" font-size="13" lengthAdjust="spacing" textLength="81.269" x="378" y="236.0669">FDE_TRI_RVJ</text></g><!--link **Web Server** to **HMI**--><g class="link" data-entity-1="..Web Server.." data-entity-2="..HMI.." data-source-line="33" data-uid="lnk21" id="link_..Web Server.._..HMI.."><path d="M562.5,193.05 C562.5,223.79 562.5,273.22 562.5,303.96" fill="none" id="**Web Server**-to-**HMI**" style="stroke:#000000;stroke-width:1;"/><polygon fill="#000000" points="562.5,309.96,566.5,300.96,562.5,304.96,558.5,300.96,562.5,309.96" style="stroke:#000000;stroke-width:1;"/><text fill="#000000" font-family="sans-serif" font-size="13" lengthAdjust="spacing" textLength="93.5137" x="563.5" y="236.0669">FDE_WEB_IHM</text></g><!--link **Database** to **MGR**--><g class="link" data-entity-1="..Database.." data-entity-2="..MGR.." data-source-line="34" data-uid="lnk22" id="link_..Database.._..MGR.."><path d="M1226.06,555.77 C1230.87,540.77 1233.59,521.51 1222.5,509 C1196.59,479.78 936.1425,464.0898 835.6125,459.0598" fill="none" id="**Database**-to-**MGR**" style="stroke:#000000;stroke-width:1;"/><polygon fill="#000000" points="829.62,458.76,838.4089,463.2048,834.6138,459.0099,838.8086,455.2147,829.62,458.76" style="stroke:#000000;stroke-width:1;"/><text fill="#000000" font-family="sans-serif" font-size="13" lengthAdjust="spacing" textLength="97.9634" x="1230.5" y="522.0669">FDE_BDD_MGR</text></g><!--link **MGR** to **Database**--><g class="link" data-entity-1="..MGR.." data-entity-2="..Database.." data-source-line="38" data-uid="lnk24" id="link_..MGR.._..Database.."><path d="M829.7,462.14 C881.08,469.62 974.97,485.23 1052.5,509 C1093.7,521.63 1133.2546,538.4605 1165.6746,553.4605" fill="none" id="**MGR**-to-**Database**" style="stroke:#000000;stroke-width:1;"/><polygon fill="#000000" points="1171.12,555.98,1164.6315,548.5705,1166.5822,553.8804,1161.2723,555.8311,1171.12,555.98" style="stroke:#000000;stroke-width:1;"/><text fill="#000000" font-family="sans-serif" font-size="13" lengthAdjust="spacing" textLength="97.9634" x="1099.5" y="522.0669">FDE_MGR_BDD</text></g><!--link **RVJ** to **MGR**--><g class="link" data-entity-1="..RVJ.." data-entity-2="..MGR.." data-source-line="41" data-uid="lnk26" id="link_..RVJ.._..MGR.."><path d="M689.43,356.19 C711.98,378.03 741.899,406.9869 764.409,428.7769" fill="none" id="**RVJ**-to-**MGR**" style="stroke:#000000;stroke-width:1;"/><polygon fill="#000000" points="768.72,432.95,765.0356,423.8163,765.1275,429.4724,759.4714,429.5643,768.72,432.95" style="stroke:#000000;stroke-width:1;"/><text fill="#000000" font-family="sans-serif" font-size="13" lengthAdjust="spacing" textLength="86.4043" x="736.5" y="399.0669">FDI_RVJ_MGR</text></g><!--link **REC** to **MGR**--><g class="link" data-entity-1="..REC.." data-entity-2="..MGR.." data-source-line="42" data-uid="lnk27" id="link_..REC.._..MGR.."><path d="M875.73,555.95 C857.18,534.16 832.869,505.599 814.279,483.759" fill="none" id="**REC**-to-**MGR**" style="stroke:#000000;stroke-width:1;"/><polygon fill="#000000" points="810.39,479.19,813.1776,488.6361,813.6309,482.9975,819.2695,483.4507,810.39,479.19" style="stroke:#000000;stroke-width:1;"/><text fill="#000000" font-family="sans-serif" font-size="13" lengthAdjust="spacing" textLength="90.9683" x="849.5" y="522.0669">FDI_REC_MGR</text></g><!--link **MGR** to **REC**--><g class="link" data-entity-1="..MGR.." data-entity-2="..REC.." data-source-line="43" data-uid="lnk28" id="link_..MGR.._..REC.."><path d="M829.83,457.74 C867,460.75 921.6,471.76 948.5,509 C960.08,525.03 950.65,538.8153 933.96,552.2053" fill="none" id="**MGR**-to-**REC**" style="stroke:#000000;stroke-width:1;"/><polygon fill="#000000" points="929.28,555.96,938.8031,553.448,933.18,552.8311,933.7969,547.208,929.28,555.96" style="stroke:#000000;stroke-width:1;"/><text fill="#000000" font-family="sans-serif" font-size="13" lengthAdjust="spacing" textLength="90.9683" x="953.5" y="522.0669">FDI_MGR_REC</text></g><!--link **HMI** to **MGR**--><g class="link" data-entity-1="..HMI.." data-entity-2="..MGR.." data-source-line="44" data-uid="lnk29" id="link_..HMI.._..MGR.."><path d="M576.82,356.2 C587.67,371.38 603.87,390.88 622.5,403 C662.9,429.28 711.4079,441.8108 747.4479,448.4008" fill="none" id="**HMI**-to-**MGR**" style="stroke:#000000;stroke-width:1;"/><polygon fill="#000000" points="753.35,449.48,745.2163,443.9264,748.4315,448.5806,743.7773,451.7959,753.35,449.48" style="stroke:#000000;stroke-width:1;"/><text fill="#000000" font-family="sans-serif" font-size="13" lengthAdjust="spacing" textLength="89.4702" x="623.5" y="399.0669">FDI_IHM_MGR</text></g><!--link **MGR** to **EME**--><g class="link" data-entity-1="..MGR.." data-entity-2="..EME.." data-source-line="45" data-uid="lnk30" id="link_..MGR.._..EME.."><path d="M758.96,479.1 C738.2,492.97 710.56,511.01 685.5,526 C666.62,537.29 650.4368,546.2829 632.6968,555.8029" fill="none" id="**MGR**-to-**EME**" style="stroke:#000000;stroke-width:1;"/><polygon fill="#000000" points="627.41,558.64,637.2317,557.9089,631.8157,556.2757,633.4488,550.8597,627.41,558.64" style="stroke:#000000;stroke-width:1;"/><text fill="#000000" font-family="sans-serif" font-size="13" lengthAdjust="spacing" textLength="92.2886" x="712.5" y="522.0669">FDI_MGR_EME</text></g><!--link **EME** to **MGR**--><g class="link" data-entity-1="..EME.." data-entity-2="..MGR.." data-source-line="46" data-uid="lnk31" id="link_..EME.._..MGR.."><path d="M580.89,555.88 C576.11,541.12 573.27,522.1 583.5,509 C604.17,482.52 693.1432,468.2489 747.3332,461.7089" fill="none" id="**EME**-to-**MGR**" style="stroke:#000000;stroke-width:1;"/><polygon fill="#000000" points="753.29,460.99,743.8756,458.0972,748.326,461.5891,744.8341,466.0395,753.29,460.99" style="stroke:#000000;stroke-width:1;"/><text fill="#000000" font-family="sans-serif" font-size="13" lengthAdjust="spacing" textLength="92.2886" x="584.5" y="522.0669">FDI_EME_MGR</text></g><!--link **SYN** to **EME**--><g class="link" data-entity-1="..SYN.." data-entity-2="..EME.." data-source-line="47" data-uid="lnk32" id="link_..SYN.._..EME.."><path d="M454.71,479.06 C451.04,493.61 449.25,512.41 458.5,526 C479.71,557.15 516.796,568.6878 547.966,573.6978" fill="none" id="**SYN**-to-**EME**" style="stroke:#000000;stroke-width:1;"/><polygon fill="#000000" points="553.89,574.65,545.6388,569.2724,548.9534,573.8565,544.3693,577.1711,553.89,574.65" style="stroke:#000000;stroke-width:1;"/><text fill="#000000" font-family="sans-serif" font-size="13" lengthAdjust="spacing" textLength="87.8833" x="459.5" y="522.0669">FDI_SYN_EME</text></g><!--SRC=[XL9HRzem47wEVyMfVUcGU5dLhjt3f80JO6ge1DMggfeYateGaSJ8kArGnN_VsJuW8NIptxxxxhkxxovOB_Dg9RGe8LFbIbMoCl3108AWf_IBr7rLA0szGcHBXuPQg_UJOAmgKmy4MyQ2vqw73qBe5ofRTZg_uJns3oD_iAQ4ipkLYG8Yiv2waWR6qhmhlJn3ugtz7oom6Wywdy-bXaIzl1QoBhGBPmkjoWrCDsiZooQ1AWtp-GB2Dv4NOfONkTbWLw_8rerYEtQuMXLv9aokAfXA_OR5BrolNv0UNTdlwFivBljmCLQwn6cmIsbf_AlzdcRRZ9B8THP-Y-ERspqyVHgVWYTHtyEStqJN1_ZNpoFORW03msJK2c088ybWSgoqPIJtA6SqNzCq5-J2Y9bO7ndkahVx_RPtq-t-WCC0to7cKPhSynI1VsUGGOSC1DetH6IopPE7TuCK0VRPDNInvC9GNzv1d_Wm6QK8iBONL8PizUp7g9UEXWaxDeUuPBJdzZXF4M21_OVXYDhsm6SXoqxEQdkZZ7ezScWmiLLOxLh-euuihyvgfzHktbdYcsz9DsbMZsZDRclB7xb6TyidFq-feREVgDKEmwlj3gDfQaFDEKbgT2kdr33arVu2]--></g></svg>