<svg xmlns="http://www.w3.org/2000/svg" xmlns:xlink="http://www.w3.org/1999/xlink" contentStyleType="text/css" data-diagram-type="SEQUENCE" height="535px" preserveAspectRatio="none" style="width:789px;height:535px;background:#FFFFFF;" version="1.1" viewBox="0 0 789 535" width="789px" zoomAndPan="magnify"><defs/><g><rect fill="none" height="75.3984" style="stroke:#000000;stroke-width:1.5;" width="339.9126" x="145.6851" y="214.8281"/><rect fill="none" height="46.2656" style="stroke:#000000;stroke-width:1.5;" width="479.9492" x="303.1074" y="304.2266"/><g><title>User</title><rect fill="#000000" fill-opacity="0.00000" height="373.5938" width="8" x="19.9551" y="81.2969"/><line style="stroke:#181818;stroke-width:0.5;stroke-dasharray:5,5;" x1="23" x2="23" y1="81.2969" y2="454.8906"/></g><g><title>User Interface .UI.</title><rect fill="#000000" fill-opacity="0.00000" height="373.5938" width="8" x="223.0796" y="81.2969"/><line style="stroke:#181818;stroke-width:0.5;stroke-dasharray:5,5;" x1="226.6851" x2="226.6851" y1="81.2969" y2="454.8906"/></g><g><title>Monitoring Controller</title><rect fill="#000000" fill-opacity="0.00000" height="373.5938" width="8" x="390.3525" y="81.2969"/><line style="stroke:#181818;stroke-width:0.5;stroke-dasharray:5,5;" x1="394.1074" x2="394.1074" y1="81.2969" y2="454.8906"/></g><g><title>Sensors</title><rect fill="#000000" fill-opacity="0.00000" height="373.5938" width="8" x="625.7612" y="81.2969"/><line style="stroke:#181818;stroke-width:0.5;stroke-dasharray:5,5;" x1="629.1201" x2="629.1201" y1="81.2969" y2="454.8906"/></g><g><title>Data Storage</title><rect fill="#000000" fill-opacity="0.00000" height="373.5938" width="8" x="719.7295" y="81.2969"/><line style="stroke:#181818;stroke-width:0.5;stroke-dasharray:5,5;" x1="723.4023" x2="723.4023" y1="81.2969" y2="454.8906"/></g><g class="participant participant-head" data-participant="User"><text fill="#000000" font-family="sans-serif" font-size="14" lengthAdjust="spacing" textLength="31.9102" x="5" y="77.9951">User</text><ellipse cx="23.9551" cy="13.5" fill="#E2E2F0" rx="8" ry="8" style="stroke:#181818;stroke-width:0.5;"/><path d="M23.9551,21.5 L23.9551,48.5 M10.9551,29.5 L36.9551,29.5 M23.9551,48.5 L10.9551,63.5 M23.9551,48.5 L36.9551,63.5" fill="none" style="stroke:#181818;stroke-width:0.5;"/></g><g class="participant participant-tail" data-participant="User"><text fill="#000000" font-family="sans-serif" font-size="14" lengthAdjust="spacing" textLength="31.9102" x="5" y="466.8857">User</text><ellipse cx="23.9551" cy="478.6875" fill="#E2E2F0" rx="8" ry="8" style="stroke:#181818;stroke-width:0.5;"/><path d="M23.9551,486.6875 L23.9551,513.6875 M10.9551,494.6875 L36.9551,494.6875 M23.9551,513.6875 L10.9551,528.6875 M23.9551,513.6875 L36.9551,528.6875" fill="none" style="stroke:#181818;stroke-width:0.5;"/></g><g class="participant participant-head" data-participant="UI"><rect fill="#E2E2F0" height="30.2969" rx="2.5" ry="2.5" style="stroke:#181818;stroke-width:0.5;" width="142.7891" x="155.6851" y="50"/><text fill="#000000" font-family="sans-serif" font-size="14" lengthAdjust="spacing" textLength="128.7891" x="162.6851" y="69.9951">User Interface (UI)</text></g><g class="participant participant-tail" data-participant="UI"><rect fill="#E2E2F0" height="30.2969" rx="2.5" ry="2.5" style="stroke:#181818;stroke-width:0.5;" width="142.7891" x="155.6851" y="453.8906"/><text fill="#000000" font-family="sans-serif" font-size="14" lengthAdjust="spacing" textLength="128.7891" x="162.6851" y="473.8857">User Interface (UI)</text></g><g class="participant participant-head" data-participant="Controller"><rect fill="#E2E2F0" height="30.2969" rx="2.5" ry="2.5" style="stroke:#181818;stroke-width:0.5;" width="162.4902" x="313.1074" y="50"/><text fill="#000000" font-family="sans-serif" font-size="14" lengthAdjust="spacing" textLength="148.4902" x="320.1074" y="69.9951">Monitoring Controller</text></g><g class="participant participant-tail" data-participant="Controller"><rect fill="#E2E2F0" height="30.2969" rx="2.5" ry="2.5" style="stroke:#181818;stroke-width:0.5;" width="162.4902" x="313.1074" y="453.8906"/><text fill="#000000" font-family="sans-serif" font-size="14" lengthAdjust="spacing" textLength="148.4902" x="320.1074" y="473.8857">Monitoring Controller</text></g><g class="participant participant-head" data-participant="Sensors"><rect fill="#E2E2F0" height="30.2969" rx="2.5" ry="2.5" style="stroke:#181818;stroke-width:0.5;" width="69.2822" x="595.1201" y="50"/><text fill="#000000" font-family="sans-serif" font-size="14" lengthAdjust="spacing" textLength="55.2822" x="602.1201" y="69.9951">Sensors</text></g><g class="participant participant-tail" data-participant="Sensors"><rect fill="#E2E2F0" height="30.2969" rx="2.5" ry="2.5" style="stroke:#181818;stroke-width:0.5;" width="69.2822" x="595.1201" y="453.8906"/><text fill="#000000" font-family="sans-serif" font-size="14" lengthAdjust="spacing" textLength="55.2822" x="602.1201" y="473.8857">Sensors</text></g><g class="participant participant-head" data-participant="Storage"><text fill="#000000" font-family="sans-serif" font-size="14" lengthAdjust="spacing" textLength="92.6543" x="674.4023" y="77.9951">Data Storage</text><path d="M705.7295,29 C705.7295,19 723.7295,19 723.7295,19 C723.7295,19 741.7295,19 741.7295,29 L741.7295,55 C741.7295,65 723.7295,65 723.7295,65 C723.7295,65 705.7295,65 705.7295,55 L705.7295,29" fill="#E2E2F0" style="stroke:#181818;stroke-width:0.5;"/><path d="M705.7295,29 C705.7295,39 723.7295,39 723.7295,39 C723.7295,39 741.7295,39 741.7295,29" fill="none" style="stroke:#181818;stroke-width:0.5;"/></g><g class="participant participant-tail" data-participant="Storage"><text fill="#000000" font-family="sans-serif" font-size="14" lengthAdjust="spacing" textLength="92.6543" x="674.4023" y="466.8857">Data Storage</text><path d="M705.7295,480.1875 C705.7295,470.1875 723.7295,470.1875 723.7295,470.1875 C723.7295,470.1875 741.7295,470.1875 741.7295,480.1875 L741.7295,506.1875 C741.7295,516.1875 723.7295,516.1875 723.7295,516.1875 C723.7295,516.1875 705.7295,516.1875 705.7295,506.1875 L705.7295,480.1875" fill="#E2E2F0" style="stroke:#181818;stroke-width:0.5;"/><path d="M705.7295,480.1875 C705.7295,490.1875 723.7295,490.1875 723.7295,490.1875 C723.7295,490.1875 741.7295,490.1875 741.7295,480.1875" fill="none" style="stroke:#181818;stroke-width:0.5;"/></g><g class="message" data-participant-1="User" data-participant-2="UI"><polygon fill="#181818" points="215.0796,108.4297,225.0796,112.4297,215.0796,116.4297,219.0796,112.4297" style="stroke:#181818;stroke-width:1;"/><line style="stroke:#181818;stroke-width:1;" x1="23.9551" x2="221.0796" y1="112.4297" y2="112.4297"/><text fill="#000000" font-family="sans-serif" font-size="13" lengthAdjust="spacing" textLength="179.1245" x="30.9551" y="107.3638">Start measurement session</text></g><g class="message" data-participant-1="UI" data-participant-2="Controller"><polygon fill="#181818" points="382.3525,137.5625,392.3525,141.5625,382.3525,145.5625,386.3525,141.5625" style="stroke:#181818;stroke-width:1;"/><line style="stroke:#181818;stroke-width:1;" x1="227.0796" x2="388.3525" y1="141.5625" y2="141.5625"/><text fill="#000000" font-family="sans-serif" font-size="13" lengthAdjust="spacing" textLength="129.5049" x="234.0796" y="136.4966">Initialize monitoring</text></g><g class="message" data-participant-1="Controller" data-participant-2="Sensors"><polygon fill="#181818" points="617.7612,166.6953,627.7612,170.6953,617.7612,174.6953,621.7612,170.6953" style="stroke:#181818;stroke-width:1;"/><line style="stroke:#181818;stroke-width:1;" x1="394.3525" x2="623.7612" y1="170.6953" y2="170.6953"/><text fill="#000000" font-family="sans-serif" font-size="13" lengthAdjust="spacing" textLength="154.1211" x="401.3525" y="165.6294">Requesting sensor data</text></g><g class="message" data-participant-1="Sensors" data-participant-2="Controller"><polygon fill="#181818" points="405.3525,195.8281,395.3525,199.8281,405.3525,203.8281,401.3525,199.8281" style="stroke:#181818;stroke-width:1;"/><line style="stroke:#181818;stroke-width:1;stroke-dasharray:2,2;" x1="399.3525" x2="628.7612" y1="199.8281" y2="199.8281"/><text fill="#000000" font-family="sans-serif" font-size="13" lengthAdjust="spacing" textLength="211.4087" x="411.3525" y="194.7622">Sending raw data (continuously)</text></g><path d="M145.6851,214.8281 L222.3091,214.8281 L222.3091,221.9609 L212.3091,231.9609 L145.6851,231.9609 L145.6851,214.8281" fill="#EEEEEE" style="stroke:#000000;stroke-width:1.5;"/><rect fill="none" height="75.3984" style="stroke:#000000;stroke-width:1.5;" width="339.9126" x="145.6851" y="214.8281"/><text fill="#000000" font-family="sans-serif" font-size="13" font-weight="bold" lengthAdjust="spacing" textLength="31.624" x="160.6851" y="227.895">loop</text><text fill="#000000" font-family="sans-serif" font-size="11" font-weight="bold" lengthAdjust="spacing" textLength="138.6172" x="237.3091" y="227.0386">[Real time dashboard]</text><g class="message" data-participant-1="Controller" data-participant-2="UI"><polygon fill="#181818" points="238.0796,249.0938,228.0796,253.0938,238.0796,257.0938,234.0796,253.0938" style="stroke:#181818;stroke-width:1;"/><line style="stroke:#181818;stroke-width:1;" x1="232.0796" x2="393.3525" y1="253.0938" y2="253.0938"/><text fill="#000000" font-family="sans-serif" font-size="13" lengthAdjust="spacing" textLength="94.1611" x="244.0796" y="248.0278">Collected data</text></g><g class="message" data-participant-1="Controller" data-participant-2="UI"><polygon fill="#181818" points="238.0796,278.2266,228.0796,282.2266,238.0796,286.2266,234.0796,282.2266" style="stroke:#181818;stroke-width:1;"/><line style="stroke:#181818;stroke-width:1;" x1="232.0796" x2="393.3525" y1="282.2266" y2="282.2266"/><text fill="#000000" font-family="sans-serif" font-size="13" lengthAdjust="spacing" textLength="143.2729" x="244.0796" y="277.1606">System issues (if any)</text></g><path d="M303.1074,304.2266 L379.7314,304.2266 L379.7314,311.3594 L369.7314,321.3594 L303.1074,321.3594 L303.1074,304.2266" fill="#EEEEEE" style="stroke:#000000;stroke-width:1.5;"/><rect fill="none" height="46.2656" style="stroke:#000000;stroke-width:1.5;" width="479.9492" x="303.1074" y="304.2266"/><text fill="#000000" font-family="sans-serif" font-size="13" font-weight="bold" lengthAdjust="spacing" textLength="31.624" x="318.1074" y="317.2935">loop</text><text fill="#000000" font-family="sans-serif" font-size="11" font-weight="bold" lengthAdjust="spacing" textLength="89.6704" x="394.7314" y="316.437">[Data logging]</text><g class="message" data-participant-1="Controller" data-participant-2="Storage"><polygon fill="#181818" points="711.7295,338.4922,721.7295,342.4922,711.7295,346.4922,715.7295,342.4922" style="stroke:#181818;stroke-width:1;"/><line style="stroke:#181818;stroke-width:1;" x1="394.3525" x2="717.7295" y1="342.4922" y2="342.4922"/><text fill="#000000" font-family="sans-serif" font-size="13" lengthAdjust="spacing" textLength="115.2734" x="401.3525" y="337.4263">Store sensor data</text></g><g class="message" data-participant-1="User" data-participant-2="UI"><polygon fill="#181818" points="215.0796,374.625,225.0796,378.625,215.0796,382.625,219.0796,378.625" style="stroke:#181818;stroke-width:1;"/><line style="stroke:#181818;stroke-width:1;" x1="23.9551" x2="221.0796" y1="378.625" y2="378.625"/><text fill="#000000" font-family="sans-serif" font-size="13" lengthAdjust="spacing" textLength="176.9219" x="30.9551" y="373.5591">Stop measurement session</text></g><g class="message" data-participant-1="UI" data-participant-2="Controller"><polygon fill="#181818" points="382.3525,403.7578,392.3525,407.7578,382.3525,411.7578,386.3525,407.7578" style="stroke:#181818;stroke-width:1;"/><line style="stroke:#181818;stroke-width:1;" x1="227.0796" x2="388.3525" y1="407.7578" y2="407.7578"/><text fill="#000000" font-family="sans-serif" font-size="13" lengthAdjust="spacing" textLength="104.6538" x="234.0796" y="402.6919">Stop monitoring</text></g><g class="message" data-participant-1="Controller" data-participant-2="Sensors"><polygon fill="#181818" points="617.7612,432.8906,627.7612,436.8906,617.7612,440.8906,621.7612,436.8906" style="stroke:#181818;stroke-width:1;"/><line style="stroke:#181818;stroke-width:1;" x1="394.3525" x2="623.7612" y1="436.8906" y2="436.8906"/><text fill="#000000" font-family="sans-serif" font-size="13" lengthAdjust="spacing" textLength="105.3647" x="401.3525" y="431.8247">Release sensors</text></g><!--SRC=[ZP4nRiCm34LdynH4fcJ81JnqIHSFNMhu08pDk09aoHLb1ExfIqb6KnSTeeaYdpu_AUgZ3zW91vWfHDERcLp4GyfWuoA76_MCnwuv7P04ksRFlNbdLC6u4I_UnU2jvP39ntN_ecKdFaXcjXW6YdGbOJoyQeIjAjB81IanG7PqVb47jIPL4IScMG9FhBB28iOxw9h4F7hNEeI9XgpvOfn-pCA3IFpceyPt_bnOOXf7SWwJDTZgUDQpLzVAaEX0zupYiTUgSOjVnAudWCfwFwikMOncOeNau-ef351LUnDfi4kwzP67qlS_f5qbyeH6H9tYqToGt7gge58d0AWdTyoBj7uSaxkSJkVFs6MtTGxuzyJbHLRSxrsLdrjxGPzOkENqyR9j6E0R]--></g></svg>