<svg xmlns="http://www.w3.org/2000/svg" xmlns:xlink="http://www.w3.org/1999/xlink" contentStyleType="text/css" data-diagram-type="DESCRIPTION" height="926px" preserveAspectRatio="none" style="width:967px;height:926px;background:#FFFFFF;" version="1.1" viewBox="0 0 967 926" width="967px" zoomAndPan="magnify"><defs/><g><!--cluster SyncNetwork--><g class="cluster" data-entity="SyncNetwork" data-source-line="8" data-uid="ent0002" id="cluster_SyncNetwork"><rect fill="none" height="76" rx="2.5" ry="2.5" style="stroke:#181818;stroke-width:1;" width="214" x="160" y="7"/><path d="M368.9463,7 L368.9463,16.2969 L358.9463,26.2969 L160,26.2969" fill="none" style="stroke:#181818;stroke-width:1;"/><text fill="#000000" font-family="sans-serif" font-size="14" font-weight="bold" lengthAdjust="spacing" textLength="198.9463" x="163" y="20.9951">Synchronization Network</text></g><!--cluster Local Ethernet Network--><g class="cluster" data-entity="Local Ethernet Network" data-source-line="17" data-uid="ent0008" id="cluster_Local Ethernet Network"><rect fill="#FFFFFF" height="812" rx="2.5" ry="2.5" style="stroke:#181818;stroke-width:1;" width="954" x="7" y="108.5"/><path d="M203.2793,108.5 L203.2793,117.7969 L193.2793,127.7969 L7,127.7969" fill="none" style="stroke:#181818;stroke-width:1;"/><text fill="#000000" font-family="sans-serif" font-size="14" font-weight="bold" lengthAdjust="spacing" textLength="186.2793" x="10" y="122.4951">Local Ethernet Network</text></g><!--cluster Client PC--><g class="cluster" data-entity="Client PC" data-source-line="18" data-uid="ent0009" id="cluster_Client PC"><rect fill="#FFFFFF" height="114" rx="2.5" ry="2.5" style="stroke:#181818;stroke-width:1;" width="178" x="362" y="151.5"/><path d="M443.4355,151.5 L443.4355,160.7969 L433.4355,170.7969 L362,170.7969" fill="none" style="stroke:#181818;stroke-width:1;"/><text fill="#000000" font-family="sans-serif" font-size="14" font-weight="bold" lengthAdjust="spacing" textLength="71.4355" x="365" y="165.4951">Client PC</text></g><!--cluster High Availability Cluster--><g class="cluster" data-entity="High Availability Cluster" data-source-line="21" data-uid="ent0011" id="cluster_High Availability Cluster"><rect fill="#F9F9F9" height="607" rx="2.5" ry="2.5" style="stroke:#181818;stroke-width:1;" width="906" x="31" y="289.5"/><path d="M232.4063,289.5 L232.4063,298.7969 L222.4063,308.7969 L31,308.7969" fill="none" style="stroke:#181818;stroke-width:1;"/><text fill="#000000" font-family="sans-serif" font-size="14" font-weight="bold" lengthAdjust="spacing" textLength="191.4063" x="34" y="303.4951">High Availability Cluster</text></g><!--cluster Application Server (Local)--><g class="cluster" data-entity="Application Server .Local." data-source-line="23" data-uid="ent0013" id="cluster_Application Server .Local."><rect fill="#E5E5E5" height="351" rx="2.5" ry="2.5" style="stroke:#181818;stroke-width:1;" width="413" x="55" y="407.5"/><path d="M269.9346,407.5 L269.9346,416.7969 L259.9346,426.7969 L55,426.7969" fill="none" style="stroke:#181818;stroke-width:1;"/><text fill="#000000" font-family="sans-serif" font-size="14" font-weight="bold" lengthAdjust="spacing" textLength="204.9346" x="58" y="421.4951">Application Server (Local)</text></g><!--cluster Application Server (Remote)--><g class="cluster" data-entity="Application Server .Remote." data-source-line="31" data-uid="ent0020" id="cluster_Application Server .Remote."><rect fill="#E5E5E5" height="342" rx="2.5" ry="2.5" style="stroke:#181818;stroke-width:1;" width="421" x="492" y="530.5"/><path d="M726.5195,530.5 L726.5195,539.7969 L716.5195,549.7969 L492,549.7969" fill="none" style="stroke:#181818;stroke-width:1;"/><text fill="#000000" font-family="sans-serif" font-size="14" font-weight="bold" lengthAdjust="spacing" textLength="224.5195" x="495" y="544.4951">Application Server (Remote)</text></g><!--entity EVN_Synchronisation--><g class="entity" data-entity="EVN_Synchronisation" data-source-line="9" data-uid="ent0003" id="entity_EVN_Synchronisation"><ellipse cx="222" cy="54.5" fill="#000000" rx="8" ry="8" style="stroke:#181818;stroke-width:0.5;"/></g><g class="entity" data-entity="GMN4" data-source-line="11" data-uid="ent0005" id="entity_GMN4"><path d="M266,42 L266,50.5 L231.15,54.5 L266,58.5 L266,67.1328 A0,0 0 0 0 266,67.1328 L320.1538,67.1328 A0,0 0 0 0 320.1538,67.1328 L320.1538,52 L310.1538,42 L266,42 A0,0 0 0 0 266,42" fill="#FFFFFF" style="stroke:#181818;stroke-width:0.5;"/><path d="M310.1538,42 L310.1538,52 L320.1538,52 L310.1538,42" fill="#FFFFFF" style="stroke:#181818;stroke-width:0.5;"/><text fill="#000000" font-family="sans-serif" font-size="13" font-weight="bold" lengthAdjust="spacing" textLength="29.0215" x="272" y="59.0669">TDS</text><text fill="#000000" font-family="sans-serif" font-size="13" lengthAdjust="spacing" textLength="4.1323" x="301.0215" y="59.0669">&#160;</text></g><!--entity ENV_Network--><g class="entity" data-entity="ENV_Network" data-source-line="41" data-uid="ent0027" id="entity_ENV_Network"><ellipse cx="105" cy="218" fill="#000000" rx="8" ry="8" style="stroke:#181818;stroke-width:0.5;"/></g><g class="entity" data-entity="GMN28" data-source-line="43" data-uid="ent0029" id="entity_GMN28"><path d="M149,198 L149,214 L114.13,218 L149,222 L149,238.2656 A0,0 0 0 0 149,238.2656 L306.8682,238.2656 A0,0 0 0 0 306.8682,238.2656 L306.8682,208 L296.8682,198 L149,198 A0,0 0 0 0 149,198" fill="#FFFFFF" style="stroke:#181818;stroke-width:0.5;"/><path d="M296.8682,198 L296.8682,208 L306.8682,208 L296.8682,198" fill="#FFFFFF" style="stroke:#181818;stroke-width:0.5;"/><text fill="#000000" font-family="sans-serif" font-size="13" font-weight="bold" lengthAdjust="spacing" textLength="132.7358" x="155" y="215.0669">Trichromy System</text><text fill="#000000" font-family="sans-serif" font-size="13" lengthAdjust="spacing" textLength="4.1323" x="287.7358" y="215.0669">&#160;</text><text fill="#000000" font-family="sans-serif" font-size="13" font-weight="bold" lengthAdjust="spacing" textLength="119.5391" x="155" y="230.1997">Trigger Modules</text><text fill="#000000" font-family="sans-serif" font-size="13" lengthAdjust="spacing" textLength="4.1323" x="274.5391" y="230.1997">&#160;</text></g><!--entity NAV_Client--><g class="entity" data-entity="NAV_Client" data-source-line="19" data-uid="ent0010" id="entity_NAV_Client"><rect fill="#FFFFFF" height="62.5938" rx="2.5" ry="2.5" style="stroke:#000000;stroke-width:0.5;" width="144.6924" x="378.5" y="186.5"/><rect fill="#FFFFFF" height="10" style="stroke:#000000;stroke-width:0.5;" width="15" x="503.1924" y="191.5"/><rect fill="#FFFFFF" height="2" style="stroke:#000000;stroke-width:0.5;" width="4" x="501.1924" y="193.5"/><rect fill="#FFFFFF" height="2" style="stroke:#000000;stroke-width:0.5;" width="4" x="501.1924" y="197.5"/><text fill="#000000" font-family="sans-serif" font-size="14" font-weight="bold" lengthAdjust="spacing" textLength="104.6924" x="393.5" y="219.4951">Web Browser</text><text fill="#000000" font-family="sans-serif" font-size="14" font-weight="bold" lengthAdjust="spacing" textLength="103.6465" x="393.5" y="235.792">(Kiosk Mode)</text></g><!--entity IP--><g class="entity" data-entity="IP" data-source-line="22" data-uid="ent0012" id="entity_IP"><ellipse cx="451" cy="353.5" fill="#FFFFFF" rx="8" ry="8" style="stroke:#181818;stroke-width:0.5;"/><text fill="#000000" font-family="sans-serif" font-size="14" font-weight="bold" lengthAdjust="spacing" textLength="142.6045" x="379.6978" y="383.4951">Virtual IP Address</text></g><!--entity NTP_Local--><g class="entity" data-entity="NTP_Local" data-source-line="24" data-uid="ent0014" id="entity_NTP_Local"><rect fill="#FFFFFF" height="62.5938" rx="2.5" ry="2.5" style="stroke:#000000;stroke-width:0.5;" width="92.0078" x="360" y="442.5"/><rect fill="#FFFFFF" height="10" style="stroke:#000000;stroke-width:0.5;" width="15" x="432.0078" y="447.5"/><rect fill="#FFFFFF" height="2" style="stroke:#000000;stroke-width:0.5;" width="4" x="430.0078" y="449.5"/><rect fill="#FFFFFF" height="2" style="stroke:#000000;stroke-width:0.5;" width="4" x="430.0078" y="453.5"/><text fill="#000000" font-family="sans-serif" font-size="14" font-weight="bold" lengthAdjust="spacing" textLength="52.0078" x="375" y="475.4951">Server</text><text fill="#000000" font-family="sans-serif" font-size="14" font-weight="bold" lengthAdjust="spacing" textLength="31.5273" x="375" y="491.792">NTP</text></g><!--entity L3C_Local--><g class="entity" data-entity="L3C_Local" data-source-line="25" data-uid="ent0015" id="entity_L3C_Local"><rect fill="#D2D2D2" height="62.5938" rx="2.5" ry="2.5" style="stroke:#000000;stroke-width:0.5;" width="157.8105" x="241" y="565.5"/><rect fill="#D2D2D2" height="10" style="stroke:#000000;stroke-width:0.5;" width="15" x="378.8105" y="570.5"/><rect fill="#D2D2D2" height="2" style="stroke:#000000;stroke-width:0.5;" width="4" x="376.8105" y="572.5"/><rect fill="#D2D2D2" height="2" style="stroke:#000000;stroke-width:0.5;" width="4" x="376.8105" y="576.5"/><text fill="#000000" font-family="sans-serif" font-size="14" font-weight="bold" lengthAdjust="spacing" textLength="28.9365" x="256" y="598.4951">L3C</text><text fill="#000000" font-family="sans-serif" font-size="14" font-weight="bold" lengthAdjust="spacing" textLength="117.8105" x="256" y="614.792">(Normal Mode)</text></g><!--entity WEB_Local--><g class="entity" data-entity="WEB_Local" data-source-line="26" data-uid="ent0016" id="entity_WEB_Local"><rect fill="#FFFFFF" height="62.5938" rx="2.5" ry="2.5" style="stroke:#000000;stroke-width:0.5;" width="92.0078" x="233" y="442.5"/><rect fill="#FFFFFF" height="10" style="stroke:#000000;stroke-width:0.5;" width="15" x="305.0078" y="447.5"/><rect fill="#FFFFFF" height="2" style="stroke:#000000;stroke-width:0.5;" width="4" x="303.0078" y="449.5"/><rect fill="#FFFFFF" height="2" style="stroke:#000000;stroke-width:0.5;" width="4" x="303.0078" y="453.5"/><text fill="#000000" font-family="sans-serif" font-size="14" font-weight="bold" lengthAdjust="spacing" textLength="52.0078" x="248" y="475.4951">Server</text><text fill="#000000" font-family="sans-serif" font-size="14" font-weight="bold" lengthAdjust="spacing" textLength="34.959" x="248" y="491.792">Web</text></g><!--entity FIC_Local--><g class="entity" data-entity="FIC_Local" data-source-line="27" data-uid="ent0017" id="entity_FIC_Local"><rect fill="#FFFFFF" height="62.5938" rx="2.5" ry="2.5" style="stroke:#000000;stroke-width:0.5;" width="98.3174" x="108" y="565.5"/><rect fill="#FFFFFF" height="10" style="stroke:#000000;stroke-width:0.5;" width="15" x="186.3174" y="570.5"/><rect fill="#FFFFFF" height="2" style="stroke:#000000;stroke-width:0.5;" width="4" x="184.3174" y="572.5"/><rect fill="#FFFFFF" height="2" style="stroke:#000000;stroke-width:0.5;" width="4" x="184.3174" y="576.5"/><text fill="#000000" font-family="sans-serif" font-size="14" font-weight="bold" lengthAdjust="spacing" textLength="28.6563" x="123" y="598.4951">File</text><text fill="#000000" font-family="sans-serif" font-size="14" font-weight="bold" lengthAdjust="spacing" textLength="58.3174" x="123" y="614.792">System</text></g><!--entity BDD_Local--><g class="entity" data-entity="BDD_Local" data-source-line="28" data-uid="ent0018" id="entity_BDD_Local"><path d="M272.5,707.5 C272.5,697.5 319.7524,697.5 319.7524,697.5 C319.7524,697.5 367.0049,697.5 367.0049,707.5 L367.0049,732.7969 C367.0049,742.7969 319.7524,742.7969 319.7524,742.7969 C319.7524,742.7969 272.5,742.7969 272.5,732.7969 L272.5,707.5" fill="#FFFFFF" style="stroke:#181818;stroke-width:0.5;"/><path d="M272.5,707.5 C272.5,717.5 319.7524,717.5 319.7524,717.5 C319.7524,717.5 367.0049,717.5 367.0049,707.5" fill="none" style="stroke:#181818;stroke-width:0.5;"/><text fill="#000000" font-family="sans-serif" font-size="14" font-weight="bold" lengthAdjust="spacing" textLength="74.5049" x="282.5" y="734.4951">Database</text></g><!--entity ENV_Local--><g class="entity" data-entity="ENV_Local" data-source-line="29" data-uid="ent0019" id="entity_ENV_Local"><ellipse cx="443" cy="597" fill="#000000" rx="8" ry="8" style="stroke:#181818;stroke-width:0.5;"/></g><!--entity FIC_Remote--><g class="entity" data-entity="FIC_Remote" data-source-line="32" data-uid="ent0021" id="entity_FIC_Remote"><rect fill="#FFFFFF" height="62.5938" rx="2.5" ry="2.5" style="stroke:#000000;stroke-width:0.5;" width="98.3174" x="762" y="688.5"/><rect fill="#FFFFFF" height="10" style="stroke:#000000;stroke-width:0.5;" width="15" x="840.3174" y="693.5"/><rect fill="#FFFFFF" height="2" style="stroke:#000000;stroke-width:0.5;" width="4" x="838.3174" y="695.5"/><rect fill="#FFFFFF" height="2" style="stroke:#000000;stroke-width:0.5;" width="4" x="838.3174" y="699.5"/><text fill="#000000" font-family="sans-serif" font-size="14" font-weight="bold" lengthAdjust="spacing" textLength="28.6563" x="777" y="721.4951">File</text><text fill="#000000" font-family="sans-serif" font-size="14" font-weight="bold" lengthAdjust="spacing" textLength="58.3174" x="777" y="737.792">System</text></g><!--entity WEB_Remote--><g class="entity" data-entity="WEB_Remote" data-source-line="33" data-uid="ent0022" id="entity_WEB_Remote"><rect fill="#FFFFFF" height="62.5938" rx="2.5" ry="2.5" style="stroke:#000000;stroke-width:0.5;" width="92.0078" x="635" y="565.5"/><rect fill="#FFFFFF" height="10" style="stroke:#000000;stroke-width:0.5;" width="15" x="707.0078" y="570.5"/><rect fill="#FFFFFF" height="2" style="stroke:#000000;stroke-width:0.5;" width="4" x="705.0078" y="572.5"/><rect fill="#FFFFFF" height="2" style="stroke:#000000;stroke-width:0.5;" width="4" x="705.0078" y="576.5"/><text fill="#000000" font-family="sans-serif" font-size="14" font-weight="bold" lengthAdjust="spacing" textLength="52.0078" x="650" y="598.4951">Server</text><text fill="#000000" font-family="sans-serif" font-size="14" font-weight="bold" lengthAdjust="spacing" textLength="34.959" x="650" y="614.792">Web</text></g><!--entity L3C_Remote--><g class="entity" data-entity="L3C_Remote" data-source-line="34" data-uid="ent0023" id="entity_L3C_Remote"><rect fill="#D2D2D2" height="62.5938" rx="2.5" ry="2.5" style="stroke:#000000;stroke-width:0.5;" width="166.0957" x="561" y="688.5"/><rect fill="#D2D2D2" height="10" style="stroke:#000000;stroke-width:0.5;" width="15" x="707.0957" y="693.5"/><rect fill="#D2D2D2" height="2" style="stroke:#000000;stroke-width:0.5;" width="4" x="705.0957" y="695.5"/><rect fill="#D2D2D2" height="2" style="stroke:#000000;stroke-width:0.5;" width="4" x="705.0957" y="699.5"/><text fill="#000000" font-family="sans-serif" font-size="14" font-weight="bold" lengthAdjust="spacing" textLength="28.9365" x="576" y="721.4951">L3C</text><text fill="#000000" font-family="sans-serif" font-size="14" font-weight="bold" lengthAdjust="spacing" textLength="126.0957" x="576" y="737.792">(Standby Mode)</text></g><!--entity BDD_Remote--><g class="entity" data-entity="BDD_Remote" data-source-line="35" data-uid="ent0024" id="entity_BDD_Remote"><path d="M596.5,821.5 C596.5,811.5 643.7524,811.5 643.7524,811.5 C643.7524,811.5 691.0049,811.5 691.0049,821.5 L691.0049,846.7969 C691.0049,856.7969 643.7524,856.7969 643.7524,856.7969 C643.7524,856.7969 596.5,856.7969 596.5,846.7969 L596.5,821.5" fill="#FFFFFF" style="stroke:#181818;stroke-width:0.5;"/><path d="M596.5,821.5 C596.5,831.5 643.7524,831.5 643.7524,831.5 C643.7524,831.5 691.0049,831.5 691.0049,821.5" fill="none" style="stroke:#181818;stroke-width:0.5;"/><text fill="#000000" font-family="sans-serif" font-size="14" font-weight="bold" lengthAdjust="spacing" textLength="74.5049" x="606.5" y="848.4951">Database</text></g><!--entity NTP_Remote--><g class="entity" data-entity="NTP_Remote" data-source-line="36" data-uid="ent0025" id="entity_NTP_Remote"><rect fill="#FFFFFF" height="62.5938" rx="2.5" ry="2.5" style="stroke:#000000;stroke-width:0.5;" width="92.0078" x="508" y="565.5"/><rect fill="#FFFFFF" height="10" style="stroke:#000000;stroke-width:0.5;" width="15" x="580.0078" y="570.5"/><rect fill="#FFFFFF" height="2" style="stroke:#000000;stroke-width:0.5;" width="4" x="578.0078" y="572.5"/><rect fill="#FFFFFF" height="2" style="stroke:#000000;stroke-width:0.5;" width="4" x="578.0078" y="576.5"/><text fill="#000000" font-family="sans-serif" font-size="14" font-weight="bold" lengthAdjust="spacing" textLength="52.0078" x="523" y="598.4951">Server</text><text fill="#000000" font-family="sans-serif" font-size="14" font-weight="bold" lengthAdjust="spacing" textLength="31.5273" x="523" y="614.792">NTP</text></g><!--entity ENV_Remote--><g class="entity" data-entity="ENV_Remote" data-source-line="37" data-uid="ent0026" id="entity_ENV_Remote"><ellipse cx="517" cy="720" fill="#000000" rx="8" ry="8" style="stroke:#181818;stroke-width:0.5;"/></g><!--entity User--><g class="entity" data-entity="User" data-source-line="15" data-uid="ent0007" id="entity_User"><ellipse cx="451.0503" cy="25" fill="#FFFFFF" rx="8" ry="8" style="stroke:#181818;stroke-width:0.5;"/><path d="M451.0503,33 L451.0503,60 M438.0503,41 L464.0503,41 M451.0503,60 L438.0503,75 M451.0503,60 L464.0503,75" fill="none" style="stroke:#181818;stroke-width:0.5;"/><text fill="#000000" font-family="sans-serif" font-size="14" font-weight="bold" lengthAdjust="spacing" textLength="36.1006" x="433" y="89.4951">User</text></g><!--link User to NAV_Client--><g class="link" data-entity-1="User" data-entity-2="NAV_Client" data-source-line="48" data-uid="lnk31" id="link_User_NAV_Client"><path d="M451,92.55 C451,120.95 451,153.68 451,180.35" fill="none" id="User-to-NAV_Client" style="stroke:#000000;stroke-width:1;"/><polygon fill="#000000" points="451,186.35,455,177.35,451,181.35,447,177.35,451,186.35" style="stroke:#000000;stroke-width:1;"/></g><!--link NAV_Client to IP--><g class="link" data-entity-1="NAV_Client" data-entity-2="IP" data-source-line="49" data-uid="lnk32" id="link_NAV_Client_IP"><path d="M451,249.63 C451,280.42 451,319.89 451,338.31" fill="none" id="NAV_Client-to-IP" style="stroke:#000000;stroke-width:1;"/><polygon fill="#000000" points="451,344.31,455,335.31,451,339.31,447,335.31,451,344.31" style="stroke:#000000;stroke-width:1;"/></g><!--link IP to WEB_Local--><g class="link" data-entity-1="IP" data-entity-2="WEB_Local" data-source-line="50" data-uid="lnk33" id="link_IP_WEB_Local"><path d="M441.9,356.76 C422.39,361.92 375.63,375.98 343,399.5 C326.67,411.27 315.3851,423.2528 304.0351,437.7728" fill="none" id="IP-to-WEB_Local" style="stroke:#000000;stroke-width:1;"/><polygon fill="#000000" points="300.34,442.5,309.0341,437.8727,303.4193,438.5607,302.7313,432.9458,300.34,442.5" style="stroke:#000000;stroke-width:1;"/></g><!--link IP to WEB_Remote--><g class="link" data-entity-1="IP" data-entity-2="WEB_Remote" data-source-line="51" data-uid="lnk34" id="link_IP_WEB_Remote"><path d="M459.56,362.68 C484.57,386.65 559.42,459.05 618,522.5 C630.65,536.21 644.18,551.85 655.44,565.16" fill="none" id="IP-WEB_Remote" style="stroke:#000000;stroke-width:1;stroke-dasharray:7,7;"/></g><!--link WEB_Local to L3C_Local--><g class="link" data-entity-1="WEB_Local" data-entity-2="L3C_Local" data-source-line="53" data-uid="lnk35" id="link_WEB_Local_L3C_Local"><path d="M289.35,505.53 C295.56,523.88 303.44,547.14 309.66,565.48" fill="none" id="WEB_Local-L3C_Local" style="stroke:#000000;stroke-width:1;"/></g><!--link L3C_Local to BDD_Local--><g class="link" data-entity-1="L3C_Local" data-entity-2="BDD_Local" data-source-line="54" data-uid="lnk36" id="link_L3C_Local_BDD_Local"><path d="M320,634.53 C320,655.96 320,672.09 320,691.25" fill="none" id="L3C_Local-BDD_Local" style="stroke:#000000;stroke-width:1;"/><polygon fill="#000000" points="320,628.53,316,637.53,320,633.53,324,637.53,320,628.53" style="stroke:#000000;stroke-width:1;"/><polygon fill="#000000" points="320,697.25,324,688.25,320,692.25,316,688.25,320,697.25" style="stroke:#000000;stroke-width:1;"/></g><!--link WEB_Local to BDD_Local--><g class="link" data-entity-1="WEB_Local" data-entity-2="BDD_Local" data-source-line="55" data-uid="lnk37" id="link_WEB_Local_BDD_Local"><path d="M232.65,480.15 C182.51,486.8 107.37,500.22 90,522.5 C61.03,559.65 63.48,589.56 90,628.5 C130.7,688.26 211.5173,707.8081 266.0673,714.6981" fill="none" id="WEB_Local-to-BDD_Local" style="stroke:#000000;stroke-width:1;"/><polygon fill="#000000" points="272.02,715.45,263.5922,710.3537,267.0594,714.8234,262.5897,718.2907,272.02,715.45" style="stroke:#000000;stroke-width:1;"/></g><!--link FIC_Local to L3C_Local--><g class="link" data-entity-1="FIC_Local" data-entity-2="L3C_Local" data-source-line="56" data-uid="lnk39" id="link_FIC_Local_L3C_Local"><path d="M212.03,597 C223.6,597 223.18,597 234.75,597" fill="none" id="FIC_Local-L3C_Local" style="stroke:#000000;stroke-width:1;"/><polygon fill="#000000" points="206.03,597,215.03,601,211.03,597,215.03,593,206.03,597" style="stroke:#000000;stroke-width:1;"/><polygon fill="#000000" points="240.75,597,231.75,593,235.75,597,231.75,601,240.75,597" style="stroke:#000000;stroke-width:1;"/></g><!--link WEB_Remote to L3C_Remote--><g class="link" data-entity-1="WEB_Remote" data-entity-2="L3C_Remote" data-source-line="58" data-uid="lnk40" id="link_WEB_Remote_L3C_Remote"><path d="M671.66,628.53 C666.05,646.88 658.94,670.14 653.33,688.48" fill="none" id="WEB_Remote-L3C_Remote" style="stroke:#000000;stroke-width:1;stroke-dasharray:7,7;"/></g><!--link L3C_Remote to BDD_Remote--><g class="link" data-entity-1="L3C_Remote" data-entity-2="BDD_Remote" data-source-line="59" data-uid="lnk41" id="link_L3C_Remote_BDD_Remote"><path d="M644,751.6 C644,770.52 644,794.33 644,811.31" fill="none" id="L3C_Remote-BDD_Remote" style="stroke:#000000;stroke-width:1;stroke-dasharray:7,7;"/></g><!--link WEB_Remote to BDD_Remote--><g class="link" data-entity-1="WEB_Remote" data-entity-2="BDD_Remote" data-source-line="60" data-uid="lnk42" id="link_WEB_Remote_BDD_Remote"><path d="M727.43,604.79 C774.51,614.42 844.99,637.01 878,688.5 C896.71,717.68 898.9,738.84 878,766.5 C855.6,796.16 753.4,816.47 691.71,826.26" fill="none" id="WEB_Remote-BDD_Remote" style="stroke:#000000;stroke-width:1;stroke-dasharray:7,7;"/></g><!--link L3C_Remote to FIC_Remote--><g class="link" data-entity-1="L3C_Remote" data-entity-2="FIC_Remote" data-source-line="61" data-uid="lnk43" id="link_L3C_Remote_FIC_Remote"><path d="M733.17,720 C744.74,720 744.31,720 755.88,720" fill="none" id="L3C_Remote-FIC_Remote" style="stroke:#000000;stroke-width:1;"/><polygon fill="#000000" points="727.17,720,736.17,724,732.17,720,736.17,716,727.17,720" style="stroke:#000000;stroke-width:1;"/><polygon fill="#000000" points="761.88,720,752.88,716,756.88,720,752.88,724,761.88,720" style="stroke:#000000;stroke-width:1;"/></g><!--link L3C_Local to L3C_Remote--><g class="link" data-entity-1="L3C_Local" data-entity-2="L3C_Remote" data-source-line="63" data-uid="lnk44" id="link_L3C_Local_L3C_Remote"><path d="M399.26,627.6 C448.72,646.07 512.24,669.79 562.18,688.44" fill="none" id="L3C_Local-L3C_Remote" style="stroke:#000000;stroke-width:1;"/></g><!--link BDD_Local to BDD_Remote--><g class="link" data-entity-1="BDD_Local" data-entity-2="BDD_Remote" data-source-line="64" data-uid="lnk45" id="link_BDD_Local_BDD_Remote"><path d="M367.81,737.53 C429.15,758.73 529.2794,793.3392 590.5894,814.5392" fill="none" id="BDD_Local-to-BDD_Remote" style="stroke:#000000;stroke-width:1;"/><polygon fill="#000000" points="596.26,816.5,589.0613,809.7784,591.5345,814.866,586.447,817.3392,596.26,816.5" style="stroke:#000000;stroke-width:1;"/></g><!--link L3C_Local to ENV_Local--><g class="link" data-entity-1="L3C_Local" data-entity-2="ENV_Local" data-source-line="65" data-uid="lnk46" id="link_L3C_Local_ENV_Local"><path d="M399.28,597 C410.78,597 422.28,597 433.78,597" fill="none" id="L3C_Local-ENV_Local" style="stroke:#000000;stroke-width:1;"/></g><!--link ENV_Remote to L3C_Remote--><g class="link" data-entity-1="ENV_Remote" data-entity-2="L3C_Remote" data-source-line="66" data-uid="lnk48" id="link_ENV_Remote_L3C_Remote"><path d="M526.43,720 C537.91,720 549.39,720 560.87,720" fill="none" id="ENV_Remote-L3C_Remote" style="stroke:#000000;stroke-width:1;stroke-dasharray:7,7;"/></g><!--SRC=[bLHDYzim43tBlqAabrs1GsdfeR0KyacNRareqkob41HRIKHiASZAXhJiVz-HBDaoSRBK9a7Mp9kdUJCQLEwvE5152vpAuY054nh_Yp16Q2XLnjH8vbBXOKxJlTqTA2LFdPjJANHeGAzHX3OGcU7U_2pIdPA2_wMQIu4JfazIxNkObjZOt3Sm8yI5Pcf3Ku1Xwp1P9giwG5a5-F3HFk0kf6POyUrEOxdfzftQ1tmH8Olnd10CQoOoRB3cd2X2DDLmyXuXlqkc2B74PjcWwsIUP4fpFD4xfWJJJIxEq-JWF4SvDthEHYqZQfG6lcUsnaEGpzB-4OJS_U2otEEVCcFtxY39OBboiPfaNXkUxv0-7hnGdjCrpxa-ur5-B456m_lLl9OtK9QG9LVw27aypl0WonGhIqS66u5YZc5mEEGyhVISC_K2mjnP7Uw1OlB5l9QYdLlbMQMLB6O-cyLiLMaOy61uMjYdpoEdHo9L0SwX863q8SQVp7kR6pHsmEV9y9Ax3Ppod5Mm-HaqB1no-ZZgG6PKqpKjhQ9ZjtQ0uNZS0RZixcJftUgUjhMz9VqlLa3htjJ-HXeL-he2rwLx3zaKRQwfoDRdYwhv247Ptj7mVqxRRh8EPAVytg-jl_b5Ln1-NbqTGw5FQ_meRcPJSSQ-AhWsRBTGMj3hcBEoSqRPUHHdyYJYR-5CY53m4OCDhd24uC_xDbrlj_jcknyKr0HlV2fKSCSYrAmVJFowjIzXBMC8ozb6WxMvHfxKgUyE5VH8XVVcVj0CNS36Ybh0XzXMnL7NeSF3nN6Rjix0v-fP0qWLjBczxSEQPFj1RqNe3G00]--></g></svg>