<svg xmlns="http://www.w3.org/2000/svg" xmlns:xlink="http://www.w3.org/1999/xlink" contentStyleType="text/css" data-diagram-type="ACTIVITY" height="1459.375px" preserveAspectRatio="none" style="width:1229px;height:1459px;background:#FFFFFF;" version="1.1" viewBox="0 0 1229 1459" width="1229.6875px" zoomAndPan="magnify"><title>Start Measurement (Step 5)</title><defs/><g><g class="title" data-source-line="1"><text fill="#000000" font-family="sans-serif" font-size="21.875" font-weight="bold" lengthAdjust="spacing" textLength="346.2296" x="440.11" y="51.5549">Start Measurement (Step 5)</text></g><ellipse cx="544.1078" cy="89.5264" fill="#222222" rx="15.625" ry="15.625" style="stroke:#222222;stroke-width:1.5625;"/><rect fill="#F1F1F1" height="53.0762" rx="11.7188" ry="11.7188" style="stroke:#181818;stroke-width:1.5625;" width="289.8773" x="399.1692" y="136.4014"/><text fill="#000000" font-family="sans-serif" font-size="18.75" lengthAdjust="spacing" textLength="258.6273" x="414.7942" y="169.4305">Open measurement control</text><rect fill="#F1F1F1" height="53.0762" rx="11.7188" ry="11.7188" style="stroke:#181818;stroke-width:1.5625;" width="284.2377" x="401.989" y="220.7275"/><text fill="#000000" font-family="sans-serif" font-size="18.75" lengthAdjust="spacing" textLength="252.9877" x="417.614" y="253.7567">Wait until user press starts</text><rect fill="none" height="750.9064" rx="11.7188" ry="11.7188" style="stroke:#000000;stroke-width:2.3438;" width="1196.7621" x="17.1875" y="289.4287"/><path d="M352.4048,289.4287 L352.4048,300.3174 L336.7798,315.9424 L17.1875,315.9424" fill="none" style="stroke:#000000;stroke-width:2.3438;"/><text fill="#000000" font-family="sans-serif" font-size="18.75" lengthAdjust="spacing" textLength="319.5923" x="21.875" y="308.3954">Management of full measurement</text><rect fill="#F1F1F1" height="53.0762" rx="11.7188" ry="11.7188" style="stroke:#181818;stroke-width:1.5625;" width="273.8831" x="407.1663" y="426.8311"/><text fill="#000000" font-family="sans-serif" font-size="18.75" lengthAdjust="spacing" textLength="242.6331" x="422.7913" y="459.8602">Perform sweeping routine</text><rect fill="#F1F1F1" height="53.0762" rx="11.7188" ry="11.7188" style="stroke:#181818;stroke-width:1.5625;" width="306.311" x="390.9523" y="511.1572"/><text fill="#000000" font-family="sans-serif" font-size="18.75" lengthAdjust="spacing" textLength="275.061" x="406.5773" y="544.1864">Capture &amp; process the image</text><polygon fill="#F1F1F1" points="433.2008,595.4834,655.0148,595.4834,673.7648,614.2334,655.0148,632.9834,433.2008,632.9834,414.4508,614.2334,433.2008,595.4834" style="stroke:#181818;stroke-width:1.5625;"/><text fill="#000000" font-family="sans-serif" font-size="18.75" lengthAdjust="spacing" textLength="221.814" x="433.2008" y="620.7245">Captured valid images?</text><text fill="#000000" font-family="sans-serif" font-size="18.75" lengthAdjust="spacing" textLength="32.7576" x="381.6933" y="609.8114">Yes</text><text fill="#000000" font-family="sans-serif" font-size="18.75" lengthAdjust="spacing" textLength="25.4974" x="673.7648" y="609.8114">No</text><rect fill="#F1F1F1" height="53.0762" rx="11.7188" ry="11.7188" style="stroke:#181818;stroke-width:1.5625;" width="239.6057" x="184.5047" y="648.6084"/><text fill="#000000" font-family="sans-serif" font-size="18.75" lengthAdjust="spacing" textLength="208.3557" x="200.1297" y="681.6376">Combine valid images</text><rect fill="#F1F1F1" height="53.0762" rx="11.7188" ry="11.7188" style="stroke:#181818;stroke-width:1.5625;" width="536.7401" x="35.9375" y="732.9346"/><text fill="#000000" font-family="sans-serif" font-size="18.75" lengthAdjust="spacing" textLength="505.4901" x="51.5625" y="765.9637">Compute centered circular ROI for each color channel</text><path d="M995.1385,656.4209 L995.1385,668.8965 L963.8885,675.1465 L995.1385,681.3965 L995.1385,693.8721 A0,0 0 0 0 995.1385,693.8721 L1167.0746,693.8721 A0,0 0 0 0 1167.0746,693.8721 L1167.0746,672.0459 L1151.4496,656.4209 L995.1385,656.4209 A0,0 0 0 0 995.1385,656.4209" fill="#FAFAFA" style="stroke:#181818;stroke-width:0.7813;"/><path d="M1151.4496,656.4209 L1151.4496,672.0459 L1167.0746,672.0459 L1151.4496,656.4209" fill="#FAFAFA" style="stroke:#181818;stroke-width:0.7813;"/><text fill="#000000" font-family="sans-serif" font-size="18.75" lengthAdjust="spacing" textLength="139.1235" x="1004.5135" y="681.6376">For each angle</text><rect fill="#F1F1F1" height="53.0762" rx="11.7188" ry="11.7188" style="stroke:#181818;stroke-width:1.5625;" width="359.9609" x="603.9276" y="648.6084"/><text fill="#000000" font-family="sans-serif" font-size="18.75" lengthAdjust="spacing" textLength="328.7109" x="619.5526" y="681.6376">Check &amp; adjust exposure if needed</text><rect fill="#F1F1F1" height="53.0762" rx="11.7188" ry="11.7188" style="stroke:#181818;stroke-width:1.5625;" width="324.6948" x="621.5607" y="732.9346"/><text fill="#000000" font-family="sans-serif" font-size="18.75" lengthAdjust="spacing" textLength="293.4448" x="637.1857" y="765.9637">Discard noisy or invalid images</text><polygon fill="#F1F1F1" points="544.1078,795.3857,562.8578,814.1357,544.1078,832.8857,525.3578,814.1357,544.1078,795.3857" style="stroke:#181818;stroke-width:1.5625;"/><rect fill="#F1F1F1" height="53.0762" rx="11.7188" ry="11.7188" style="stroke:#181818;stroke-width:1.5625;" width="300.2502" x="393.9827" y="342.5049"/><text fill="#000000" font-family="sans-serif" font-size="18.75" lengthAdjust="spacing" textLength="269.0002" x="409.6077" y="375.5341">Begin measurement process</text><polygon fill="#F1F1F1" points="481.8108,864.1357,606.4049,864.1357,625.1549,882.8857,606.4049,901.6357,481.8108,901.6357,463.0608,882.8857,481.8108,864.1357" style="stroke:#181818;stroke-width:1.5625;"/><text fill="#000000" font-family="sans-serif" font-size="18.75" lengthAdjust="spacing" textLength="124.5941" x="481.8108" y="889.3768">More angles?</text><text fill="#000000" font-family="sans-serif" font-size="18.75" lengthAdjust="spacing" textLength="32.4005" x="625.1549" y="878.4637">yes</text><rect fill="#F1F1F1" height="53.0762" rx="11.7188" ry="11.7188" style="stroke:#181818;stroke-width:1.5625;" width="211.0596" x="438.578" y="968.5089"/><text fill="#000000" font-family="sans-serif" font-size="18.75" lengthAdjust="spacing" textLength="179.8096" x="454.203" y="1001.5381">Stop measurement</text><rect fill="#F1F1F1" height="53.0762" rx="11.7188" ry="11.7188" style="stroke:#181818;stroke-width:1.5625;" width="133.2214" x="477.4971" y="1071.5851"/><text fill="#000000" font-family="sans-serif" font-size="18.75" lengthAdjust="spacing" textLength="101.9714" x="493.1221" y="1104.6143">Save BSDF</text><rect fill="#F1F1F1" height="53.0762" rx="11.7188" ry="11.7188" style="stroke:#181818;stroke-width:1.5625;" width="183.0902" x="452.5627" y="1155.9113"/><text fill="#000000" font-family="sans-serif" font-size="18.75" lengthAdjust="spacing" textLength="151.8402" x="468.1877" y="1188.9404">Export BSDF file</text><rect fill="#F1F1F1" height="53.0762" rx="11.7188" ry="11.7188" style="stroke:#181818;stroke-width:1.5625;" width="289.9963" x="399.1096" y="1240.2374"/><text fill="#000000" font-family="sans-serif" font-size="18.75" lengthAdjust="spacing" textLength="258.7463" x="414.7346" y="1273.2666">Export CSV (relative errors)</text><rect fill="#F1F1F1" height="53.0762" rx="11.7188" ry="11.7188" style="stroke:#181818;stroke-width:1.5625;" width="189.032" x="449.5918" y="1324.5636"/><text fill="#000000" font-family="sans-serif" font-size="18.75" lengthAdjust="spacing" textLength="157.782" x="465.2168" y="1357.5928">Stop the process</text><ellipse cx="544.1078" cy="1426.0773" fill="none" rx="17.1875" ry="17.1875" style="stroke:#222222;stroke-width:1.5625;"/><ellipse cx="544.1078" cy="1426.0773" fill="#222222" rx="9.375" ry="9.375" style="stroke:#222222;stroke-width:1.5625;"/><line style="stroke:#181818;stroke-width:1.5625;" x1="544.1078" x2="544.1078" y1="105.1514" y2="136.4014"/><polygon fill="#181818" points="537.8578,120.7764,544.1078,136.4014,550.3578,120.7764,544.1078,127.0264" style="stroke:#181818;stroke-width:1.5625;"/><line style="stroke:#181818;stroke-width:1.5625;" x1="544.1078" x2="544.1078" y1="189.4775" y2="220.7275"/><polygon fill="#181818" points="537.8578,205.1025,544.1078,220.7275,550.3578,205.1025,544.1078,211.3525" style="stroke:#181818;stroke-width:1.5625;"/><line style="stroke:#181818;stroke-width:1.5625;" x1="544.1078" x2="544.1078" y1="479.9072" y2="511.1572"/><polygon fill="#181818" points="537.8578,495.5322,544.1078,511.1572,550.3578,495.5322,544.1078,501.7822" style="stroke:#181818;stroke-width:1.5625;"/><line style="stroke:#181818;stroke-width:1.5625;" x1="304.3076" x2="304.3076" y1="701.6846" y2="732.9346"/><polygon fill="#181818" points="298.0576,717.3096,304.3076,732.9346,310.5576,717.3096,304.3076,723.5596" style="stroke:#181818;stroke-width:1.5625;"/><line style="stroke:#181818;stroke-width:1.5625;" x1="783.9081" x2="783.9081" y1="701.6846" y2="732.9346"/><polygon fill="#181818" points="777.6581,717.3096,783.9081,732.9346,790.1581,717.3096,783.9081,723.5596" style="stroke:#181818;stroke-width:1.5625;"/><line style="stroke:#181818;stroke-width:1.5625;" x1="414.4508" x2="304.3076" y1="614.2334" y2="614.2334"/><line style="stroke:#181818;stroke-width:1.5625;" x1="304.3076" x2="304.3076" y1="614.2334" y2="648.6084"/><polygon fill="#181818" points="298.0576,632.9834,304.3076,648.6084,310.5576,632.9834,304.3076,639.2334" style="stroke:#181818;stroke-width:1.5625;"/><line style="stroke:#181818;stroke-width:1.5625;" x1="673.7648" x2="783.9081" y1="614.2334" y2="614.2334"/><line style="stroke:#181818;stroke-width:1.5625;" x1="783.9081" x2="783.9081" y1="614.2334" y2="648.6084"/><polygon fill="#181818" points="777.6581,632.9834,783.9081,648.6084,790.1581,632.9834,783.9081,639.2334" style="stroke:#181818;stroke-width:1.5625;"/><line style="stroke:#181818;stroke-width:1.5625;" x1="304.3076" x2="304.3076" y1="786.0107" y2="814.1357"/><line style="stroke:#181818;stroke-width:1.5625;" x1="304.3076" x2="525.3578" y1="814.1357" y2="814.1357"/><polygon fill="#181818" points="509.7328,807.8857,525.3578,814.1357,509.7328,820.3857,515.9828,814.1357" style="stroke:#181818;stroke-width:1.5625;"/><line style="stroke:#181818;stroke-width:1.5625;" x1="783.9081" x2="783.9081" y1="786.0107" y2="814.1357"/><line style="stroke:#181818;stroke-width:1.5625;" x1="783.9081" x2="562.8578" y1="814.1357" y2="814.1357"/><polygon fill="#181818" points="578.4828,807.8857,562.8578,814.1357,578.4828,820.3857,572.2328,814.1357" style="stroke:#181818;stroke-width:1.5625;"/><line style="stroke:#181818;stroke-width:1.5625;" x1="544.1078" x2="544.1078" y1="564.2334" y2="595.4834"/><polygon fill="#181818" points="537.8578,579.8584,544.1078,595.4834,550.3578,579.8584,544.1078,586.1084" style="stroke:#181818;stroke-width:1.5625;"/><line style="stroke:#181818;stroke-width:1.5625;" x1="544.1078" x2="544.1078" y1="395.5811" y2="426.8311"/><polygon fill="#181818" points="537.8578,411.2061,544.1078,426.8311,550.3578,411.2061,544.1078,417.4561" style="stroke:#181818;stroke-width:1.5625;"/><line style="stroke:#181818;stroke-width:1.5625;" x1="625.1549" x2="1188.9496" y1="882.8857" y2="882.8857"/><polygon fill="#181818" points="1182.6996,629.8706,1188.9496,614.2456,1195.1996,629.8706,1188.9496,623.6206" style="stroke:#181818;stroke-width:1.5625;"/><line style="stroke:#181818;stroke-width:1.5625;" x1="1188.9496" x2="1188.9496" y1="369.043" y2="882.8857"/><line style="stroke:#181818;stroke-width:1.5625;" x1="1188.9496" x2="694.2329" y1="369.043" y2="369.043"/><polygon fill="#181818" points="709.8579,362.793,694.2329,369.043,709.8579,375.293,703.6079,369.043" style="stroke:#181818;stroke-width:1.5625;"/><line style="stroke:#181818;stroke-width:1.5625;" x1="544.1078" x2="544.1078" y1="832.8857" y2="864.1357"/><polygon fill="#181818" points="537.8578,848.5107,544.1078,864.1357,550.3578,848.5107,544.1078,854.7607" style="stroke:#181818;stroke-width:1.5625;"/><line style="stroke:#181818;stroke-width:1.5625;" x1="544.1078" x2="544.1078" y1="901.6357" y2="968.5089"/><polygon fill="#181818" points="537.8578,952.8839,544.1078,968.5089,550.3578,952.8839,544.1078,959.1339" style="stroke:#181818;stroke-width:1.5625;"/><text fill="#000000" font-family="sans-serif" font-size="18.75" lengthAdjust="spacing" textLength="23.3551" x="550.3578" y="936.7432">no</text><line style="stroke:#181818;stroke-width:1.5625;" x1="544.1078" x2="544.1078" y1="273.8037" y2="342.5049"/><polygon fill="#181818" points="537.8578,326.8799,544.1078,342.5049,550.3578,326.8799,544.1078,333.1299" style="stroke:#181818;stroke-width:1.5625;"/><line style="stroke:#181818;stroke-width:1.5625;" x1="544.1078" x2="544.1078" y1="1021.5851" y2="1071.5851"/><polygon fill="#181818" points="537.8578,1055.9601,544.1078,1071.5851,550.3578,1055.9601,544.1078,1062.2101" style="stroke:#181818;stroke-width:1.5625;"/><line style="stroke:#181818;stroke-width:1.5625;" x1="544.1078" x2="544.1078" y1="1124.6613" y2="1155.9113"/><polygon fill="#181818" points="537.8578,1140.2863,544.1078,1155.9113,550.3578,1140.2863,544.1078,1146.5363" style="stroke:#181818;stroke-width:1.5625;"/><line style="stroke:#181818;stroke-width:1.5625;" x1="544.1078" x2="544.1078" y1="1208.9874" y2="1240.2374"/><polygon fill="#181818" points="537.8578,1224.6124,544.1078,1240.2374,550.3578,1224.6124,544.1078,1230.8624" style="stroke:#181818;stroke-width:1.5625;"/><line style="stroke:#181818;stroke-width:1.5625;" x1="544.1078" x2="544.1078" y1="1293.3136" y2="1324.5636"/><polygon fill="#181818" points="537.8578,1308.9386,544.1078,1324.5636,550.3578,1308.9386,544.1078,1315.1886" style="stroke:#181818;stroke-width:1.5625;"/><line style="stroke:#181818;stroke-width:1.5625;" x1="544.1078" x2="544.1078" y1="1377.6398" y2="1408.8898"/><polygon fill="#181818" points="537.8578,1393.2648,544.1078,1408.8898,550.3578,1393.2648,544.1078,1399.5148" style="stroke:#181818;stroke-width:1.5625;"/><!--SRC=[TLDDZzCm4BtxLupsWD834aNi9P50jAKIXx9eisB5qJYJPgXZMsEdfI3-E-EcfLcnt99vyzwRBoTA5g5EcXDiKCU1iKUNeAWJ1hYTgRWZ5pJh7dhllEdOzmY91vmWiTEDFv3RGgjjd29D89ZVlff4LjZgmQQrTwccdmZprnFmlKcqftJy3yhi3myTcPt3667-377XkK5-FkSXjtfLVZE1xltWcgLdXopbAXNpF5Hv5z11FvcA4JPxMwdoKLE2mIMoC4HX1Svs9rwib5AYcoYHTt2pqKvlHxvleHsidMhUm2y5m1XG9oWNkAMdbe6z4UbAaW3ApyYjPvdu0J7aWRCV4ZaymqiTaX3XnOK6gKEWNlp736gXE2SriDUMcX6DxsOvrK7n5UFib9hbVFzDn9yaLXCm30d1I9MOvGon6QnckB_x258be3QTZCpAf-cqSsX7CigDGF79NtqwD3ifMZVVXvW0VmIV-y_LEiG6cukfysB8jEtIEG2mlXXfjxLu3gDhJhaNWnL5epd7A1v16EJ-xKb8r5vtSUX8NaQnyLB8IJlFY28Knt52BzywdubbdNoOhgnIlvKgQxr7MDIhjHpB1sb8tbV-WrPKhw5b_GKAHglbV15G3fpZhChqB9gNztV_KI9_0000]--></g></svg>