<svg xmlns="http://www.w3.org/2000/svg" xmlns:xlink="http://www.w3.org/1999/xlink" contentStyleType="text/css" data-diagram-type="SEQUENCE" height="506px" preserveAspectRatio="none" style="width:662px;height:506px;background:#FFFFFF;" version="1.1" viewBox="0 0 662 506" width="662px" zoomAndPan="magnify"><defs/><g><rect fill="#FFFFFF" height="487.4219" style="stroke:#000000;stroke-width:0.5;" width="133.9795" x="26" y="6"/><text fill="#000000" font-family="sans-serif" font-size="13" font-weight="bold" lengthAdjust="spacing" textLength="34.7788" x="75.6003" y="18.0669">MOD</text><rect fill="#ADD8E6" height="487.4219" style="stroke:#000000;stroke-width:0.5;" width="400.8022" x="201.2681" y="6"/><text fill="#000000" font-family="sans-serif" font-size="13" font-weight="bold" lengthAdjust="spacing" textLength="28.4312" x="387.4536" y="18.0669">REC</text><g><title>PCS_EXT_MOD</title><rect fill="#FFFFFF" height="422.9922" style="stroke:#181818;stroke-width:1;" width="10" x="87.9897" y="66.4297"/></g><g><title>PCS_EXT_MOD</title><rect fill="#FFFFFF" height="50.2656" style="stroke:#181818;stroke-width:1;" width="10" x="92.9897" y="268.9258"/></g><g><title>CIP_SOC_REC</title><rect fill="#FFD700" height="39.6992" style="stroke:#181818;stroke-width:1;" width="10" x="258.5786" y="229.2266"/></g><g><title>CIP_SOC_REC</title><rect fill="#FFD700" height="39.6992" style="stroke:#181818;stroke-width:1;" width="10" x="258.5786" y="319.1914"/></g><g><title>PCS_FEP_REC</title><rect fill="#0066FF" height="108.5313" style="stroke:#181818;stroke-width:1;" width="10" x="394.2065" y="120.6953"/></g><g><title>PCS_FEP_REC</title><rect fill="#0066FF" height="108.5313" style="stroke:#181818;stroke-width:1;" width="10" x="394.2065" y="358.8906"/></g><g><title>CIP_MEM_MDR</title><rect fill="#FFD700" height="29.1328" style="stroke:#181818;stroke-width:1;" width="10" x="529.3184" y="120.6953"/></g><g><title>CIP_MEM_MDR</title><rect fill="#FFD700" height="29.1328" style="stroke:#181818;stroke-width:1;" width="10" x="529.3184" y="438.2891"/></g><rect fill="none" height="408.9922" style="stroke:#000000;stroke-width:1.5;" width="646.7954" x="10" y="73.4297"/><rect fill="none" height="377.8594" style="stroke:#000000;stroke-width:1.5;" width="626.7954" x="20" y="97.5625"/><g><title>PCS_EXT_MOD</title><rect fill="#000000" fill-opacity="0.00000" height="442.9922" width="8" x="88.9897" y="56.4297"/><line style="stroke:#000000;stroke-width:0.5;stroke-dasharray:5,5;" x1="92" x2="92" y1="56.4297" y2="499.4219"/></g><g><title>CIP_SOC_REC</title><rect fill="#000000" fill-opacity="0.00000" height="442.9922" width="8" x="259.5786" y="56.4297"/><line style="stroke:#000000;stroke-width:0.5;stroke-dasharray:5,5;" x1="263.2681" x2="263.2681" y1="56.4297" y2="499.4219"/></g><g><title>PCS_FEP_REC</title><rect fill="#000000" fill-opacity="0.00000" height="442.9922" width="8" x="395.2065" y="56.4297"/><line style="stroke:#000000;stroke-width:0.5;stroke-dasharray:5,5;" x1="398.8945" x2="398.8945" y1="56.4297" y2="499.4219"/></g><g><title>CIP_MEM_MDR</title><rect fill="#000000" fill-opacity="0.00000" height="442.9922" width="8" x="530.3184" y="56.4297"/><line style="stroke:#000000;stroke-width:0.5;stroke-dasharray:5,5;" x1="533.5664" x2="533.5664" y1="56.4297" y2="499.4219"/></g><g class="participant participant-head" data-participant="PCS_EXT_MOD"><rect fill="#FFFFFF" height="30.2969" rx="2.5" ry="2.5" style="stroke:#000000;stroke-width:0.5;" width="125.9795" x="30" y="25.1328"/><text fill="#000000" font-family="sans-serif" font-size="14" font-weight="bold" lengthAdjust="spacing" textLength="111.9795" x="37" y="45.1279">PCS_EXT_MOD</text></g><g class="participant participant-head" data-participant="CIP_SOC_REC"><rect fill="#FFD700" height="30.2969" rx="2.5" ry="2.5" style="stroke:#000000;stroke-width:0.5;" width="116.6211" x="205.2681" y="25.1328"/><text fill="#000000" font-family="sans-serif" font-size="14" font-weight="bold" lengthAdjust="spacing" textLength="102.6211" x="212.2681" y="45.1279">CIP_SOC_REC</text></g><g class="participant participant-head" data-participant="PCS_FEP_REC"><rect fill="#0066FF" height="30.2969" rx="2.5" ry="2.5" style="stroke:#000000;stroke-width:0.5;" width="118.624" x="339.8945" y="25.1328"/><text fill="#000000" font-family="sans-serif" font-size="14" font-weight="bold" lengthAdjust="spacing" textLength="104.624" x="346.8945" y="45.1279">PCS_FEP_REC</text></g><g class="participant participant-head" data-participant="CIP_MEM_MDR"><rect fill="#FFD700" height="30.2969" rx="2.5" ry="2.5" style="stroke:#000000;stroke-width:0.5;" width="127.5039" x="470.5664" y="25.1328"/><text fill="#000000" font-family="sans-serif" font-size="14" font-weight="bold" lengthAdjust="spacing" textLength="113.5039" x="477.5664" y="45.1279">CIP_MEM_MDR</text></g><g><title>PCS_EXT_MOD</title><rect fill="#FFFFFF" height="422.9922" style="stroke:#181818;stroke-width:1;" width="10" x="87.9897" y="66.4297"/></g><g><title>PCS_EXT_MOD</title><rect fill="#FFFFFF" height="50.2656" style="stroke:#181818;stroke-width:1;" width="10" x="92.9897" y="268.9258"/></g><g><title>CIP_SOC_REC</title><rect fill="#FFD700" height="39.6992" style="stroke:#181818;stroke-width:1;" width="10" x="258.5786" y="229.2266"/></g><g><title>CIP_SOC_REC</title><rect fill="#FFD700" height="39.6992" style="stroke:#181818;stroke-width:1;" width="10" x="258.5786" y="319.1914"/></g><g><title>PCS_FEP_REC</title><rect fill="#0066FF" height="108.5313" style="stroke:#181818;stroke-width:1;" width="10" x="394.2065" y="120.6953"/></g><g><title>PCS_FEP_REC</title><rect fill="#0066FF" height="108.5313" style="stroke:#181818;stroke-width:1;" width="10" x="394.2065" y="358.8906"/></g><g><title>CIP_MEM_MDR</title><rect fill="#FFD700" height="29.1328" style="stroke:#181818;stroke-width:1;" width="10" x="529.3184" y="120.6953"/></g><g><title>CIP_MEM_MDR</title><rect fill="#FFD700" height="29.1328" style="stroke:#181818;stroke-width:1;" width="10" x="529.3184" y="438.2891"/></g><path d="M10,73.4297 L529.9634,73.4297 L529.9634,80.5625 L519.9634,90.5625 L10,90.5625 L10,73.4297" fill="#EEEEEE" style="stroke:#000000;stroke-width:1.5;"/><rect fill="none" height="408.9922" style="stroke:#000000;stroke-width:1.5;" width="646.7954" x="10" y="73.4297"/><text fill="#000000" font-family="sans-serif" font-size="13" font-weight="bold" lengthAdjust="spacing" textLength="474.9634" x="25" y="86.4966">REC data reception: equipment status and communication alerts</text><path d="M20,97.5625 L96.624,97.5625 L96.624,104.6953 L86.624,114.6953 L20,114.6953 L20,97.5625" fill="#EEEEEE" style="stroke:#000000;stroke-width:1.5;"/><rect fill="none" height="377.8594" style="stroke:#000000;stroke-width:1.5;" width="626.7954" x="20" y="97.5625"/><text fill="#000000" font-family="sans-serif" font-size="13" font-weight="bold" lengthAdjust="spacing" textLength="31.624" x="35" y="110.6294">loop</text><g class="message" data-participant-1="PCS_FEP_REC" data-participant-2="CIP_MEM_MDR"><polygon fill="#000000" points="517.3184,116.6953,527.3184,120.6953,517.3184,124.6953,521.3184,120.6953" style="stroke:#000000;stroke-width:1;"/><line style="stroke:#000000;stroke-width:1;" x1="404.2065" x2="523.3184" y1="120.6953" y2="120.6953"/></g><g class="message" data-participant-1="CIP_MEM_MDR" data-participant-2="PCS_FEP_REC"><polygon fill="#000000" points="415.2065,145.8281,405.2065,149.8281,415.2065,153.8281,411.2065,149.8281" style="stroke:#000000;stroke-width:1;"/><line style="stroke:#000000;stroke-width:1;stroke-dasharray:2,2;" x1="409.2065" x2="533.3184" y1="149.8281" y2="149.8281"/><text fill="#000000" font-family="sans-serif" font-size="13" lengthAdjust="spacing" textLength="101.1118" x="421.2065" y="144.7622">[FDI_MGR_REC]</text></g><g class="message" data-participant-1="PCS_FEP_REC" data-participant-2="PCS_FEP_REC"><line style="stroke:#000000;stroke-width:1;" x1="404.2065" x2="446.2065" y1="175.4609" y2="175.4609"/><line style="stroke:#000000;stroke-width:1;" x1="446.2065" x2="446.2065" y1="175.4609" y2="188.4609"/><line style="stroke:#000000;stroke-width:1;" x1="405.2065" x2="446.2065" y1="188.4609" y2="188.4609"/><polygon fill="#000000" points="415.2065,184.4609,405.2065,188.4609,415.2065,192.4609,411.2065,188.4609" style="stroke:#000000;stroke-width:1;"/></g><path d="M469,162.8281 L469,202.8281 L626,202.8281 L626,172.8281 L616,162.8281 L469,162.8281" fill="#FFFFFF" style="stroke:#181818;stroke-width:0.5;"/><path d="M616,162.8281 L616,172.8281 L626,172.8281 L616,162.8281" fill="#FFFFFF" style="stroke:#181818;stroke-width:0.5;"/><text fill="#000000" font-family="sans-serif" font-size="13" font-weight="bold" lengthAdjust="spacing" textLength="67.0947" x="475" y="179.895">Encoding</text><text fill="#000000" font-family="sans-serif" font-size="13" lengthAdjust="spacing" textLength="136.5889" x="475" y="195.0278">MODBUS TCP frames</text><g class="message" data-participant-1="PCS_FEP_REC" data-participant-2="CIP_SOC_REC"><polygon fill="#000000" points="279.5786,225.2266,269.5786,229.2266,279.5786,233.2266,275.5786,229.2266" style="stroke:#000000;stroke-width:1;"/><line style="stroke:#000000;stroke-width:1;" x1="273.5786" x2="398.2065" y1="229.2266" y2="229.2266"/><text fill="#000000" font-family="sans-serif" font-size="13" lengthAdjust="spacing" textLength="106.6279" x="285.5786" y="224.1606">[FDE_REC_MOD]</text></g><g class="message" data-participant-1="CIP_SOC_REC" data-participant-2="PCS_EXT_MOD"><polygon fill="#000000" points="113.9897,264.9258,103.9897,268.9258,113.9897,272.9258,109.9897,268.9258" style="stroke:#000000;stroke-width:1;"/><line style="stroke:#000000;stroke-width:1;" x1="107.9897" x2="262.5786" y1="268.9258" y2="268.9258"/><text fill="#000000" font-family="sans-serif" font-size="13" lengthAdjust="spacing" textLength="136.5889" x="119.9897" y="263.8599">MODBUS TCP frames</text></g><path d="M273,242.2266 L273,282.2266 L430,282.2266 L430,252.2266 L420,242.2266 L273,242.2266" fill="#FFFFFF" style="stroke:#181818;stroke-width:0.5;"/><path d="M420,242.2266 L420,252.2266 L430,252.2266 L420,242.2266" fill="#FFFFFF" style="stroke:#181818;stroke-width:0.5;"/><text fill="#000000" font-family="sans-serif" font-size="13" font-weight="bold" lengthAdjust="spacing" textLength="59.7568" x="279" y="259.2935">Sending</text><text fill="#000000" font-family="sans-serif" font-size="13" lengthAdjust="spacing" textLength="136.5889" x="279" y="274.4263">MODBUS TCP frames</text><g class="message" data-participant-1="PCS_EXT_MOD" data-participant-2="CIP_SOC_REC"><polygon fill="#000000" points="246.5786,315.1914,256.5786,319.1914,246.5786,323.1914,250.5786,319.1914" style="stroke:#000000;stroke-width:1;"/><line style="stroke:#000000;stroke-width:1;" x1="97.9897" x2="252.5786" y1="319.1914" y2="319.1914"/><text fill="#000000" font-family="sans-serif" font-size="13" lengthAdjust="spacing" textLength="136.5889" x="104.9897" y="314.1255">MODBUS TCP frames</text></g><path d="M273,292.4922 L273,332.4922 L430,332.4922 L430,302.4922 L420,292.4922 L273,292.4922" fill="#FFFFFF" style="stroke:#181818;stroke-width:0.5;"/><path d="M420,292.4922 L420,302.4922 L430,302.4922 L420,292.4922" fill="#FFFFFF" style="stroke:#181818;stroke-width:0.5;"/><text fill="#000000" font-family="sans-serif" font-size="13" font-weight="bold" lengthAdjust="spacing" textLength="73.5122" x="279" y="309.5591">Reception</text><text fill="#000000" font-family="sans-serif" font-size="13" lengthAdjust="spacing" textLength="136.5889" x="279" y="324.6919">MODBUS TCP frames</text><g class="message" data-participant-1="CIP_SOC_REC" data-participant-2="PCS_FEP_REC"><polygon fill="#000000" points="382.2065,354.8906,392.2065,358.8906,382.2065,362.8906,386.2065,358.8906" style="stroke:#000000;stroke-width:1;"/><line style="stroke:#000000;stroke-width:1;" x1="263.5786" x2="388.2065" y1="358.8906" y2="358.8906"/><text fill="#000000" font-family="sans-serif" font-size="13" lengthAdjust="spacing" textLength="106.6279" x="270.5786" y="353.8247">[FDE_MOD_REC]</text></g><g class="message" data-participant-1="PCS_FEP_REC" data-participant-2="PCS_FEP_REC"><line style="stroke:#000000;stroke-width:1;" x1="404.2065" x2="446.2065" y1="384.5234" y2="384.5234"/><line style="stroke:#000000;stroke-width:1;" x1="446.2065" x2="446.2065" y1="384.5234" y2="397.5234"/><line style="stroke:#000000;stroke-width:1;" x1="405.2065" x2="446.2065" y1="397.5234" y2="397.5234"/><polygon fill="#000000" points="415.2065,393.5234,405.2065,397.5234,415.2065,401.5234,411.2065,397.5234" style="stroke:#000000;stroke-width:1;"/></g><path d="M469,371.8906 L469,411.8906 L626,411.8906 L626,381.8906 L616,371.8906 L469,371.8906" fill="#FFFFFF" style="stroke:#181818;stroke-width:0.5;"/><path d="M616,371.8906 L616,381.8906 L626,381.8906 L616,371.8906" fill="#FFFFFF" style="stroke:#181818;stroke-width:0.5;"/><text fill="#000000" font-family="sans-serif" font-size="13" font-weight="bold" lengthAdjust="spacing" textLength="68.5674" x="475" y="388.9575">Decoding</text><text fill="#000000" font-family="sans-serif" font-size="13" lengthAdjust="spacing" textLength="136.5889" x="475" y="404.0903">MODBUS TCP frames</text><g class="message" data-participant-1="PCS_FEP_REC" data-participant-2="CIP_MEM_MDR"><polygon fill="#000000" points="517.3184,434.2891,527.3184,438.2891,517.3184,442.2891,521.3184,438.2891" style="stroke:#000000;stroke-width:1;"/><line style="stroke:#000000;stroke-width:1;" x1="404.2065" x2="523.3184" y1="438.2891" y2="438.2891"/><text fill="#000000" font-family="sans-serif" font-size="13" lengthAdjust="spacing" textLength="101.1118" x="411.2065" y="433.2231">[FDI_REC_MGR]</text></g><g class="message" data-participant-1="CIP_MEM_MDR" data-participant-2="PCS_FEP_REC"><polygon fill="#000000" points="410.2065,463.4219,400.2065,467.4219,410.2065,471.4219,406.2065,467.4219" style="stroke:#000000;stroke-width:1;"/><line style="stroke:#000000;stroke-width:1;stroke-dasharray:2,2;" x1="404.2065" x2="533.3184" y1="467.4219" y2="467.4219"/></g><!--SRC=[fLHTQzim57sMViMbVGiKifTiv67Gs4ufrDJO7GosOZHRISKSNKzMjcvZ_tsIcWz7biVQ-ic-7qVdddla1r5pM27gB_X8QVTLo9Ofje6EVzjoMN7uJSa27nUeQguYR531-TGzBhv4gGlzi-6mmAO-XiGl3czcb6HCQL69baaTXEZbVQZBIgCADhdCe5mf_E4LteWLln6IXr3-K6f6XhFqDZw3ywLxA6cFV22BYZBvU5UQYaC1bpKufLnldaIczpAEtoMpqzxeEYkBswWq5ROtVclf-E3B97igc4vdC_zqYv0cQPd6UHWXL72WnoejlZFDWqEi5MvRi2VNJ3DGlEAj5YZdO9OksWqtw9rcUji1Cu0LRZPRAIfcQu0rNEcEaWQnfOJqvxXutoSr1vC-uJ6OzvWEJalwqGk3tWEPmwTbV5scLxdzkZV5DG-Y3JcUe9YqHDEYnFf17tr0o6IIo0fh8TUJYVqs0Yu-570NPR0o5uGR2OYLstQ7TTZjtp5Dx9jTWiUqr-RBCR0FwKTtS-nMEuSGlR712iFxV-VoLDqTxs_MTzYJ7lkehyTpkEPxSpwNRP_0YwJj6osnC2D66v5aQFONsZ3chxFXuJgw2-DiU9NVl_BoVTR_l75Z3ZTCxJ-AZknfF_TV]--></g></svg>