<svg xmlns="http://www.w3.org/2000/svg" xmlns:xlink="http://www.w3.org/1999/xlink" contentStyleType="text/css" data-diagram-type="ACTIVITY" height="746px" preserveAspectRatio="none" style="width:640px;height:746px;background:#FFFFFF;" version="1.1" viewBox="0 0 640 746" width="640px" zoomAndPan="magnify"><defs/><g><ellipse cx="387.3721" cy="20" fill="#222222" rx="10" ry="10" style="stroke:#222222;stroke-width:1;"/><rect fill="#D3D3D3" height="33.9688" rx="12.5" ry="12.5" style="stroke:#000000;stroke-width:0.5;" width="137.8906" x="318.4268" y="50"/><text fill="#000000" font-family="sans-serif" font-size="12" lengthAdjust="spacing" textLength="117.8906" x="328.4268" y="71.1387">Read CIP_MEM_MFL</text><rect fill="none" height="431.4922" style="stroke:#000000;stroke-width:1.5;" width="593.3164" x="11" y="164.0933"/><path d="M388.5684,164.0933 L388.5684,173.3901 L378.5684,183.3901 L11,183.3901" fill="none" style="stroke:#000000;stroke-width:1.5;"/><text fill="#000000" font-family="sans-serif" font-size="14" font-weight="bold" lengthAdjust="spacing" textLength="367.5684" x="14" y="178.0884">Management of information coming from MOD</text><rect fill="#D3D3D3" height="47.9375" rx="12.5" ry="12.5" style="stroke:#000000;stroke-width:0.5;" width="141.8809" x="316.4316" y="200.3901"/><text fill="#000000" font-family="sans-serif" font-size="12" lengthAdjust="spacing" textLength="119.2676" x="326.4316" y="221.5288">Read BDD_VUE_IEM</text><text fill="#000000" font-family="sans-serif" font-size="12" lengthAdjust="spacing" textLength="121.8809" x="326.4316" y="235.4976">Read CIP_MEM_MDR</text><path d="M172.2891,258.3276 L172.2891,283.4604 L283.9399,283.4604 L283.9399,268.3276 L273.9399,258.3276 L172.2891,258.3276" fill="#FEFFDD" style="stroke:#181818;stroke-width:0.5;"/><path d="M273.9399,258.3276 L273.9399,268.3276 L283.9399,268.3276 L273.9399,258.3276" fill="#FEFFDD" style="stroke:#181818;stroke-width:0.5;"/><text fill="#000000" font-family="sans-serif" font-size="13" lengthAdjust="spacing" textLength="90.6509" x="178.2891" y="275.3945">For each MDR</text><polygon fill="#D3D3D3" points="295.9399,283.4604,478.8042,283.4604,490.8042,309.0698,478.8042,334.6792,295.9399,334.6792,283.9399,309.0698,295.9399,283.4604" style="stroke:#000000;stroke-width:0.5;"/><text fill="#000000" font-family="sans-serif" font-size="11" lengthAdjust="spacing" textLength="3.4966" x="295.9399" y="293.6709">&#160;</text><text fill="#000000" font-family="sans-serif" font-size="11" lengthAdjust="spacing" textLength="182.5366" x="295.9399" y="306.4756">Consistency of MDR IP addresses</text><text fill="#000000" font-family="sans-serif" font-size="11" lengthAdjust="spacing" textLength="182.8643" x="295.9399" y="319.2803">CIP_MEM_MDR vs BDD_VUE_IEM?</text><text fill="#000000" font-family="sans-serif" font-size="11" lengthAdjust="spacing" textLength="3.4966" x="295.9399" y="332.085">&#160;</text><text fill="#000000" font-family="sans-serif" font-size="11" lengthAdjust="spacing" textLength="19.2178" x="264.7222" y="306.4756">Yes</text><text fill="#000000" font-family="sans-serif" font-size="11" lengthAdjust="spacing" textLength="14.9585" x="490.8042" y="306.4756">No</text><rect fill="#555555" height="6" rx="2.5" ry="2.5" style="stroke:#555555;stroke-width:1;" width="435.0859" x="23" y="344.6792"/><rect fill="#D3D3D3" height="33.9688" rx="12.5" ry="12.5" style="stroke:#000000;stroke-width:0.5;" width="170.252" x="35" y="370.6792"/><text fill="#000000" font-family="sans-serif" font-size="12" lengthAdjust="spacing" textLength="150.252" x="45" y="391.8179">Compute new Alert Code</text><rect fill="#D3D3D3" height="33.9688" rx="12.5" ry="12.5" style="stroke:#000000;stroke-width:0.5;" width="146.4512" x="46.9004" y="439.6479"/><text fill="#000000" font-family="sans-serif" font-size="12" lengthAdjust="spacing" textLength="126.4512" x="56.9004" y="460.7866">Write BDD_TAB_MDR</text><rect fill="#D3D3D3" height="33.9688" rx="12.5" ry="12.5" style="stroke:#000000;stroke-width:0.5;" width="210.834" x="233.252" y="370.6792"/><text fill="#000000" font-family="sans-serif" font-size="12" lengthAdjust="spacing" textLength="190.834" x="243.252" y="391.8179">Compute new information state</text><rect fill="#D3D3D3" height="33.9688" rx="12.5" ry="12.5" style="stroke:#000000;stroke-width:0.5;" width="137.9375" x="269.7002" y="439.6479"/><text fill="#000000" font-family="sans-serif" font-size="12" lengthAdjust="spacing" textLength="117.9375" x="279.7002" y="460.7866">Write BDD_TAB_INF</text><rect fill="#555555" height="6" rx="2.5" ry="2.5" style="stroke:#555555;stroke-width:1;" width="435.0859" x="23" y="493.6167"/><rect fill="#D3D3D3" height="33.9688" rx="12.5" ry="12.5" style="stroke:#000000;stroke-width:0.5;" width="143.2871" x="167.8994" y="519.6167"/><text fill="#000000" font-family="sans-serif" font-size="12" lengthAdjust="spacing" textLength="123.2871" x="177.8994" y="540.7554">Write BDD_TAB_EVN</text><rect fill="#D3D3D3" height="75.875" rx="12.5" ry="12.5" style="stroke:#000000;stroke-width:0.5;" width="114.2305" x="478.0859" y="344.6792"/><text fill="#000000" font-family="sans-serif" font-size="12" lengthAdjust="spacing" textLength="43.459" x="488.0859" y="365.8179">Update</text><text fill="#000000" font-family="sans-serif" font-size="12" lengthAdjust="spacing" textLength="87.375" x="491.9004" y="379.7866">CIP_MEM_MDR</text><text fill="#000000" font-family="sans-serif" font-size="12" lengthAdjust="spacing" textLength="28.1895" x="491.9004" y="393.7554">from</text><text fill="#000000" font-family="sans-serif" font-size="12" lengthAdjust="spacing" textLength="90.416" x="491.9004" y="407.7241">BDD_TAB_MDR</text><polygon fill="#D3D3D3" points="387.3721,559.5854,399.3721,571.5854,387.3721,583.5854,375.3721,571.5854,387.3721,559.5854" style="stroke:#000000;stroke-width:0.5;"/><polygon fill="#D3D3D3" points="373.4797,103.9688,401.2644,103.9688,413.2644,123.1758,401.2644,142.3828,373.4797,142.3828,361.4797,123.1758,373.4797,103.9688" style="stroke:#000000;stroke-width:0.5;"/><text fill="#000000" font-family="sans-serif" font-size="11" lengthAdjust="spacing" textLength="39.9932" x="391.3721" y="152.5933">Normal</text><text fill="#000000" font-family="sans-serif" font-size="11" lengthAdjust="spacing" textLength="3.4966" x="373.4797" y="114.1792">&#160;</text><text fill="#000000" font-family="sans-serif" font-size="11" lengthAdjust="spacing" textLength="27.7847" x="373.4797" y="126.9839">MFL?</text><text fill="#000000" font-family="sans-serif" font-size="11" lengthAdjust="spacing" textLength="3.4966" x="373.4797" y="139.7886">&#160;</text><text fill="#000000" font-family="sans-serif" font-size="11" lengthAdjust="spacing" textLength="45.4824" x="413.2644" y="120.5815">Standby</text><polygon fill="#D3D3D3" points="387.3721,615.5854,399.3721,627.5854,387.3721,639.5854,375.3721,627.5854,387.3721,615.5854" style="stroke:#000000;stroke-width:0.5;"/><rect fill="#D3D3D3" height="33.9688" rx="12.5" ry="12.5" style="stroke:#000000;stroke-width:0.5;" width="106.3672" x="334.1885" y="659.5854"/><text fill="#000000" font-family="sans-serif" font-size="12" lengthAdjust="spacing" textLength="86.3672" x="344.1885" y="680.7241">Put in standby</text><ellipse cx="387.3721" cy="724.5542" fill="none" rx="11" ry="11" style="stroke:#222222;stroke-width:1;"/><ellipse cx="387.3721" cy="724.5542" fill="#222222" rx="6" ry="6" style="stroke:#222222;stroke-width:1;"/><line style="stroke:#000000;stroke-width:1;" x1="387.3721" x2="387.3721" y1="30" y2="50"/><polygon fill="#000000" points="383.3721,40,387.3721,50,391.3721,40,387.3721,44" style="stroke:#000000;stroke-width:1;"/><line style="stroke:#000000;stroke-width:1;" x1="120.126" x2="120.126" y1="404.6479" y2="439.6479"/><polygon fill="#000000" points="116.126,429.6479,120.126,439.6479,124.126,429.6479,120.126,433.6479" style="stroke:#000000;stroke-width:1;"/><line style="stroke:#000000;stroke-width:1;" x1="338.6689" x2="338.6689" y1="404.6479" y2="439.6479"/><polygon fill="#000000" points="334.6689,429.6479,338.6689,439.6479,342.6689,429.6479,338.6689,433.6479" style="stroke:#000000;stroke-width:1;"/><line style="stroke:#000000;stroke-width:1;" x1="120.126" x2="120.126" y1="350.6792" y2="370.6792"/><polygon fill="#000000" points="116.126,360.6792,120.126,370.6792,124.126,360.6792,120.126,364.6792" style="stroke:#000000;stroke-width:1;"/><line style="stroke:#000000;stroke-width:1;" x1="338.6689" x2="338.6689" y1="350.6792" y2="370.6792"/><polygon fill="#000000" points="334.6689,360.6792,338.6689,370.6792,342.6689,360.6792,338.6689,364.6792" style="stroke:#000000;stroke-width:1;"/><line style="stroke:#000000;stroke-width:1;" x1="120.126" x2="120.126" y1="473.6167" y2="493.6167"/><polygon fill="#000000" points="116.126,483.6167,120.126,493.6167,124.126,483.6167,120.126,487.6167" style="stroke:#000000;stroke-width:1;"/><line style="stroke:#000000;stroke-width:1;" x1="338.6689" x2="338.6689" y1="473.6167" y2="493.6167"/><polygon fill="#000000" points="334.6689,483.6167,338.6689,493.6167,342.6689,483.6167,338.6689,487.6167" style="stroke:#000000;stroke-width:1;"/><line style="stroke:#000000;stroke-width:1;" x1="239.543" x2="239.543" y1="499.6167" y2="519.6167"/><polygon fill="#000000" points="235.543,509.6167,239.543,519.6167,243.543,509.6167,239.543,513.6167" style="stroke:#000000;stroke-width:1;"/><line style="stroke:#000000;stroke-width:1;" x1="283.9399" x2="239.543" y1="309.0698" y2="309.0698"/><line style="stroke:#000000;stroke-width:1;" x1="239.543" x2="239.543" y1="309.0698" y2="344.6792"/><polygon fill="#000000" points="235.543,334.6792,239.543,344.6792,243.543,334.6792,239.543,338.6792" style="stroke:#000000;stroke-width:1;"/><line style="stroke:#000000;stroke-width:1;" x1="490.8042" x2="535.2012" y1="309.0698" y2="309.0698"/><line style="stroke:#000000;stroke-width:1;" x1="535.2012" x2="535.2012" y1="309.0698" y2="344.6792"/><polygon fill="#000000" points="531.2012,334.6792,535.2012,344.6792,539.2012,334.6792,535.2012,338.6792" style="stroke:#000000;stroke-width:1;"/><line style="stroke:#000000;stroke-width:1;" x1="239.543" x2="239.543" y1="553.5854" y2="571.5854"/><line style="stroke:#000000;stroke-width:1;" x1="239.543" x2="375.3721" y1="571.5854" y2="571.5854"/><polygon fill="#000000" points="365.3721,567.5854,375.3721,571.5854,365.3721,575.5854,369.3721,571.5854" style="stroke:#000000;stroke-width:1;"/><line style="stroke:#000000;stroke-width:1;" x1="535.2012" x2="535.2012" y1="420.5542" y2="571.5854"/><line style="stroke:#000000;stroke-width:1;" x1="535.2012" x2="399.3721" y1="571.5854" y2="571.5854"/><polygon fill="#000000" points="409.3721,567.5854,399.3721,571.5854,409.3721,575.5854,405.3721,571.5854" style="stroke:#000000;stroke-width:1;"/><line style="stroke:#000000;stroke-width:1;" x1="387.3721" x2="387.3721" y1="248.3276" y2="283.4604"/><polygon fill="#000000" points="383.3721,273.4604,387.3721,283.4604,391.3721,273.4604,387.3721,277.4604" style="stroke:#000000;stroke-width:1;"/><line style="stroke:#000000;stroke-width:1;" x1="387.3721" x2="387.3721" y1="142.3828" y2="200.3901"/><polygon fill="#000000" points="383.3721,190.3901,387.3721,200.3901,391.3721,190.3901,387.3721,194.3901" style="stroke:#000000;stroke-width:1;"/><line style="stroke:#000000;stroke-width:1;" x1="413.2644" x2="614.3164" y1="123.1758" y2="123.1758"/><polygon fill="#000000" points="610.3164,365.2358,614.3164,375.2358,618.3164,365.2358,614.3164,369.2358" style="stroke:#000000;stroke-width:1;"/><line style="stroke:#000000;stroke-width:1;" x1="614.3164" x2="614.3164" y1="123.1758" y2="627.5854"/><line style="stroke:#000000;stroke-width:1;" x1="614.3164" x2="399.3721" y1="627.5854" y2="627.5854"/><polygon fill="#000000" points="409.3721,623.5854,399.3721,627.5854,409.3721,631.5854,405.3721,627.5854" style="stroke:#000000;stroke-width:1;"/><line style="stroke:#000000;stroke-width:1;" x1="387.3721" x2="387.3721" y1="583.5854" y2="615.5854"/><polygon fill="#000000" points="383.3721,605.5854,387.3721,615.5854,391.3721,605.5854,387.3721,609.5854" style="stroke:#000000;stroke-width:1;"/><line style="stroke:#000000;stroke-width:1;" x1="387.3721" x2="387.3721" y1="83.9688" y2="103.9688"/><polygon fill="#000000" points="383.3721,93.9688,387.3721,103.9688,391.3721,93.9688,387.3721,97.9688" style="stroke:#000000;stroke-width:1;"/><line style="stroke:#000000;stroke-width:1;" x1="387.3721" x2="387.3721" y1="639.5854" y2="659.5854"/><polygon fill="#000000" points="383.3721,649.5854,387.3721,659.5854,391.3721,649.5854,387.3721,653.5854" style="stroke:#000000;stroke-width:1;"/><line style="stroke:#000000;stroke-width:1;" x1="387.3721" x2="387.3721" y1="693.5542" y2="713.5542"/><polygon fill="#000000" points="383.3721,703.5542,387.3721,713.5542,391.3721,703.5542,387.3721,707.5542" style="stroke:#000000;stroke-width:1;"/><!--SRC=[TLBFQ_Cm33tRVuNOBbklkpM7qIGj59QkxDV71uNYnKfhcaZ5TbVAsFy-EsbfDZfoaVMazvwa2BSnj5LMDQ1ARpwCFy2d110YPQlHPbopXRHMvQRDZgpb_SNaXCd_1j8Gh2plI7V8TNuNFoc-8doMTckbUMze1PMg7KeXXVFAUYd4y0cLXcmwNnRZObbC7X8fJ0Kt2mhn_O9kmQ-Hu6R6jb7rRUW8bDvummHNWq6XIAsmGVB05HYgObaBbjoqWfORA1xpmU0g32vEWccUBzzUnylfk5ZGJmlvKnBhEXCPapFE8vM7A110cCv1QMtHENIXuDm67wxFspF_7rrqBWInHwYnykrBJCBEK9NhoDjca3J4clXe4s6UJLSxpBZPxa8xuHv6DLeF6MjCZkW_Qm8MvLz6QJl4cG3KIXcwGDFVLpY8_uDjEfiaHp_HuCcJl50wVfkr71ZE78_MZJrytMhLJINwY-uIyKHTrBSlEpLJXU1B7WcVlIBzVWYi9sWut_amHxGVaIJ-MRoLuXi0]--></g></svg>