<svg xmlns="http://www.w3.org/2000/svg" xmlns:xlink="http://www.w3.org/1999/xlink" contentStyleType="text/css" data-diagram-type="ACTIVITY" height="939px" preserveAspectRatio="none" style="width:450px;height:939px;background:#FFFFFF;" version="1.1" viewBox="0 0 450 939" width="450px" zoomAndPan="magnify"><title>Steps 0-4 of GUI</title><defs/><g><g class="title" data-source-line="1"><text fill="#000000" font-family="sans-serif" font-size="14" font-weight="bold" lengthAdjust="spacing" textLength="128.3174" x="159.7095" y="32.9951">Steps 0-4 of GUI</text></g><ellipse cx="267.062" cy="57.2969" fill="#222222" rx="10" ry="10" style="stroke:#222222;stroke-width:1;"/><rect fill="#F1F1F1" height="33.9688" rx="12.5" ry="12.5" style="stroke:#181818;stroke-width:0.5;" width="259.1152" x="137.5044" y="87.2969"/><text fill="#000000" font-family="sans-serif" font-size="12" lengthAdjust="spacing" textLength="239.1152" x="147.5044" y="108.4355">Display welcome and navigation screen</text><rect fill="#F1F1F1" height="33.9688" rx="12.5" ry="12.5" style="stroke:#181818;stroke-width:0.5;" width="127.25" x="203.437" y="141.2656"/><text fill="#000000" font-family="sans-serif" font-size="12" lengthAdjust="spacing" textLength="107.25" x="213.437" y="162.4043">User clicks "Next"</text><rect fill="#F1F1F1" height="33.9688" rx="12.5" ry="12.5" style="stroke:#181818;stroke-width:0.5;" width="105.1074" x="214.5083" y="195.2344"/><text fill="#000000" font-family="sans-serif" font-size="12" lengthAdjust="spacing" textLength="85.1074" x="224.5083" y="216.373">Camera starts</text><rect fill="#F1F1F1" height="33.9688" rx="12.5" ry="12.5" style="stroke:#181818;stroke-width:0.5;" width="215.6035" x="159.2603" y="249.2031"/><text fill="#000000" font-family="sans-serif" font-size="12" lengthAdjust="spacing" textLength="195.6035" x="169.2603" y="270.3418">Camera configuration &amp; controls</text><rect fill="#F1F1F1" height="33.9688" rx="12.5" ry="12.5" style="stroke:#181818;stroke-width:0.5;" width="221.4277" x="156.3481" y="303.1719"/><text fill="#000000" font-family="sans-serif" font-size="12" lengthAdjust="spacing" textLength="201.4277" x="166.3481" y="324.3105">User clicks "Capture Dark Frame"</text><rect fill="#F1F1F1" height="33.9688" rx="12.5" ry="12.5" style="stroke:#181818;stroke-width:0.5;" width="147.6465" x="193.2388" y="357.1406"/><text fill="#000000" font-family="sans-serif" font-size="12" lengthAdjust="spacing" textLength="127.6465" x="203.2388" y="378.2793">Captures RAW image</text><rect fill="#F1F1F1" height="33.9688" rx="12.5" ry="12.5" style="stroke:#181818;stroke-width:0.5;" width="159.2012" x="187.4614" y="411.1094"/><text fill="#000000" font-family="sans-serif" font-size="12" lengthAdjust="spacing" textLength="139.2012" x="197.4614" y="432.248">User clicks "Use Value"</text><rect fill="#F1F1F1" height="33.9688" rx="12.5" ry="12.5" style="stroke:#181818;stroke-width:0.5;" width="187.918" x="173.103" y="465.0781"/><text fill="#000000" font-family="sans-serif" font-size="12" lengthAdjust="spacing" textLength="167.918" x="183.103" y="486.2168">Store value entered by user</text><polygon fill="#F1F1F1" points="195.8198,519.0469,338.3042,519.0469,350.3042,531.0469,338.3042,543.0469,195.8198,543.0469,183.8198,531.0469,195.8198,519.0469" style="stroke:#181818;stroke-width:0.5;"/><text fill="#000000" font-family="sans-serif" font-size="11" lengthAdjust="spacing" textLength="142.4844" x="195.8198" y="534.855">Select measurement type</text><text fill="#000000" font-family="sans-serif" font-size="11" lengthAdjust="spacing" textLength="19.2178" x="164.6021" y="528.4526">Yes</text><text fill="#000000" font-family="sans-serif" font-size="11" lengthAdjust="spacing" textLength="14.9585" x="350.3042" y="528.4526">No</text><rect fill="#F1F1F1" height="33.9688" rx="12.5" ry="12.5" style="stroke:#181818;stroke-width:0.5;" width="287.7559" x="11" y="553.0469"/><text fill="#000000" font-family="sans-serif" font-size="12" lengthAdjust="spacing" textLength="267.7559" x="21" y="574.1855">Angle increments for light source &amp; detector</text><rect fill="#F1F1F1" height="33.9688" rx="12.5" ry="12.5" style="stroke:#181818;stroke-width:0.5;" width="283.7949" x="12.9805" y="607.0156"/><text fill="#000000" font-family="sans-serif" font-size="12" lengthAdjust="spacing" textLength="263.7949" x="22.9805" y="628.1543">Shows the number of steps in that direction</text><rect fill="#F1F1F1" height="33.9688" rx="12.5" ry="12.5" style="stroke:#181818;stroke-width:0.5;" width="120.9805" x="318.7559" y="553.0469"/><text fill="#000000" font-family="sans-serif" font-size="12" lengthAdjust="spacing" textLength="100.9805" x="328.7559" y="574.1855">Stop the process</text><polygon fill="#F1F1F1" points="267.062,646.9844,279.062,658.9844,267.062,670.9844,255.062,658.9844,267.062,646.9844" style="stroke:#181818;stroke-width:0.5;"/><rect fill="#F1F1F1" height="33.9688" rx="12.5" ry="12.5" style="stroke:#181818;stroke-width:0.5;" width="127.25" x="203.437" y="690.9844"/><text fill="#000000" font-family="sans-serif" font-size="12" lengthAdjust="spacing" textLength="107.25" x="213.437" y="712.123">User clicks "Next"</text><rect fill="#F1F1F1" height="33.9688" rx="12.5" ry="12.5" style="stroke:#181818;stroke-width:0.5;" width="130.8945" x="201.6147" y="744.9531"/><text fill="#000000" font-family="sans-serif" font-size="12" lengthAdjust="spacing" textLength="110.8945" x="211.6147" y="766.0918">Save step settings</text><rect fill="#F1F1F1" height="33.9688" rx="12.5" ry="12.5" style="stroke:#181818;stroke-width:0.5;" width="134.5918" x="199.7661" y="798.9219"/><text fill="#000000" font-family="sans-serif" font-size="12" lengthAdjust="spacing" textLength="114.5918" x="209.7661" y="820.0605">Generate angle list</text><rect fill="#F1F1F1" height="33.9688" rx="12.5" ry="12.5" style="stroke:#181818;stroke-width:0.5;" width="58.7715" x="237.6763" y="852.8906"/><text fill="#000000" font-family="sans-serif" font-size="12" lengthAdjust="spacing" textLength="38.7715" x="247.6763" y="874.0293">Step 5</text><ellipse cx="267.062" cy="917.8594" fill="none" rx="11" ry="11" style="stroke:#222222;stroke-width:1;"/><ellipse cx="267.062" cy="917.8594" fill="#222222" rx="6" ry="6" style="stroke:#222222;stroke-width:1;"/><line style="stroke:#181818;stroke-width:1;" x1="267.062" x2="267.062" y1="67.2969" y2="87.2969"/><polygon fill="#181818" points="263.062,77.2969,267.062,87.2969,271.062,77.2969,267.062,81.2969" style="stroke:#181818;stroke-width:1;"/><line style="stroke:#181818;stroke-width:1;" x1="267.062" x2="267.062" y1="121.2656" y2="141.2656"/><polygon fill="#181818" points="263.062,131.2656,267.062,141.2656,271.062,131.2656,267.062,135.2656" style="stroke:#181818;stroke-width:1;"/><line style="stroke:#181818;stroke-width:1;" x1="267.062" x2="267.062" y1="175.2344" y2="195.2344"/><polygon fill="#181818" points="263.062,185.2344,267.062,195.2344,271.062,185.2344,267.062,189.2344" style="stroke:#181818;stroke-width:1;"/><line style="stroke:#181818;stroke-width:1;" x1="267.062" x2="267.062" y1="229.2031" y2="249.2031"/><polygon fill="#181818" points="263.062,239.2031,267.062,249.2031,271.062,239.2031,267.062,243.2031" style="stroke:#181818;stroke-width:1;"/><line style="stroke:#181818;stroke-width:1;" x1="267.062" x2="267.062" y1="283.1719" y2="303.1719"/><polygon fill="#181818" points="263.062,293.1719,267.062,303.1719,271.062,293.1719,267.062,297.1719" style="stroke:#181818;stroke-width:1;"/><line style="stroke:#181818;stroke-width:1;" x1="267.062" x2="267.062" y1="337.1406" y2="357.1406"/><polygon fill="#181818" points="263.062,347.1406,267.062,357.1406,271.062,347.1406,267.062,351.1406" style="stroke:#181818;stroke-width:1;"/><line style="stroke:#181818;stroke-width:1;" x1="267.062" x2="267.062" y1="391.1094" y2="411.1094"/><polygon fill="#181818" points="263.062,401.1094,267.062,411.1094,271.062,401.1094,267.062,405.1094" style="stroke:#181818;stroke-width:1;"/><line style="stroke:#181818;stroke-width:1;" x1="267.062" x2="267.062" y1="445.0781" y2="465.0781"/><polygon fill="#181818" points="263.062,455.0781,267.062,465.0781,271.062,455.0781,267.062,459.0781" style="stroke:#181818;stroke-width:1;"/><line style="stroke:#181818;stroke-width:1;" x1="154.8779" x2="154.8779" y1="587.0156" y2="607.0156"/><polygon fill="#181818" points="150.8779,597.0156,154.8779,607.0156,158.8779,597.0156,154.8779,601.0156" style="stroke:#181818;stroke-width:1;"/><line style="stroke:#181818;stroke-width:1;" x1="183.8198" x2="154.8779" y1="531.0469" y2="531.0469"/><line style="stroke:#181818;stroke-width:1;" x1="154.8779" x2="154.8779" y1="531.0469" y2="553.0469"/><polygon fill="#181818" points="150.8779,543.0469,154.8779,553.0469,158.8779,543.0469,154.8779,547.0469" style="stroke:#181818;stroke-width:1;"/><line style="stroke:#181818;stroke-width:1;" x1="350.3042" x2="379.2461" y1="531.0469" y2="531.0469"/><line style="stroke:#181818;stroke-width:1;" x1="379.2461" x2="379.2461" y1="531.0469" y2="553.0469"/><polygon fill="#181818" points="375.2461,543.0469,379.2461,553.0469,383.2461,543.0469,379.2461,547.0469" style="stroke:#181818;stroke-width:1;"/><line style="stroke:#181818;stroke-width:1;" x1="154.8779" x2="154.8779" y1="640.9844" y2="658.9844"/><line style="stroke:#181818;stroke-width:1;" x1="154.8779" x2="255.062" y1="658.9844" y2="658.9844"/><polygon fill="#181818" points="245.062,654.9844,255.062,658.9844,245.062,662.9844,249.062,658.9844" style="stroke:#181818;stroke-width:1;"/><line style="stroke:#181818;stroke-width:1;" x1="379.2461" x2="379.2461" y1="587.0156" y2="658.9844"/><line style="stroke:#181818;stroke-width:1;" x1="379.2461" x2="279.062" y1="658.9844" y2="658.9844"/><polygon fill="#181818" points="289.062,654.9844,279.062,658.9844,289.062,662.9844,285.062,658.9844" style="stroke:#181818;stroke-width:1;"/><line style="stroke:#181818;stroke-width:1;" x1="267.062" x2="267.062" y1="499.0469" y2="519.0469"/><polygon fill="#181818" points="263.062,509.0469,267.062,519.0469,271.062,509.0469,267.062,513.0469" style="stroke:#181818;stroke-width:1;"/><line style="stroke:#181818;stroke-width:1;" x1="267.062" x2="267.062" y1="670.9844" y2="690.9844"/><polygon fill="#181818" points="263.062,680.9844,267.062,690.9844,271.062,680.9844,267.062,684.9844" style="stroke:#181818;stroke-width:1;"/><line style="stroke:#181818;stroke-width:1;" x1="267.062" x2="267.062" y1="724.9531" y2="744.9531"/><polygon fill="#181818" points="263.062,734.9531,267.062,744.9531,271.062,734.9531,267.062,738.9531" style="stroke:#181818;stroke-width:1;"/><line style="stroke:#181818;stroke-width:1;" x1="267.062" x2="267.062" y1="778.9219" y2="798.9219"/><polygon fill="#181818" points="263.062,788.9219,267.062,798.9219,271.062,788.9219,267.062,792.9219" style="stroke:#181818;stroke-width:1;"/><line style="stroke:#181818;stroke-width:1;" x1="267.062" x2="267.062" y1="832.8906" y2="852.8906"/><polygon fill="#181818" points="263.062,842.8906,267.062,852.8906,271.062,842.8906,267.062,846.8906" style="stroke:#181818;stroke-width:1;"/><line style="stroke:#181818;stroke-width:1;" x1="267.062" x2="267.062" y1="886.8594" y2="906.8594"/><polygon fill="#181818" points="263.062,896.8594,267.062,906.8594,271.062,896.8594,267.062,900.8594" style="stroke:#181818;stroke-width:1;"/><!--SRC=[TP8nJyD038Nt_8gd3gWTa1XWIQUgY8gb0r51ZDUBavvwkOlEJal_FRuh8854fhFbzzb-ZZZnX4PePDpTtYDssEoUguh59Acg-j7nwCq5P_8s3WGJMWHpShqH5mFO9gAmhEeTKuBrpXuPiorzo4oJQpDGCYWiNk8dOMFeN3-bA-CcnvAYBoM_G6ipofG8ZoOTyPHKFRjYIfhnidg36qnFVoVG0A_6JvJ7Q2GguvH3K11Ar69_mQG2fLK0N8TvGvwiO233oXwq478PQG4vKC3ydNYHI_MhLw5Nqromrpf65nEywmy2ZbEof3kr98gBkSENgZd4CsSQmZJiTLZrcelnBcZQ25gNLAEUB8k6l6untyRlliYRZ8KmfcY9kTHHQ5rN_NE2nfoeT06JY0jzCNb3GUyW-Pnv4-zOiXDr_W_me4_MHfy0]--></g></svg>