<svg xmlns="http://www.w3.org/2000/svg" xmlns:xlink="http://www.w3.org/1999/xlink" contentStyleType="text/css" data-diagram-type="ACTIVITY" height="740px" preserveAspectRatio="none" style="width:308px;height:740px;background:#FFFFFF;" version="1.1" viewBox="0 0 308 740" width="308px" zoomAndPan="magnify"><defs/><g><ellipse cx="118.9883" cy="20" fill="#222222" rx="10" ry="10" style="stroke:#222222;stroke-width:1;"/><rect fill="none" height="647.249" style="stroke:#000000;stroke-width:1.5;" width="286.501" x="11" y="40"/><path d="M202.166,40 L202.166,49.2969 L192.166,59.2969 L11,59.2969" fill="none" style="stroke:#000000;stroke-width:1.5;"/><text fill="#000000" font-family="sans-serif" font-size="14" lengthAdjust="spacing" textLength="181.166" x="14" y="53.9951">Perform sweeping routine</text><rect fill="none" height="605.9521" style="stroke:#000000;stroke-width:1.5;" width="266.501" x="21" y="69.2969"/><path d="M169.6807,69.2969 L169.6807,78.5938 L159.6807,88.5938 L21,88.5938" fill="none" style="stroke:#000000;stroke-width:1.5;"/><text fill="#000000" font-family="sans-serif" font-size="14" lengthAdjust="spacing" textLength="138.6807" x="24" y="83.292">Light Source Sweep</text><ellipse cx="118.9883" cy="203.5938" fill="#222222" rx="10" ry="10" style="stroke:#222222;stroke-width:1;"/><rect fill="none" height="277.9761" style="stroke:#000000;stroke-width:1.5;" width="209.0254" x="32.4756" y="223.5938"/><path d="M154.3799,223.5938 L154.3799,232.8906 L144.3799,242.8906 L32.4756,242.8906" fill="none" style="stroke:#000000;stroke-width:1.5;"/><text fill="#000000" font-family="sans-serif" font-size="14" lengthAdjust="spacing" textLength="111.9043" x="35.4756" y="237.5889">Detector Sweep</text><rect fill="#F1F1F1" height="33.9688" rx="12.5" ry="12.5" style="stroke:#181818;stroke-width:0.5;" width="153.0254" x="42.4756" y="347.8906"/><text fill="#000000" font-family="sans-serif" font-size="12" lengthAdjust="spacing" textLength="133.0254" x="52.4756" y="369.0293">Move Detector Motors</text><polygon fill="#F1F1F1" points="118.9883,303.8906,130.9883,315.8906,118.9883,327.8906,106.9883,315.8906,118.9883,303.8906" style="stroke:#181818;stroke-width:0.5;"/><polygon fill="#F1F1F1" points="74.2793,401.8594,163.6973,401.8594,175.6973,413.8594,163.6973,425.8594,74.2793,425.8594,62.2793,413.8594,74.2793,401.8594" style="stroke:#181818;stroke-width:0.5;"/><text fill="#000000" font-family="sans-serif" font-size="11" lengthAdjust="spacing" textLength="19.2178" x="122.9883" y="436.0698">Yes</text><text fill="#000000" font-family="sans-serif" font-size="11" lengthAdjust="spacing" textLength="89.418" x="74.2793" y="417.6675">Finished Radial?</text><text fill="#000000" font-family="sans-serif" font-size="11" lengthAdjust="spacing" textLength="14.9585" x="175.6973" y="411.2651">No</text><polygon fill="#F1F1F1" points="118.9883,259.8906,130.9883,271.8906,118.9883,283.8906,106.9883,271.8906,118.9883,259.8906" style="stroke:#181818;stroke-width:0.5;"/><polygon fill="#F1F1F1" points="63.8271,457.5698,174.1494,457.5698,186.1494,469.5698,174.1494,481.5698,63.8271,481.5698,51.8271,469.5698,63.8271,457.5698" style="stroke:#181818;stroke-width:0.5;"/><text fill="#000000" font-family="sans-serif" font-size="11" lengthAdjust="spacing" textLength="19.2178" x="122.9883" y="491.7803">Yes</text><text fill="#000000" font-family="sans-serif" font-size="11" lengthAdjust="spacing" textLength="110.3223" x="63.8271" y="473.3779">Finished Azimuthal?</text><text fill="#000000" font-family="sans-serif" font-size="11" lengthAdjust="spacing" textLength="14.9585" x="186.1494" y="466.9756">No</text><rect fill="#F1F1F1" height="33.9688" rx="12.5" ry="12.5" style="stroke:#181818;stroke-width:0.5;" width="175.9766" x="31" y="521.5698"/><text fill="#000000" font-family="sans-serif" font-size="12" lengthAdjust="spacing" textLength="155.9766" x="41" y="542.7085">Move Light Source Motors</text><polygon fill="#F1F1F1" points="118.9883,149.5938,130.9883,161.5938,118.9883,173.5938,106.9883,161.5938,118.9883,149.5938" style="stroke:#181818;stroke-width:0.5;"/><polygon fill="#F1F1F1" points="63.8271,575.5386,174.1494,575.5386,186.1494,587.5386,174.1494,599.5386,63.8271,599.5386,51.8271,587.5386,63.8271,575.5386" style="stroke:#181818;stroke-width:0.5;"/><text fill="#000000" font-family="sans-serif" font-size="11" lengthAdjust="spacing" textLength="19.2178" x="122.9883" y="609.749">Yes</text><text fill="#000000" font-family="sans-serif" font-size="11" lengthAdjust="spacing" textLength="110.3223" x="63.8271" y="591.3467">Finished Azimuthal?</text><text fill="#000000" font-family="sans-serif" font-size="11" lengthAdjust="spacing" textLength="14.9585" x="186.1494" y="584.9443">No</text><polygon fill="#F1F1F1" points="118.9883,105.5938,130.9883,117.5938,118.9883,129.5938,106.9883,117.5938,118.9883,105.5938" style="stroke:#181818;stroke-width:0.5;"/><polygon fill="#F1F1F1" points="74.2793,631.249,163.6973,631.249,175.6973,643.249,163.6973,655.249,74.2793,655.249,62.2793,643.249,74.2793,631.249" style="stroke:#181818;stroke-width:0.5;"/><text fill="#000000" font-family="sans-serif" font-size="11" lengthAdjust="spacing" textLength="19.2178" x="122.9883" y="665.4595">Yes</text><text fill="#000000" font-family="sans-serif" font-size="11" lengthAdjust="spacing" textLength="89.418" x="74.2793" y="647.0571">Finished Radial?</text><text fill="#000000" font-family="sans-serif" font-size="11" lengthAdjust="spacing" textLength="14.9585" x="175.6973" y="640.6548">No</text><ellipse cx="118.9883" cy="718.249" fill="none" rx="11" ry="11" style="stroke:#222222;stroke-width:1;"/><ellipse cx="118.9883" cy="718.249" fill="#222222" rx="6" ry="6" style="stroke:#222222;stroke-width:1;"/><line style="stroke:#181818;stroke-width:1;" x1="118.9883" x2="118.9883" y1="327.8906" y2="347.8906"/><polygon fill="#181818" points="114.9883,337.8906,118.9883,347.8906,122.9883,337.8906,118.9883,341.8906" style="stroke:#181818;stroke-width:1;"/><line style="stroke:#181818;stroke-width:1;" x1="175.6973" x2="207.501" y1="413.8594" y2="413.8594"/><polygon fill="#181818" points="203.501,374.875,207.501,364.875,211.501,374.875,207.501,370.875" style="stroke:#181818;stroke-width:1;"/><line style="stroke:#181818;stroke-width:1;" x1="207.501" x2="207.501" y1="315.8906" y2="413.8594"/><line style="stroke:#181818;stroke-width:1;" x1="207.501" x2="130.9883" y1="315.8906" y2="315.8906"/><polygon fill="#181818" points="140.9883,311.8906,130.9883,315.8906,140.9883,319.8906,136.9883,315.8906" style="stroke:#181818;stroke-width:1;"/><line style="stroke:#181818;stroke-width:1;" x1="118.9883" x2="118.9883" y1="381.8594" y2="401.8594"/><polygon fill="#181818" points="114.9883,391.8594,118.9883,401.8594,122.9883,391.8594,118.9883,395.8594" style="stroke:#181818;stroke-width:1;"/><line style="stroke:#181818;stroke-width:1;" x1="118.9883" x2="118.9883" y1="283.8906" y2="303.8906"/><polygon fill="#181818" points="114.9883,293.8906,118.9883,303.8906,122.9883,293.8906,118.9883,297.8906" style="stroke:#181818;stroke-width:1;"/><line style="stroke:#181818;stroke-width:1;" x1="186.1494" x2="225.501" y1="469.5698" y2="469.5698"/><polygon fill="#181818" points="221.501,374.875,225.501,364.875,229.501,374.875,225.501,370.875" style="stroke:#181818;stroke-width:1;"/><line style="stroke:#181818;stroke-width:1;" x1="225.501" x2="225.501" y1="271.8906" y2="469.5698"/><line style="stroke:#181818;stroke-width:1;" x1="225.501" x2="130.9883" y1="271.8906" y2="271.8906"/><polygon fill="#181818" points="140.9883,267.8906,130.9883,271.8906,140.9883,275.8906,136.9883,271.8906" style="stroke:#181818;stroke-width:1;"/><line style="stroke:#181818;stroke-width:1;" x1="118.9883" x2="118.9883" y1="425.8594" y2="457.5698"/><polygon fill="#181818" points="114.9883,447.5698,118.9883,457.5698,122.9883,447.5698,118.9883,451.5698" style="stroke:#181818;stroke-width:1;"/><line style="stroke:#181818;stroke-width:1;" x1="118.9883" x2="118.9883" y1="213.5938" y2="259.8906"/><polygon fill="#181818" points="114.9883,249.8906,118.9883,259.8906,122.9883,249.8906,118.9883,253.8906" style="stroke:#181818;stroke-width:1;"/><line style="stroke:#181818;stroke-width:1;" x1="118.9883" x2="118.9883" y1="481.5698" y2="521.5698"/><polygon fill="#181818" points="114.9883,511.5698,118.9883,521.5698,122.9883,511.5698,118.9883,515.5698" style="stroke:#181818;stroke-width:1;"/><line style="stroke:#181818;stroke-width:1;" x1="118.9883" x2="118.9883" y1="173.5938" y2="193.5938"/><polygon fill="#181818" points="114.9883,183.5938,118.9883,193.5938,122.9883,183.5938,118.9883,187.5938" style="stroke:#181818;stroke-width:1;"/><line style="stroke:#181818;stroke-width:1;" x1="186.1494" x2="253.501" y1="587.5386" y2="587.5386"/><polygon fill="#181818" points="249.501,373.7109,253.501,363.7109,257.501,373.7109,253.501,369.7109" style="stroke:#181818;stroke-width:1;"/><line style="stroke:#181818;stroke-width:1;" x1="253.501" x2="253.501" y1="161.5938" y2="587.5386"/><line style="stroke:#181818;stroke-width:1;" x1="253.501" x2="130.9883" y1="161.5938" y2="161.5938"/><polygon fill="#181818" points="140.9883,157.5938,130.9883,161.5938,140.9883,165.5938,136.9883,161.5938" style="stroke:#181818;stroke-width:1;"/><line style="stroke:#181818;stroke-width:1;" x1="118.9883" x2="118.9883" y1="555.5386" y2="575.5386"/><polygon fill="#181818" points="114.9883,565.5386,118.9883,575.5386,122.9883,565.5386,118.9883,569.5386" style="stroke:#181818;stroke-width:1;"/><line style="stroke:#181818;stroke-width:1;" x1="118.9883" x2="118.9883" y1="129.5938" y2="149.5938"/><polygon fill="#181818" points="114.9883,139.5938,118.9883,149.5938,122.9883,139.5938,118.9883,143.5938" style="stroke:#181818;stroke-width:1;"/><line style="stroke:#181818;stroke-width:1;" x1="175.6973" x2="271.501" y1="643.249" y2="643.249"/><polygon fill="#181818" points="267.501,373.7109,271.501,363.7109,275.501,373.7109,271.501,369.7109" style="stroke:#181818;stroke-width:1;"/><line style="stroke:#181818;stroke-width:1;" x1="271.501" x2="271.501" y1="117.5938" y2="643.249"/><line style="stroke:#181818;stroke-width:1;" x1="271.501" x2="130.9883" y1="117.5938" y2="117.5938"/><polygon fill="#181818" points="140.9883,113.5938,130.9883,117.5938,140.9883,121.5938,136.9883,117.5938" style="stroke:#181818;stroke-width:1;"/><line style="stroke:#181818;stroke-width:1;" x1="118.9883" x2="118.9883" y1="599.5386" y2="631.249"/><polygon fill="#181818" points="114.9883,621.249,118.9883,631.249,122.9883,621.249,118.9883,625.249" style="stroke:#181818;stroke-width:1;"/><line style="stroke:#181818;stroke-width:1;" x1="118.9883" x2="118.9883" y1="30" y2="105.5938"/><polygon fill="#181818" points="114.9883,95.5938,118.9883,105.5938,122.9883,95.5938,118.9883,99.5938" style="stroke:#181818;stroke-width:1;"/><line style="stroke:#181818;stroke-width:1;" x1="118.9883" x2="118.9883" y1="655.249" y2="707.249"/><polygon fill="#181818" points="114.9883,697.249,118.9883,707.249,122.9883,697.249,118.9883,701.249" style="stroke:#181818;stroke-width:1;"/><!--SRC=[dL312e904BtlLmoUz1Vg445qoeWyTLnqSWTqHtR7XC9_puHABGgSmsC6tdlpPhne9whgW8JOGd10TsPNWcyGAx8vEAw5B0PmKz3LWBgZt0WaNBiK8NdmdwGU75QePVdH-txbn6k3Wgcm6_jCfT_cHSmNX9S-vWxzb0wDeG8Xt98bRp23eyv85wi8o4EuvmWi2uGdzD4_vVfAPItcXxXLxroZ7msppNQVTr2hMkM5gpi0]--></g></svg>