<svg xmlns="http://www.w3.org/2000/svg" xmlns:xlink="http://www.w3.org/1999/xlink" contentStyleType="text/css" data-diagram-type="ACTIVITY" height="1793px" preserveAspectRatio="none" style="width:404px;height:1793px;background:#FFFFFF;" version="1.1" viewBox="0 0 404 1793" width="404px" zoomAndPan="magnify"><title>OSMD GUI</title><defs/><g><g class="title" data-source-line="1"><text fill="#000000" font-family="sans-serif" font-size="14" font-weight="bold" lengthAdjust="spacing" textLength="80.4795" x="160.3062" y="32.9951">OSMD GUI</text></g><ellipse cx="202.0459" cy="57.2969" fill="#222222" rx="10" ry="10" style="stroke:#222222;stroke-width:1;"/><rect fill="#F1F1F1" height="33.9688" rx="12.5" ry="12.5" style="stroke:#181818;stroke-width:0.5;" width="131.668" x="136.2119" y="87.2969"/><text fill="#000000" font-family="sans-serif" font-size="12" lengthAdjust="spacing" textLength="111.668" x="146.2119" y="108.4355">step0_welcome.py</text><rect fill="#F1F1F1" height="33.9688" rx="12.5" ry="12.5" style="stroke:#181818;stroke-width:0.5;" width="125.457" x="139.3174" y="141.2656"/><text fill="#000000" font-family="sans-serif" font-size="12" lengthAdjust="spacing" textLength="105.457" x="149.3174" y="162.4043">-&gt; "Next Button";</text><rect fill="#F1F1F1" height="33.9688" rx="12.5" ry="12.5" style="stroke:#181818;stroke-width:0.5;" width="123.4355" x="140.3281" y="195.2344"/><text fill="#000000" font-family="sans-serif" font-size="12" lengthAdjust="spacing" textLength="103.4355" x="150.3281" y="216.373">step1_camera.py</text><rect fill="#F1F1F1" height="33.9688" rx="12.5" ry="12.5" style="stroke:#181818;stroke-width:0.5;" width="177.5117" x="113.29" y="249.2031"/><text fill="#000000" font-family="sans-serif" font-size="12" lengthAdjust="spacing" textLength="157.5117" x="123.29" y="270.3418">-&gt; "Start Camera Button";</text><rect fill="#F1F1F1" height="33.9688" rx="12.5" ry="12.5" style="stroke:#181818;stroke-width:0.5;" width="280.1094" x="61.9912" y="303.1719"/><text fill="#000000" font-family="sans-serif" font-size="12" lengthAdjust="spacing" textLength="260.1094" x="71.9912" y="324.3105">start_camera() / camera.initialize_camera()</text><rect fill="#F1F1F1" height="33.9688" rx="12.5" ry="12.5" style="stroke:#181818;stroke-width:0.5;" width="146.5625" x="128.7646" y="357.1406"/><text fill="#000000" font-family="sans-serif" font-size="12" lengthAdjust="spacing" textLength="126.5625" x="138.7646" y="378.2793">step2_dark_frame.py</text><rect fill="#F1F1F1" height="33.9688" rx="12.5" ry="12.5" style="stroke:#181818;stroke-width:0.5;" width="219.6348" x="92.2285" y="411.1094"/><text fill="#000000" font-family="sans-serif" font-size="12" lengthAdjust="spacing" textLength="199.6348" x="102.2285" y="432.248">-&gt; "Capture Dark Frame Button";</text><rect fill="#F1F1F1" height="33.9688" rx="12.5" ry="12.5" style="stroke:#181818;stroke-width:0.5;" width="382.0918" x="11" y="465.0781"/><text fill="#000000" font-family="sans-serif" font-size="12" lengthAdjust="spacing" textLength="362.0918" x="21" y="486.2168">capture_dark_frame() / capture_image.capture_raw_image()</text><rect fill="#F1F1F1" height="33.9688" rx="12.5" ry="12.5" style="stroke:#181818;stroke-width:0.5;" width="157.4082" x="123.3418" y="519.0469"/><text fill="#000000" font-family="sans-serif" font-size="12" lengthAdjust="spacing" textLength="137.4082" x="133.3418" y="540.1855">-&gt; "Use Value Button";</text><rect fill="#F1F1F1" height="33.9688" rx="12.5" ry="12.5" style="stroke:#181818;stroke-width:0.5;" width="173.5977" x="115.2471" y="573.0156"/><text fill="#000000" font-family="sans-serif" font-size="12" lengthAdjust="spacing" textLength="153.5977" x="125.2471" y="594.1543">set_nominal_dark_value()</text><rect fill="#F1F1F1" height="33.9688" rx="12.5" ry="12.5" style="stroke:#181818;stroke-width:0.5;" width="194.9141" x="104.5889" y="626.9844"/><text fill="#000000" font-family="sans-serif" font-size="12" lengthAdjust="spacing" textLength="174.9141" x="114.5889" y="648.123">step3_measurement_type.py</text><rect fill="#F1F1F1" height="33.9688" rx="12.5" ry="12.5" style="stroke:#181818;stroke-width:0.5;" width="125.457" x="139.3174" y="680.9531"/><text fill="#000000" font-family="sans-serif" font-size="12" lengthAdjust="spacing" textLength="105.457" x="149.3174" y="702.0918">-&gt; "Next Button";</text><rect fill="#F1F1F1" height="33.9688" rx="12.5" ry="12.5" style="stroke:#181818;stroke-width:0.5;" width="149.627" x="127.2324" y="734.9219"/><text fill="#000000" font-family="sans-serif" font-size="12" lengthAdjust="spacing" textLength="129.627" x="137.2324" y="756.0605">step4_angle_steps.py</text><rect fill="#F1F1F1" height="33.9688" rx="12.5" ry="12.5" style="stroke:#181818;stroke-width:0.5;" width="138.623" x="132.7344" y="788.8906"/><text fill="#000000" font-family="sans-serif" font-size="12" lengthAdjust="spacing" textLength="118.623" x="142.7344" y="810.0293">update_step_label()</text><rect fill="#F1F1F1" height="33.9688" rx="12.5" ry="12.5" style="stroke:#181818;stroke-width:0.5;" width="125.457" x="139.3174" y="842.8594"/><text fill="#000000" font-family="sans-serif" font-size="12" lengthAdjust="spacing" textLength="105.457" x="149.3174" y="863.998">-&gt; "Next Button";</text><rect fill="#F1F1F1" height="33.9688" rx="12.5" ry="12.5" style="stroke:#181818;stroke-width:0.5;" width="287.832" x="58.1299" y="896.8281"/><text fill="#000000" font-family="sans-serif" font-size="12" lengthAdjust="spacing" textLength="267.832" x="68.1299" y="917.9668">save_step_settings() / generate_angle_lists()</text><rect fill="#F1F1F1" height="33.9688" rx="12.5" ry="12.5" style="stroke:#181818;stroke-width:0.5;" width="196.0566" x="104.0176" y="950.7969"/><text fill="#000000" font-family="sans-serif" font-size="12" lengthAdjust="spacing" textLength="176.0566" x="114.0176" y="971.9355">step5_start_measurement.py</text><rect fill="#F1F1F1" height="33.9688" rx="12.5" ry="12.5" style="stroke:#181818;stroke-width:0.5;" width="126.6055" x="138.7432" y="1004.7656"/><text fill="#000000" font-family="sans-serif" font-size="12" lengthAdjust="spacing" textLength="106.6055" x="148.7432" y="1025.9043">-&gt; "Start Button";</text><rect fill="#F1F1F1" height="33.9688" rx="12.5" ry="12.5" style="stroke:#181818;stroke-width:0.5;" width="147.2949" x="128.3984" y="1058.7344"/><text fill="#000000" font-family="sans-serif" font-size="12" lengthAdjust="spacing" textLength="127.2949" x="138.3984" y="1079.873">start_measurement()</text><rect fill="#F1F1F1" height="33.9688" rx="12.5" ry="12.5" style="stroke:#181818;stroke-width:0.5;" width="257.375" x="73.3584" y="1112.7031"/><text fill="#000000" font-family="sans-serif" font-size="12" lengthAdjust="spacing" textLength="237.375" x="83.3584" y="1133.8418">capture_image.run_full_measurement()</text><rect fill="#F1F1F1" height="33.9688" rx="12.5" ry="12.5" style="stroke:#181818;stroke-width:0.5;" width="147.0371" x="128.5273" y="1166.6719"/><text fill="#000000" font-family="sans-serif" font-size="12" lengthAdjust="spacing" textLength="127.0371" x="138.5273" y="1187.8105">capture_raw_image()</text><rect fill="#F1F1F1" height="33.9688" rx="12.5" ry="12.5" style="stroke:#181818;stroke-width:0.5;" width="260.9961" x="71.5479" y="1220.6406"/><text fill="#000000" font-family="sans-serif" font-size="12" lengthAdjust="spacing" textLength="240.9961" x="81.5479" y="1241.7793">process_image.extract_color_channels()</text><rect fill="#F1F1F1" height="33.9688" rx="12.5" ry="12.5" style="stroke:#181818;stroke-width:0.5;" width="197.5566" x="103.2676" y="1274.6094"/><text fill="#000000" font-family="sans-serif" font-size="12" lengthAdjust="spacing" textLength="177.5566" x="113.2676" y="1295.748">check_and_adjust_exposure()</text><rect fill="#F1F1F1" height="33.9688" rx="12.5" ry="12.5" style="stroke:#181818;stroke-width:0.5;" width="238.1855" x="82.9531" y="1328.5781"/><text fill="#000000" font-family="sans-serif" font-size="12" lengthAdjust="spacing" textLength="218.1855" x="92.9531" y="1349.7168">process_image.detect_static_noise()</text><rect fill="#F1F1F1" height="33.9688" rx="12.5" ry="12.5" style="stroke:#181818;stroke-width:0.5;" width="231.4473" x="86.3223" y="1382.5469"/><text fill="#000000" font-family="sans-serif" font-size="12" lengthAdjust="spacing" textLength="211.4473" x="96.3223" y="1403.6855">process_image_circular_roi_mean()</text><rect fill="#F1F1F1" height="33.9688" rx="12.5" ry="12.5" style="stroke:#181818;stroke-width:0.5;" width="124.5723" x="139.7598" y="1436.5156"/><text fill="#000000" font-family="sans-serif" font-size="12" lengthAdjust="spacing" textLength="104.5723" x="149.7598" y="1457.6543">-&gt; "Stop Button";</text><rect fill="#F1F1F1" height="33.9688" rx="12.5" ry="12.5" style="stroke:#181818;stroke-width:0.5;" width="145.2617" x="129.415" y="1490.4844"/><text fill="#000000" font-family="sans-serif" font-size="12" lengthAdjust="spacing" textLength="125.2617" x="139.415" y="1511.623">stop_measurement()</text><rect fill="#F1F1F1" height="33.9688" rx="12.5" ry="12.5" style="stroke:#181818;stroke-width:0.5;" width="162.5527" x="120.7695" y="1544.4531"/><text fill="#000000" font-family="sans-serif" font-size="12" lengthAdjust="spacing" textLength="142.5527" x="130.7695" y="1565.5918">-&gt; "Save BSDF Button";</text><rect fill="#F1F1F1" height="33.9688" rx="12.5" ry="12.5" style="stroke:#181818;stroke-width:0.5;" width="89.1641" x="157.4639" y="1598.4219"/><text fill="#000000" font-family="sans-serif" font-size="12" lengthAdjust="spacing" textLength="69.1641" x="167.4639" y="1619.5605">save_bsdf()</text><rect fill="#F1F1F1" height="33.9688" rx="12.5" ry="12.5" style="stroke:#181818;stroke-width:0.5;" width="261.9629" x="71.0645" y="1652.3906"/><text fill="#000000" font-family="sans-serif" font-size="12" lengthAdjust="spacing" textLength="241.9629" x="81.0645" y="1673.5293">output_data.generate_zemax_bsdf_file()</text><rect fill="#F1F1F1" height="33.9688" rx="12.5" ry="12.5" style="stroke:#181818;stroke-width:0.5;" width="227.1816" x="88.4551" y="1706.3594"/><text fill="#000000" font-family="sans-serif" font-size="12" lengthAdjust="spacing" textLength="207.1816" x="98.4551" y="1727.498">output_data.save_relative_errors()</text><ellipse cx="202.0459" cy="1771.3281" fill="none" rx="11" ry="11" style="stroke:#222222;stroke-width:1;"/><ellipse cx="202.0459" cy="1771.3281" fill="#222222" rx="6" ry="6" style="stroke:#222222;stroke-width:1;"/><line style="stroke:#181818;stroke-width:1;" x1="202.0459" x2="202.0459" y1="67.2969" y2="87.2969"/><polygon fill="#181818" points="198.0459,77.2969,202.0459,87.2969,206.0459,77.2969,202.0459,81.2969" style="stroke:#181818;stroke-width:1;"/><line style="stroke:#181818;stroke-width:1;" x1="202.0459" x2="202.0459" y1="121.2656" y2="141.2656"/><polygon fill="#181818" points="198.0459,131.2656,202.0459,141.2656,206.0459,131.2656,202.0459,135.2656" style="stroke:#181818;stroke-width:1;"/><line style="stroke:#181818;stroke-width:1;" x1="202.0459" x2="202.0459" y1="175.2344" y2="195.2344"/><polygon fill="#181818" points="198.0459,185.2344,202.0459,195.2344,206.0459,185.2344,202.0459,189.2344" style="stroke:#181818;stroke-width:1;"/><line style="stroke:#181818;stroke-width:1;" x1="202.0459" x2="202.0459" y1="229.2031" y2="249.2031"/><polygon fill="#181818" points="198.0459,239.2031,202.0459,249.2031,206.0459,239.2031,202.0459,243.2031" style="stroke:#181818;stroke-width:1;"/><line style="stroke:#181818;stroke-width:1;" x1="202.0459" x2="202.0459" y1="283.1719" y2="303.1719"/><polygon fill="#181818" points="198.0459,293.1719,202.0459,303.1719,206.0459,293.1719,202.0459,297.1719" style="stroke:#181818;stroke-width:1;"/><line style="stroke:#181818;stroke-width:1;" x1="202.0459" x2="202.0459" y1="337.1406" y2="357.1406"/><polygon fill="#181818" points="198.0459,347.1406,202.0459,357.1406,206.0459,347.1406,202.0459,351.1406" style="stroke:#181818;stroke-width:1;"/><line style="stroke:#181818;stroke-width:1;" x1="202.0459" x2="202.0459" y1="391.1094" y2="411.1094"/><polygon fill="#181818" points="198.0459,401.1094,202.0459,411.1094,206.0459,401.1094,202.0459,405.1094" style="stroke:#181818;stroke-width:1;"/><line style="stroke:#181818;stroke-width:1;" x1="202.0459" x2="202.0459" y1="445.0781" y2="465.0781"/><polygon fill="#181818" points="198.0459,455.0781,202.0459,465.0781,206.0459,455.0781,202.0459,459.0781" style="stroke:#181818;stroke-width:1;"/><line style="stroke:#181818;stroke-width:1;" x1="202.0459" x2="202.0459" y1="499.0469" y2="519.0469"/><polygon fill="#181818" points="198.0459,509.0469,202.0459,519.0469,206.0459,509.0469,202.0459,513.0469" style="stroke:#181818;stroke-width:1;"/><line style="stroke:#181818;stroke-width:1;" x1="202.0459" x2="202.0459" y1="553.0156" y2="573.0156"/><polygon fill="#181818" points="198.0459,563.0156,202.0459,573.0156,206.0459,563.0156,202.0459,567.0156" style="stroke:#181818;stroke-width:1;"/><line style="stroke:#181818;stroke-width:1;" x1="202.0459" x2="202.0459" y1="606.9844" y2="626.9844"/><polygon fill="#181818" points="198.0459,616.9844,202.0459,626.9844,206.0459,616.9844,202.0459,620.9844" style="stroke:#181818;stroke-width:1;"/><line style="stroke:#181818;stroke-width:1;" x1="202.0459" x2="202.0459" y1="660.9531" y2="680.9531"/><polygon fill="#181818" points="198.0459,670.9531,202.0459,680.9531,206.0459,670.9531,202.0459,674.9531" style="stroke:#181818;stroke-width:1;"/><line style="stroke:#181818;stroke-width:1;" x1="202.0459" x2="202.0459" y1="714.9219" y2="734.9219"/><polygon fill="#181818" points="198.0459,724.9219,202.0459,734.9219,206.0459,724.9219,202.0459,728.9219" style="stroke:#181818;stroke-width:1;"/><line style="stroke:#181818;stroke-width:1;" x1="202.0459" x2="202.0459" y1="768.8906" y2="788.8906"/><polygon fill="#181818" points="198.0459,778.8906,202.0459,788.8906,206.0459,778.8906,202.0459,782.8906" style="stroke:#181818;stroke-width:1;"/><line style="stroke:#181818;stroke-width:1;" x1="202.0459" x2="202.0459" y1="822.8594" y2="842.8594"/><polygon fill="#181818" points="198.0459,832.8594,202.0459,842.8594,206.0459,832.8594,202.0459,836.8594" style="stroke:#181818;stroke-width:1;"/><line style="stroke:#181818;stroke-width:1;" x1="202.0459" x2="202.0459" y1="876.8281" y2="896.8281"/><polygon fill="#181818" points="198.0459,886.8281,202.0459,896.8281,206.0459,886.8281,202.0459,890.8281" style="stroke:#181818;stroke-width:1;"/><line style="stroke:#181818;stroke-width:1;" x1="202.0459" x2="202.0459" y1="930.7969" y2="950.7969"/><polygon fill="#181818" points="198.0459,940.7969,202.0459,950.7969,206.0459,940.7969,202.0459,944.7969" style="stroke:#181818;stroke-width:1;"/><line style="stroke:#181818;stroke-width:1;" x1="202.0459" x2="202.0459" y1="984.7656" y2="1004.7656"/><polygon fill="#181818" points="198.0459,994.7656,202.0459,1004.7656,206.0459,994.7656,202.0459,998.7656" style="stroke:#181818;stroke-width:1;"/><line style="stroke:#181818;stroke-width:1;" x1="202.0459" x2="202.0459" y1="1038.7344" y2="1058.7344"/><polygon fill="#181818" points="198.0459,1048.7344,202.0459,1058.7344,206.0459,1048.7344,202.0459,1052.7344" style="stroke:#181818;stroke-width:1;"/><line style="stroke:#181818;stroke-width:1;" x1="202.0459" x2="202.0459" y1="1092.7031" y2="1112.7031"/><polygon fill="#181818" points="198.0459,1102.7031,202.0459,1112.7031,206.0459,1102.7031,202.0459,1106.7031" style="stroke:#181818;stroke-width:1;"/><line style="stroke:#181818;stroke-width:1;" x1="202.0459" x2="202.0459" y1="1146.6719" y2="1166.6719"/><polygon fill="#181818" points="198.0459,1156.6719,202.0459,1166.6719,206.0459,1156.6719,202.0459,1160.6719" style="stroke:#181818;stroke-width:1;"/><line style="stroke:#181818;stroke-width:1;" x1="202.0459" x2="202.0459" y1="1200.6406" y2="1220.6406"/><polygon fill="#181818" points="198.0459,1210.6406,202.0459,1220.6406,206.0459,1210.6406,202.0459,1214.6406" style="stroke:#181818;stroke-width:1;"/><line style="stroke:#181818;stroke-width:1;" x1="202.0459" x2="202.0459" y1="1254.6094" y2="1274.6094"/><polygon fill="#181818" points="198.0459,1264.6094,202.0459,1274.6094,206.0459,1264.6094,202.0459,1268.6094" style="stroke:#181818;stroke-width:1;"/><line style="stroke:#181818;stroke-width:1;" x1="202.0459" x2="202.0459" y1="1308.5781" y2="1328.5781"/><polygon fill="#181818" points="198.0459,1318.5781,202.0459,1328.5781,206.0459,1318.5781,202.0459,1322.5781" style="stroke:#181818;stroke-width:1;"/><line style="stroke:#181818;stroke-width:1;" x1="202.0459" x2="202.0459" y1="1362.5469" y2="1382.5469"/><polygon fill="#181818" points="198.0459,1372.5469,202.0459,1382.5469,206.0459,1372.5469,202.0459,1376.5469" style="stroke:#181818;stroke-width:1;"/><line style="stroke:#181818;stroke-width:1;" x1="202.0459" x2="202.0459" y1="1416.5156" y2="1436.5156"/><polygon fill="#181818" points="198.0459,1426.5156,202.0459,1436.5156,206.0459,1426.5156,202.0459,1430.5156" style="stroke:#181818;stroke-width:1;"/><line style="stroke:#181818;stroke-width:1;" x1="202.0459" x2="202.0459" y1="1470.4844" y2="1490.4844"/><polygon fill="#181818" points="198.0459,1480.4844,202.0459,1490.4844,206.0459,1480.4844,202.0459,1484.4844" style="stroke:#181818;stroke-width:1;"/><line style="stroke:#181818;stroke-width:1;" x1="202.0459" x2="202.0459" y1="1524.4531" y2="1544.4531"/><polygon fill="#181818" points="198.0459,1534.4531,202.0459,1544.4531,206.0459,1534.4531,202.0459,1538.4531" style="stroke:#181818;stroke-width:1;"/><line style="stroke:#181818;stroke-width:1;" x1="202.0459" x2="202.0459" y1="1578.4219" y2="1598.4219"/><polygon fill="#181818" points="198.0459,1588.4219,202.0459,1598.4219,206.0459,1588.4219,202.0459,1592.4219" style="stroke:#181818;stroke-width:1;"/><line style="stroke:#181818;stroke-width:1;" x1="202.0459" x2="202.0459" y1="1632.3906" y2="1652.3906"/><polygon fill="#181818" points="198.0459,1642.3906,202.0459,1652.3906,206.0459,1642.3906,202.0459,1646.3906" style="stroke:#181818;stroke-width:1;"/><line style="stroke:#181818;stroke-width:1;" x1="202.0459" x2="202.0459" y1="1686.3594" y2="1706.3594"/><polygon fill="#181818" points="198.0459,1696.3594,202.0459,1706.3594,206.0459,1696.3594,202.0459,1700.3594" style="stroke:#181818;stroke-width:1;"/><line style="stroke:#181818;stroke-width:1;" x1="202.0459" x2="202.0459" y1="1740.3281" y2="1760.3281"/><polygon fill="#181818" points="198.0459,1750.3281,202.0459,1760.3281,206.0459,1750.3281,202.0459,1754.3281" style="stroke:#181818;stroke-width:1;"/><!--SRC=[VLAxRXin4Epr5OIhfB3oiDD8G0fBK90YTY4uxMBDMqcCU2InN4golpxayMAT7aX7xWvdPdSeHYoff-MlkVhn_7CK1Lb6eqaK2fzXJrRxbiRXTJgwlVskRXxf8EeXYNXtCwseBw2n9SOEL57BGg9cNVa4dSiz-iD7zKdr3uqpOj2QDtflJdiBNw51tiAAiNTH1MOO936fUMwgHMaEP7Hj3bxsOhLiMbpJ-D-DSLyhdMP7_Xn9_KQRXfoH19nlZKDRUNS5SFHv1orXp8GjEG5v3V_VsJsWMrk2SevrhaaA3KejWSKNieNzAW7kUbXs9SQjOpVVcbnUNMQerDP4YKU3tw1kVs3p8h3pf0ROGZGvtI0d1wjaxJdiY3lPxIImrnHZ_pgFnAZpR_3MC-WDEaSsLfaDwMsUeW5i_gGeG8VWYy8LceQ4CalsAqRdX4oyWW9jM2UB3EnDiUkEOI_5XvF1VRWOg0BprjN3ShuuJ-8bDgjEqoS9IVBt41o_X_56BHuw3AoCfGjWHy5ai_zy86RFDRNYv2y0]--></g></svg>