<svg xmlns="http://www.w3.org/2000/svg" xmlns:xlink="http://www.w3.org/1999/xlink" contentStyleType="text/css" data-diagram-type="STATE" height="1297px" preserveAspectRatio="none" style="width:798px;height:1297px;background:#FFFFFF;" version="1.1" viewBox="0 0 798 1297" width="798px" zoomAndPan="magnify"><defs/><g><g class="entity" data-entity="N1" data-source-line="12" data-uid="ent0002" id="entity_N1"><path d="M87,6 L87,91.6641 L350.5884,91.6641 L350.5884,16 L340.5884,6 L87,6" fill="#FFFFFF" style="stroke:#181818;stroke-width:0.5;"/><path d="M340.5884,6 L340.5884,16 L350.5884,16 L340.5884,6" fill="#FFFFFF" style="stroke:#181818;stroke-width:1;"/><text fill="#000000" font-family="sans-serif" font-size="13" font-weight="bold" lengthAdjust="spacing" textLength="8.8677" x="93" y="23.0669">T</text><text fill="#000000" font-family="sans-serif" font-size="13" lengthAdjust="spacing" textLength="176.2427" x="101.8677" y="23.0669">: maximum waiting time to</text><text fill="#000000" font-family="sans-serif" font-size="13" lengthAdjust="spacing" textLength="170.3774" x="93" y="38.1997">exit the 'Hypothesis' state</text><text fill="#000000" font-family="sans-serif" font-size="13" lengthAdjust="spacing" textLength="4.1323" x="93" y="53.3325">&#160;</text><text fill="#000000" font-family="sans-serif" font-size="13" font-weight="bold" lengthAdjust="spacing" textLength="10.8799" x="93" y="68.4653">N</text><text fill="#000000" font-family="sans-serif" font-size="13" lengthAdjust="spacing" textLength="227.5762" x="103.8799" y="68.4653">: maximum number of consecutive</text><text fill="#000000" font-family="sans-serif" font-size="13" lengthAdjust="spacing" textLength="129.854" x="93" y="83.5981">restarts of a service</text></g><path d="M19.5,152 L772.2347,152 A12.5,12.5 0 0 1 784.7347,164.5 L784.7347,178.2969 L7,178.2969 L7,164.5 A12.5,12.5 0 0 1 19.5,152" fill="#D3D3D3"/><rect fill="none" height="1057.2969" rx="12.5" ry="12.5" style="stroke:#000000;stroke-width:0.5;" width="777.7347" x="7" y="152"/><line style="stroke:#000000;stroke-width:0.5;" x1="7" x2="784.7347" y1="178.2969" y2="178.2969"/><text fill="#000000" font-family="sans-serif" font-size="14" lengthAdjust="spacing" textLength="70.7178" x="360.5085" y="169.9951">Monitored</text><g id="S3C.Inactive"><rect fill="#D3D3D3" height="50" rx="12.5" ry="12.5" style="stroke:#000000;stroke-width:0.5;" width="75.5557" x="359.5" y="1044.2969"/><line style="stroke:#000000;stroke-width:0.5;" x1="359.5" x2="435.0557" y1="1070.5938" y2="1070.5938"/><text fill="#000000" font-family="sans-serif" font-size="14" lengthAdjust="spacing" textLength="55.5557" x="369.5" y="1062.292">Inactive</text></g><path d="M31.5,246.2969 L763.2347,246.2969 A12.5,12.5 0 0 1 775.7347,258.7969 L775.7347,272.5938 L19,272.5938 L19,258.7969 A12.5,12.5 0 0 1 31.5,246.2969" fill="#D3D3D3"/><rect fill="none" height="715.2969" rx="12.5" ry="12.5" style="stroke:#000000;stroke-width:0.5;" width="756.7347" x="19" y="246.2969"/><line style="stroke:#000000;stroke-width:0.5;" x1="19" x2="775.7347" y1="272.5938" y2="272.5938"/><text fill="#000000" font-family="sans-serif" font-size="14" lengthAdjust="spacing" textLength="43.5518" x="375.5915" y="264.292">Active</text><g id="S3C.Active.Undefined"><rect fill="#D3D3D3" height="50" rx="12.5" ry="12.5" style="stroke:#000000;stroke-width:0.5;" width="91.8115" x="309.12" y="340.5938"/><line style="stroke:#000000;stroke-width:0.5;" x1="309.12" x2="400.9315" y1="366.8906" y2="366.8906"/><text fill="#000000" font-family="sans-serif" font-size="14" lengthAdjust="spacing" textLength="71.8115" x="319.12" y="358.5889">Undefined</text></g><g id="S3C.Active.Normal"><rect fill="#D3D3D3" height="50" rx="12.5" ry="12.5" style="stroke:#000000;stroke-width:0.5;" width="70.9004" x="319.62" y="621.5938"/><line style="stroke:#000000;stroke-width:0.5;" x1="319.62" x2="390.5204" y1="647.8906" y2="647.8906"/><text fill="#000000" font-family="sans-serif" font-size="14" lengthAdjust="spacing" textLength="50.9004" x="329.62" y="639.5889">Normal</text></g><g id="S3C.Active.Standby"><rect fill="#D3D3D3" height="50" rx="12.5" ry="12.5" style="stroke:#000000;stroke-width:0.5;" width="77.8867" x="446.12" y="473.5938"/><line style="stroke:#000000;stroke-width:0.5;" x1="446.12" x2="524.0067" y1="499.8906" y2="499.8906"/><text fill="#000000" font-family="sans-serif" font-size="14" lengthAdjust="spacing" textLength="57.8867" x="456.12" y="491.5889">Standby</text></g><g id="S3C.Active.Error"><rect fill="#D3D3D3" height="50" rx="12.5" ry="12.5" style="stroke:#000000;stroke-width:0.5;" width="54.6787" x="156.62" y="775.5938"/><line style="stroke:#000000;stroke-width:0.5;" x1="156.62" x2="211.2987" y1="801.8906" y2="801.8906"/><text fill="#000000" font-family="sans-serif" font-size="14" lengthAdjust="spacing" textLength="34.6787" x="166.62" y="793.5889">Error</text></g><g id="S3C.Active.Hypothesis"><rect fill="#D3D3D3" height="50" rx="12.5" ry="12.5" style="stroke:#000000;stroke-width:0.5;" width="97.7178" x="354.12" y="775.5938"/><line style="stroke:#000000;stroke-width:0.5;" x1="354.12" x2="451.8378" y1="801.8906" y2="801.8906"/><text fill="#000000" font-family="sans-serif" font-size="14" lengthAdjust="spacing" textLength="77.7178" x="364.12" y="793.5889">Hypothesis</text></g><ellipse cx="355.12" cy="293.5938" fill="#222222" rx="10" ry="10" style="stroke:#222222;stroke-width:1;"/><ellipse cx="456.12" cy="940.5938" fill="none" rx="11" ry="11" style="stroke:#222222;stroke-width:1;"/><ellipse cx="456.12" cy="940.5938" fill="#222222" rx="6" ry="6" style="stroke:#222222;stroke-width:1;"/><!--link *start*Active to Undefined--><g class="link" data-entity-1=".start.Active" data-entity-2="Undefined" data-source-line="32" data-uid="lnk7" id="link_.start.Active_Undefined"><path d="M355.12,303.7438 C355.12,313.0137 355.12,321.7338 355.12,334.3738" fill="none" id="*start*Active-to-Undefined" style="stroke:#000000;stroke-width:1;"/><polygon fill="#000000" points="355.12,340.3738,359.12,331.3738,355.12,335.3738,351.12,331.3738,355.12,340.3738" style="stroke:#000000;stroke-width:1;"/></g><!--link Undefined to Normal--><g class="link" data-entity-1="Undefined" data-entity-2="Normal" data-source-line="33" data-uid="lnk8" id="link_Undefined_Normal"><path d="M353.08,390.7938 C351.37,412.4638 349.05,445.1238 348.12,473.5938 C346.4,526.3138 349.9057,582.1125 352.5457,615.4025" fill="none" id="Undefined-to-Normal" style="stroke:#000000;stroke-width:1;"/><polygon fill="#000000" points="353.02,621.3838,356.296,612.0957,352.6247,616.3994,348.321,612.7281,353.02,621.3838" style="stroke:#000000;stroke-width:1;"/><text fill="#000000" font-family="sans-serif" font-size="13" lengthAdjust="spacing" textLength="18.4146" x="381.5819" y="488.1606">(1)</text><text fill="#000000" font-family="sans-serif" font-size="13" lengthAdjust="spacing" textLength="79.2061" x="353.2523" y="503.2935">Local server</text><text fill="#000000" font-family="sans-serif" font-size="13" lengthAdjust="spacing" textLength="81.0024" x="354.4203" y="518.4263">unreachable</text></g><!--link Undefined to Standby--><g class="link" data-entity-1="Undefined" data-entity-2="Standby" data-source-line="34" data-uid="lnk9" id="link_Undefined_Standby"><path d="M378.96,390.6238 C402.27,414.1138 433.3536,445.4249 456.7636,469.0149" fill="none" id="Undefined-to-Standby" style="stroke:#000000;stroke-width:1;"/><polygon fill="#000000" points="460.99,473.2738,457.4897,464.0679,457.468,469.7247,451.8112,469.703,460.99,473.2738" style="stroke:#000000;stroke-width:1;"/><text fill="#000000" font-family="sans-serif" font-size="13" lengthAdjust="spacing" textLength="18.4146" x="475.5819" y="421.6606">(2)</text><text fill="#000000" font-family="sans-serif" font-size="13" lengthAdjust="spacing" textLength="79.2061" x="447.2523" y="436.7935">Local server</text><text fill="#000000" font-family="sans-serif" font-size="13" lengthAdjust="spacing" textLength="64.5239" x="456.6596" y="451.9263">reachable</text></g><!--link Standby to Normal--><g class="link" data-entity-1="Standby" data-entity-2="Normal" data-source-line="35" data-uid="lnk10" id="link_Standby_Normal"><path d="M463.65,523.7038 C439.57,550.7538 404.7097,589.9024 380.6097,616.9724" fill="none" id="Standby-to-Normal" style="stroke:#000000;stroke-width:1;"/><polygon fill="#000000" points="376.62,621.4538,385.5921,617.3915,379.9447,617.7193,379.6169,612.0719,376.62,621.4538" style="stroke:#000000;stroke-width:1;"/><text fill="#000000" font-family="sans-serif" font-size="13" lengthAdjust="spacing" textLength="18.4146" x="480.4801" y="554.6606">(3)</text><text fill="#000000" font-family="sans-serif" font-size="13" lengthAdjust="spacing" textLength="79.2061" x="452.1505" y="569.7935">Local server</text><text fill="#000000" font-family="sans-serif" font-size="13" lengthAdjust="spacing" textLength="81.0024" x="451.2523" y="584.9263">unreachable</text><text fill="#000000" font-family="sans-serif" font-size="13" lengthAdjust="spacing" textLength="4.1323" x="489.6874" y="600.0591">&#160;</text></g><!--link Normal to Hypothesis--><g class="link" data-entity-1="Normal" data-entity-2="Hypothesis" data-source-line="36" data-uid="lnk11" id="link_Normal_Hypothesis"><path d="M319.36,663.0638 C308.64,669.6038 298.14,678.3538 292.12,689.5938 C279.12,713.8938 276.99,728.5638 292.12,751.5938 C305.9,772.5638 325.241,782.7302 348.091,789.4102" fill="none" id="Normal-to-Hypothesis" style="stroke:#000000;stroke-width:1;"/><polygon fill="#000000" points="353.85,791.0938,346.334,784.7291,349.0509,789.6908,344.0892,792.4077,353.85,791.0938" style="stroke:#000000;stroke-width:1;"/><text fill="#000000" font-family="sans-serif" font-size="13" lengthAdjust="spacing" textLength="18.4146" x="333.9926" y="710.1606">(4)</text><text fill="#000000" font-family="sans-serif" font-size="13" lengthAdjust="spacing" textLength="96.0273" x="297.2523" y="725.2935">Remote server</text><text fill="#000000" font-family="sans-serif" font-size="13" lengthAdjust="spacing" textLength="81.0024" x="306.8309" y="740.4263">unreachable</text></g><!--link Normal to Error--><g class="link" data-entity-1="Normal" data-entity-2="Error" data-source-line="37" data-uid="lnk12" id="link_Normal_Error"><path d="M319.55,646.8938 C246.39,646.3138 83,649.6138 48.12,689.5938 C30,710.3538 32.2,729.1038 48.12,751.5938 C72.63,786.2438 118.3306,795.5567 150.4506,798.2267" fill="none" id="Normal-to-Error" style="stroke:#000000;stroke-width:1;"/><polygon fill="#000000" points="156.43,798.7238,147.7923,793.9919,151.4472,798.3095,147.1296,801.9644,156.43,798.7238" style="stroke:#000000;stroke-width:1;"/><text fill="#000000" font-family="sans-serif" font-size="13" lengthAdjust="spacing" textLength="18.4146" x="94.1852" y="702.6606">(5)</text><text fill="#000000" font-family="sans-serif" font-size="13" lengthAdjust="spacing" textLength="104.4126" x="53.2523" y="717.7935">Synchronization</text><text fill="#000000" font-family="sans-serif" font-size="13" lengthAdjust="spacing" textLength="33.395" x="88.7611" y="732.9263">issue</text><text fill="#000000" font-family="sans-serif" font-size="13" lengthAdjust="spacing" textLength="34.6519" x="90.1989" y="748.0591">Irig-B</text></g><!--link Normal to *end*Active--><g class="link" data-entity-1="Normal" data-entity-2=".end.Active" data-source-line="38" data-uid="lnk14" id="link_Normal_.end.Active"><path d="M390.82,648.4838 C421.34,651.3338 463.76,660.6938 486.12,689.5938 C516.33,728.6438 517.66,867.6637 495.12,911.5938 C489.11,923.3138 481.1084,928.7209 471.6984,933.0609" fill="none" id="Normal-to-*end*Active" style="stroke:#000000;stroke-width:1;"/><polygon fill="#000000" points="466.25,935.5738,476.0979,935.4367,470.7904,933.4797,472.7474,928.1721,466.25,935.5738" style="stroke:#000000;stroke-width:1;"/><text fill="#000000" font-family="sans-serif" font-size="13" lengthAdjust="spacing" textLength="26.6855" x="542.2203" y="790.1606">(10)</text><text fill="#000000" font-family="sans-serif" font-size="13" lengthAdjust="spacing" textLength="58.5698" x="528.3444" y="805.2935">Virtual IP</text><text fill="#000000" font-family="sans-serif" font-size="13" lengthAdjust="spacing" textLength="88.8862" x="515.2523" y="820.4263">address issue</text></g><!--link Normal to *end*Active--><g class="link" data-entity-1="Normal" data-entity-2=".end.Active" data-source-line="39" data-uid="lnk15" id="link_Normal_.end.Active"><path d="M390.93,651.2938 C450.97,659.7638 569.28,686.7038 609.12,769.5938 C621.06,794.4338 620.68,806.5838 609.12,831.5938 C580.48,893.5738 501.5607,924.6423 472.0807,934.4923" fill="none" id="Normal-to-*end*Active-1" style="stroke:#000000;stroke-width:1;"/><polygon fill="#000000" points="466.39,936.3938,476.1937,937.3355,471.1323,934.8092,473.6585,929.7478,466.39,936.3938" style="stroke:#000000;stroke-width:1;"/><text fill="#000000" font-family="sans-serif" font-size="13" lengthAdjust="spacing" textLength="26.6855" x="676.5184" y="782.6606">(11)</text><text fill="#000000" font-family="sans-serif" font-size="13" lengthAdjust="spacing" textLength="139.3501" x="622.2523" y="797.7935">Service unavailability</text><text fill="#000000" font-family="sans-serif" font-size="13" lengthAdjust="spacing" textLength="57.3574" x="663.2487" y="812.9263">provided</text><text fill="#000000" font-family="sans-serif" font-size="13" lengthAdjust="spacing" textLength="4.1323" x="664.2833" y="828.0591">&#160;</text><text fill="#000000" font-family="sans-serif" font-size="13" font-weight="bold" lengthAdjust="spacing" textLength="10.8799" x="668.4157" y="828.0591">N</text><text fill="#000000" font-family="sans-serif" font-size="13" lengthAdjust="spacing" textLength="36.1436" x="683.4279" y="828.0591">times</text></g><!--link Hypothesis to Normal--><g class="link" data-entity-1="Hypothesis" data-entity-2="Normal" data-source-line="40" data-uid="lnk16" id="link_Hypothesis_Normal"><path d="M406.96,775.2538 C409.49,752.1538 410.39,716.9838 398.12,689.5938 C395.22,683.1138 394.8804,681.5412 389.9904,676.2212" fill="none" id="Hypothesis-to-Normal" style="stroke:#000000;stroke-width:1;"/><polygon fill="#000000" points="385.93,671.8038,389.0756,681.1368,389.3136,675.4849,394.9655,675.723,385.93,671.8038" style="stroke:#000000;stroke-width:1;"/><text fill="#000000" font-family="sans-serif" font-size="13" lengthAdjust="spacing" textLength="18.4146" x="434.2408" y="702.6606">(6)</text><text fill="#000000" font-family="sans-serif" font-size="13" lengthAdjust="spacing" textLength="54.2788" x="418.3749" y="717.7935">Network</text><text fill="#000000" font-family="sans-serif" font-size="13" lengthAdjust="spacing" textLength="64.5239" x="413.2523" y="732.9263">reachable</text><text fill="#000000" font-family="sans-serif" font-size="13" lengthAdjust="spacing" textLength="39.4316" x="421.3646" y="748.0591">within</text><text fill="#000000" font-family="sans-serif" font-size="13" font-weight="bold" lengthAdjust="spacing" textLength="8.8677" x="464.9286" y="748.0591">T</text></g><!--link Hypothesis to *end*Active--><g class="link" data-entity-1="Hypothesis" data-entity-2=".end.Active" data-source-line="41" data-uid="lnk17" id="link_Hypothesis_.end.Active"><path d="M396.68,825.8038 C391.84,849.4538 388.43,885.5938 404.12,911.5938 C413.13,926.5138 427.305,932.4088 439.715,935.7388" fill="none" id="Hypothesis-to-*end*Active" style="stroke:#000000;stroke-width:1;"/><polygon fill="#000000" points="445.51,937.2938,437.8542,931.0979,440.6808,935.9979,435.7808,938.8246,445.51,937.2938" style="stroke:#000000;stroke-width:1;"/><text fill="#000000" font-family="sans-serif" font-size="13" lengthAdjust="spacing" textLength="18.4146" x="438.4801" y="862.6606">(7)</text><text fill="#000000" font-family="sans-serif" font-size="13" lengthAdjust="spacing" textLength="54.2788" x="422.6141" y="877.7935">Network</text><text fill="#000000" font-family="sans-serif" font-size="13" lengthAdjust="spacing" textLength="81.0024" x="409.2523" y="892.9263">unreachable</text><text fill="#000000" font-family="sans-serif" font-size="13" lengthAdjust="spacing" textLength="39.4316" x="425.6039" y="908.0591">within</text><text fill="#000000" font-family="sans-serif" font-size="13" font-weight="bold" lengthAdjust="spacing" textLength="8.8677" x="469.1679" y="908.0591">T</text></g><!--link Error to Normal--><g class="link" data-entity-1="Error" data-entity-2="Normal" data-source-line="42" data-uid="lnk18" id="link_Error_Normal"><path d="M179.05,775.5738 C175.36,751.0438 174.03,713.2938 194.12,689.5938 C210.14,670.6938 271.0123,659.1358 313.3723,652.9858" fill="none" id="Error-to-Normal" style="stroke:#000000;stroke-width:1;"/><polygon fill="#000000" points="319.31,652.1238,309.8287,649.4584,314.3619,652.8421,310.9781,657.3753,319.31,652.1238" style="stroke:#000000;stroke-width:1;"/><text fill="#000000" font-family="sans-serif" font-size="13" lengthAdjust="spacing" textLength="18.4146" x="224.9699" y="710.1606">(8)</text><text fill="#000000" font-family="sans-serif" font-size="13" lengthAdjust="spacing" textLength="73.9819" x="199.2523" y="725.2935">No attempt</text><text fill="#000000" font-family="sans-serif" font-size="13" lengthAdjust="spacing" textLength="72.6743" x="201.9723" y="740.4263">in progress</text></g><!--link Error to *end*Active--><g class="link" data-entity-1="Error" data-entity-2=".end.Active" data-source-line="43" data-uid="lnk19" id="link_Error_.end.Active"><path d="M190.25,825.7138 C198.15,851.4638 214.52,891.2838 244.12,911.5938 C277.33,934.3838 400.5712,938.5325 439.1712,939.3125" fill="none" id="Error-to-*end*Active" style="stroke:#000000;stroke-width:1;"/><polygon fill="#000000" points="445.17,939.4338,436.2526,935.2527,440.171,939.3327,436.091,943.2511,445.17,939.4338" style="stroke:#000000;stroke-width:1;"/><text fill="#000000" font-family="sans-serif" font-size="13" lengthAdjust="spacing" textLength="18.4146" x="305.0768" y="870.1606">(9)</text><text fill="#000000" font-family="sans-serif" font-size="13" lengthAdjust="spacing" textLength="134.1958" x="249.2523" y="885.2935">At least one attempt</text><text fill="#000000" font-family="sans-serif" font-size="13" lengthAdjust="spacing" textLength="72.6743" x="282.0792" y="900.4263">in progress</text></g><ellipse cx="397.5" cy="199.2969" fill="#222222" rx="10" ry="10" style="stroke:#222222;stroke-width:1;"/><ellipse cx="397.5" cy="1188.2969" fill="none" rx="11" ry="11" style="stroke:#222222;stroke-width:1;"/><ellipse cx="397.5" cy="1188.2969" fill="#222222" rx="6" ry="6" style="stroke:#222222;stroke-width:1;"/><!--link *start*S3C to Active--><g class="link" data-entity-1=".start.S3C" data-entity-2="Active" data-source-line="21" data-uid="lnk5" id="link_.start.S3C_Active"><path d="M397.5,209.4569 C397.5,217.3569 397.5,224.0069 397.5,240.0269" fill="none" id="*start*S3C-to-Active" style="stroke:#000000;stroke-width:1;"/><polygon fill="#000000" points="397.5,246.0269,401.5,237.0269,397.5,241.0269,393.5,237.0269,397.5,246.0269" style="stroke:#000000;stroke-width:1;"/></g><!--link Active to Inactive--><g class="link" data-entity-1="Active" data-entity-2="Inactive" data-source-line="45" data-uid="lnk20" id="link_Active_Inactive"><path d="M344.88,961.4769 C344.38,967.4569 343.92,973.3969 343.5,979.2969 C342.01,1000.1369 334.32,1007.5369 343.5,1026.2969 C347.2,1033.8769 348.4759,1036.5473 354.9259,1042.1373" fill="none" id="Active-to-Inactive" style="stroke:#000000;stroke-width:1;"/><polygon fill="#000000" points="359.46,1046.0669,355.2785,1037.1497,355.6816,1042.7922,350.0391,1043.1953,359.46,1046.0669" style="stroke:#000000;stroke-width:1;"/><text fill="#000000" font-family="sans-serif" font-size="13" lengthAdjust="spacing" textLength="19.0366" x="375.6321" y="999.8638">(A)</text><text fill="#000000" font-family="sans-serif" font-size="13" lengthAdjust="spacing" textLength="81.3008" x="348.6323" y="1014.9966">L3C stopped</text></g><!--reverse link Active to Inactive--><g class="link" data-entity-1="Active" data-entity-2="Inactive" data-source-line="46" data-uid="lnk22" id="link_Active_Inactive"><path d="M429.9616,967.5393 C430.2616,973.4993 430.24,973.4269 430.5,979.2969 C431.42,1000.1669 437.33,1006.5569 430.5,1026.2969 C428.32,1032.6069 424.75,1038.6869 420.76,1044.1769" fill="none" id="Active-backto-Inactive" style="stroke:#000000;stroke-width:1;"/><polygon fill="#000000" points="429.66,961.5469,426.1175,970.7366,429.9114,966.5406,434.1074,970.3344,429.66,961.5469" style="stroke:#000000;stroke-width:1;"/><text fill="#000000" font-family="sans-serif" font-size="13" lengthAdjust="spacing" textLength="19.062" x="489.6548" y="992.3638">(B)</text><text fill="#000000" font-family="sans-serif" font-size="13" lengthAdjust="spacing" textLength="83.6621" x="451.9592" y="1007.4966">After a delay</text><text fill="#000000" font-family="sans-serif" font-size="13" font-weight="bold" lengthAdjust="spacing" textLength="10.791" x="539.7537" y="1007.4966">D</text><text fill="#000000" font-family="sans-serif" font-size="13" lengthAdjust="spacing" textLength="4.1323" x="550.5447" y="1007.4966">&#160;</text><text fill="#000000" font-family="sans-serif" font-size="13" lengthAdjust="spacing" textLength="29.8022" x="438.6323" y="1022.6294">With</text><text fill="#000000" font-family="sans-serif" font-size="13" font-weight="bold" lengthAdjust="spacing" textLength="12.9365" x="472.5669" y="1022.6294">M</text><text fill="#000000" font-family="sans-serif" font-size="13" lengthAdjust="spacing" textLength="78.3682" x="489.6357" y="1022.6294">not reached</text></g><!--link Inactive to *end*S3C--><g class="link" data-entity-1="Inactive" data-entity-2=".end.S3C" data-source-line="47" data-uid="lnk24" id="link_Inactive_.end.S3C"><path d="M397.5,1094.5369 C397.5,1119.9769 397.5,1152.7469 397.5,1171.0469" fill="none" id="Inactive-to-*end*S3C" style="stroke:#000000;stroke-width:1;"/><polygon fill="#000000" points="397.5,1177.0469,401.5,1168.0469,397.5,1172.0469,393.5,1168.0469,397.5,1177.0469" style="stroke:#000000;stroke-width:1;"/><text fill="#000000" font-family="sans-serif" font-size="13" lengthAdjust="spacing" textLength="19.2207" x="440.8643" y="1125.3638">(C)</text><text fill="#000000" font-family="sans-serif" font-size="13" lengthAdjust="spacing" textLength="83.6621" x="403.248" y="1140.4966">After a delay</text><text fill="#000000" font-family="sans-serif" font-size="13" font-weight="bold" lengthAdjust="spacing" textLength="10.791" x="491.0425" y="1140.4966">D</text><text fill="#000000" font-family="sans-serif" font-size="13" lengthAdjust="spacing" textLength="4.1323" x="501.8335" y="1140.4966">&#160;</text><text fill="#000000" font-family="sans-serif" font-size="13" lengthAdjust="spacing" textLength="29.8022" x="402.6323" y="1155.6294">With</text><text fill="#000000" font-family="sans-serif" font-size="13" font-weight="bold" lengthAdjust="spacing" textLength="12.9365" x="436.5669" y="1155.6294">M</text><text fill="#000000" font-family="sans-serif" font-size="13" lengthAdjust="spacing" textLength="52.9458" x="453.6357" y="1155.6294">reached</text></g><g class="entity" data-entity="N2" data-source-line="51" data-uid="ent0011" id="entity_N2"><path d="M441,6 L441,91.6641 L706.645,91.6641 L706.645,16 L696.645,6 L441,6" fill="#FFFFFF" style="stroke:#181818;stroke-width:0.5;"/><path d="M696.645,6 L696.645,16 L706.645,16 L696.645,6" fill="#FFFFFF" style="stroke:#181818;stroke-width:1;"/><text fill="#000000" font-family="sans-serif" font-size="13" font-weight="bold" lengthAdjust="spacing" textLength="10.791" x="447" y="23.0669">D</text><text fill="#000000" font-family="sans-serif" font-size="13" lengthAdjust="spacing" textLength="176.2427" x="457.791" y="23.0669">: maximum waiting time to</text><text fill="#000000" font-family="sans-serif" font-size="13" lengthAdjust="spacing" textLength="97.811" x="447" y="38.1997">restart the L3C</text><text fill="#000000" font-family="sans-serif" font-size="13" lengthAdjust="spacing" textLength="4.1323" x="447" y="53.3325">&#160;</text><text fill="#000000" font-family="sans-serif" font-size="13" font-weight="bold" lengthAdjust="spacing" textLength="12.9365" x="447" y="68.4653">M</text><text fill="#000000" font-family="sans-serif" font-size="13" lengthAdjust="spacing" textLength="227.5762" x="459.9365" y="68.4653">: maximum number of consecutive</text><text fill="#000000" font-family="sans-serif" font-size="13" lengthAdjust="spacing" textLength="121.2466" x="447" y="83.5981">restarts of the L3C</text></g><ellipse cx="396" cy="49" fill="#222222" rx="10" ry="10" style="stroke:#222222;stroke-width:1;"/><ellipse cx="396" cy="1280" fill="none" rx="11" ry="11" style="stroke:#222222;stroke-width:1;"/><ellipse cx="396" cy="1280" fill="#222222" rx="6" ry="6" style="stroke:#222222;stroke-width:1;"/><!--link *start* to S3C--><g class="link" data-entity-1=".start." data-entity-2="S3C" data-source-line="15" data-uid="lnk3" id="link_.start._S3C"><path d="M396,59.14 C396,74.45 396,101.96 396,145.88" fill="none" id="*start*-to-S3C" style="stroke:#000000;stroke-width:1;"/><polygon fill="#000000" points="396,151.88,400,142.88,396,146.88,392,142.88,396,151.88" style="stroke:#000000;stroke-width:1;"/></g><!--link S3C to *end*--><g class="link" data-entity-1="S3C" data-entity-2=".end." data-source-line="49" data-uid="lnk26" id="link_S3C_.end."><path d="M396,1209.29 C396,1236.27 396,1251.02 396,1262.62" fill="none" id="S3C-to-*end*" style="stroke:#000000;stroke-width:1;"/><polygon fill="#000000" points="396,1268.62,400,1259.62,396,1263.62,392,1259.62,396,1268.62" style="stroke:#000000;stroke-width:1;"/></g><!--SRC=[bPNVRzem4CUVoLznQX_Q8b4L-cCT3vFuiMxjW5MbT0-b3oOnmIAn8-S2PTN-zvtjK0YbT4CWnNU-ZozVtntfLCY4QHP3YWmvl7WbW5AfgNJ0TKj5IaCpOluqDzDJg5Kc0-VQZqGumL3pXVCtj5RpDr7MUgKa5ZobF_JpZ5ygEdYlNBulb-iGisSHPp7CcK0XGq0HSq05GycV1G9EE1nyNoIA7bAH7hYqXt8eo-NUUhpCuX7NeCRWAvboFqCnuqJHd28qfiR38ELw9do-1oo5NXNsh-p796Q_Z-Kdg3pkZqp6JvKlq3zjBLrEhhskaWALve55aFy5o6asv3kk9VFDqKlh9h9HyAxYdDtSXxFcve4C-5X87gpPUah7B5epz979OBHOitobAz1hwvM2h_pDn8edlQuAUzp9TJYi7f6qq54-Ywocf3ojCrAR-HCsYZZieEJf4gQs5VCAiOnyz_OyJZ_COoWjnKKK82jD27HcGNSyDhMvbVGUnafDX7DBw2-aFz5K9ByP2YMDIQHfPlA0Qot2IlCz3js74VR4OXw4nemsND-Q5Gi2AkFKaJw8TpVJTtLE-RCP4n4RYKZWmdWIhMOYe1kXPzj2jkDiMPHMYcnN-yAoUnpdIayBDsKMSu4JOQ3KrxjmBj5FcwpYfRsbMPstvtNfM0eO8eyJjAhRLmsDRk-4kpm-szW6GiHPYg0atq4n8woKTsebK7EvXbisFZ4RhYfFMpIjL9AubbhweP8bR-O11JLT8cEaocCGy8WjwEtRT45a_aLgqAfBAvgUJlTDx4O-xlLQ_qXT4SqxqbpRK6fpThTtp-vywjhnJJguUTtzttcTHxjfNIjCQy-xZPZ4GRS3rAgfQRNgSUsaTdvyEUB8geS3EPKa2D7ZH519cToElCDljnr8LQQfDmAHeXQZpFJfaNT3ZG9tcJJxwl0puVAc_MDfWAzo9gYhOoxHktdehZPSd5MQz3VLTnFZeUkr-PXb4LA4hm8IfGw3-wlAfTTXCinOI6mklHRzfQAc2IYpAFeB]--></g></svg>